<?xml version="1.0" standalone="no"?>
<svg viewBox="0 0 200 200" xmlns="http://www.w3.org/2000/svg">
  <path fill="#095DDB" d="M32.4,-47.6C42.7,-43.8,52.2,-36,56.9,-25.9C61.7,-15.8,61.8,-3.4,62.2,10.4C62.5,24.3,63.1,39.8,55.6,48C48.2,56.3,32.7,57.4,17.4,64.1C2.1,70.7,-12.9,82.9,-24.2,80.4C-35.4,78,-42.9,60.8,-47.2,46.3C-51.5,31.7,-52.5,19.7,-57.2,6.5C-61.8,-6.8,-70.1,-21.3,-66,-30.1C-61.9,-38.8,-45.4,-41.9,-32.3,-44.4C-19.3,-46.9,-9.6,-48.9,0.7,-50C11.1,-51.1,22.1,-51.4,32.4,-47.6Z" transform="translate(100 100)" />
</svg>
