<svg xmlns="http://www.w3.org/2000/svg" viewBox="0 0 900 900" width="900" height="900"><g transform="translate(68.0 54.0) rotate(0.0 386.5 395.5) scale(0.9979988380349881 0.9983806291438792)"><svg width="774.55" height="792.283" viewBox="0 0 774.55 792.283"><path d="M463.26 81.71c0 4.5-.22 8.92-.64 13.21h-86.24c-.42-4.29-.64-8.71-.64-13.21 0-42.64 19.59-79.21 43.76-79.21s43.76 36.57 43.76 79.21z" fill="#a3c2f2"/><path d="M462.62 97.42h-86.24a2.5 2.5 0 0 1-2.488-2.256c-.433-4.42-.652-8.946-.652-13.453C373.24 36.655 393.992 0 419.5 0s46.26 36.655 46.26 81.71c0 4.507-.219 9.034-.652 13.453a2.5 2.5 0 0 1-2.488 2.256zm-83.953-5h81.666c.284-3.537.427-7.129.427-10.71C460.76 40.129 441.865 5 419.5 5s-41.26 35.129-41.26 76.71c0 3.581.144 7.173.427 10.71z" fill="#095ddb"/><path d="M415.247 49.378c-6.54.156-11.908.156-18.241.156-.718-10.805 1.734-22.088 7.397-32.819 5.235-1.418 9.975-1.135 15.681-.156-4.461 10.805-6.074 22.116-4.836 32.819zm80.081 48.437v14.12h-151.65v-14.12c0-20.52 15.65-37.69 36.08-39.5 3.7-.32 7.4-.6 11.11-.83 5.12-.33 10.25-.57 15.38-.72 17.67-.52 35.37 0 53 1.55 20.43 1.81 36.08 18.98 36.08 39.5z" fill="#fff"/><path d="M495.328 114.435h-151.65a2.5 2.5 0 0 1-2.5-2.5v-14.12c0-22.001 16.491-40.053 38.359-41.99 3.908-.338 7.562-.611 11.176-.835a443.28 443.28 0 0 1 15.461-.724c17.682-.52 35.612.004 53.292 1.559 21.87 1.938 38.361 19.99 38.361 41.99v14.12a2.5 2.5 0 0 1-2.5 2.5zm-149.15-5h146.65v-11.62c0-19.392-14.531-35.302-33.801-37.01a452.405 452.405 0 0 0-52.706-1.541c-5.085.149-10.23.39-15.293.716-3.579.222-7.194.492-11.056.826-19.264 1.707-33.795 17.618-33.795 37.009v11.62zm405.5 332.981c-3.42 1.66-7.51 3.62-12.1 5.81-43.56 20.7-132.68 61.51-132.68 61.51-1.57.73-3.05 1.43-4.48 2.09-.14.07-.28.13-.42.19-3.83 1.76-7.26 3.21-10.84 4.21-5.99 1.79-8.79 1.11-16.29 1.11l3.66-13.92 11.76-2.11c24.63-151.08 35.7-297.66 39.65-403.91l-10.31-.7-.17-17.19c4.07 1.08 7.66 1.73 10.8 3.39 1.25.66 2.69 1.78 4.04 2.83 1.08.84 2.21 1.82 3.41 2.98l26.87 23.51 17.69 15.48c4.15 3.63 7.68 7.92 10.43 12.71 45.35 78.95 74.59 179.97 79.21 263.53 1.51 27.43-10.46 33.72-20.23 38.48z" fill="#095ddb"/><path d="M582.626 519.963c-.99 0-2.021-.026-3.149-.055-1.343-.034-2.844-.073-4.609-.073a2.501 2.501 0 0 1-2.418-3.135l3.66-13.92a2.5 2.5 0 0 1 1.976-1.825l10.018-1.798c27.236-167.741 36.27-321.23 39.244-399.432l-7.89-.536a2.501 2.501 0 0 1-2.331-2.47l-.17-17.19a2.501 2.501 0 0 1 3.141-2.441c.87.231 1.717.442 2.543.647 3.115.775 6.056 1.507 8.784 2.949 1.442.761 2.947 1.931 4.402 3.063a44.376 44.376 0 0 1 3.572 3.115l44.514 38.95a52.266 52.266 0 0 1 10.951 13.347c44.3 77.122 74.777 178.525 79.539 264.637 1.626 29.534-12.37 36.353-21.632 40.866h-.003a1958.673 1958.673 0 0 1-12.115 5.819c-43.081 20.473-131.824 61.118-132.716 61.527l-1.924.899c-.872.408-1.719.805-2.549 1.188a9.108 9.108 0 0 1-.462.209c-4.007 1.842-7.461 3.292-11.172 4.329-3.669 1.097-6.253 1.33-9.205 1.33zm-4.526-5.09c.524.011 1.024.024 1.504.036 4.293.109 6.658.169 10.838-1.08 3.437-.961 6.683-2.327 10.512-4.086.164-.071.255-.109.346-.154.892-.413 1.732-.806 2.595-1.21l1.949-.91c.904-.414 89.615-41.045 132.661-61.501 4.579-2.185 8.663-4.142 12.078-5.799 9.032-4.4 20.272-9.877 18.829-36.095-4.721-85.381-34.947-185.935-78.882-262.422a47.308 47.308 0 0 0-9.908-12.074l-44.56-38.99a1.81 1.81 0 0 1-.091-.084 39.507 39.507 0 0 0-3.207-2.804c-1.229-.956-2.618-2.036-3.673-2.593-2.051-1.085-4.402-1.706-7.101-2.38l.115 11.632 8.002.543a2.5 2.5 0 0 1 2.329 2.587c-2.893 77.803-11.894 233.776-39.681 404.219a2.5 2.5 0 0 1-2.026 2.058l-10.19 1.828z" fill="#095ddb"/><path d="M581.705 519.966c-1.139 0-2.255-.032-3.382-.065-1.118-.032-2.257-.065-3.455-.065a2.5 2.5 0 1 1 0-5c1.247 0 2.434.034 3.599.067 6.193.179 11.54.333 22.833-5.313 4.548-2.101 10.947-5.044 18.65-8.587 32.014-14.726 85.595-39.372 118.555-55.035 1.656-.79 3.273-1.541 4.843-2.271 17.174-7.977 27.541-12.792 26.064-39.624-4.721-85.38-34.947-185.935-78.882-262.422-4.262-7.423-9.065-11.502-16.336-17.675-3.244-2.754-6.92-5.875-11.268-9.884-12.348-10.383-19.662-16.998-24.504-21.376q-8.828-7.983-16.923-10.091c-.813-.212-1.702-.443-2.682-.703a2.5 2.5 0 1 1 1.283-4.833c.971.258 1.853.487 2.659.697 9.107 2.372 9.462 2.581 19.016 11.221 4.821 4.36 12.107 10.949 24.412 21.295l.086.076c4.291 3.958 7.938 7.055 11.157 9.787 7.672 6.513 12.74 10.816 17.436 18.996 44.3 77.122 74.777 178.525 79.539 264.637 1.663 30.215-11.178 36.179-28.95 44.434a509.993 509.993 0 0 0-4.8 2.25c-32.991 15.678-86.591 40.332-118.615 55.063-7.701 3.542-14.097 6.484-18.574 8.551-10.231 5.117-16.253 5.87-21.761 5.87z" fill="#095ddb"/><path d="M595.669 74.014c-4.29-.43-8.46-.32-15.33-.31h-.43v.01l-400.57 8.5a9.98 9.98 0 0 0-9.39 7.23c-12.7 44.24-25.16 98.09-35.24 153.11-10.22 55.84-17.98 112.9-21.01 162.31-.33 5.34 3.63 9.98 8.95 10.53l394.309 40.885 12.927 20.614 34.504-20.759-21.039-28.229-5.454 2.532c7.251-112.888 24.526-228.076 53.223-339.202h10.29l4.05-15.36c-3.9-1.02-6.87-1.57-9.79-1.86z" fill="#fff"/><path d="M529.887 479.392a2.498 2.498 0 0 1-2.12-1.172l-12.28-19.581-393.096-40.759c-6.686-.691-11.601-6.477-11.188-13.171 2.873-46.848 10.151-103.077 21.046-162.606 9.925-54.176 22.46-108.637 35.296-153.35 1.509-5.292 6.228-8.926 11.742-9.04l400.344-8.495c.091-.01.184-.015.278-.015l3.719-.011c4.994-.021 8.604-.036 12.29.333 3.121.31 6.258.905 10.173 1.929a2.502 2.502 0 0 1 1.785 3.056l-4.05 15.36a2.5 2.5 0 0 1-2.417 1.863h-8.352c-27.121 105.533-44.741 217.422-52.391 332.661l1.632-.758a2.5 2.5 0 0 1 3.057.774l21.039 28.229a2.497 2.497 0 0 1-.716 3.636l-34.504 20.759a2.494 2.494 0 0 1-1.286.358zm50.246-403.188a2.448 2.448 0 0 1-.171.009l-400.57 8.5a7.435 7.435 0 0 0-7.039 5.416c-12.793 44.565-25.288 98.855-35.185 152.875-10.86 59.336-18.113 115.359-20.974 162.012-.248 4.01 2.701 7.475 6.712 7.89l394.309 40.885a2.501 2.501 0 0 1 1.86 1.158l11.623 18.534 30.036-18.071-18.175-24.386-3.611 1.676a2.5 2.5 0 0 1-3.548-2.428c7.562-117.718 25.494-231.998 53.297-339.667a2.5 2.5 0 0 1 2.421-1.875h8.363l2.912-11.043c-2.566-.595-4.784-.971-6.973-1.189h-.002c-3.427-.344-6.746-.329-11.771-.308l-3.516.011z" fill="#095ddb"/><path d="M497.619 108.644c-1.69 6.27-3.37 12.69-5.03 19.27h-263.43c-1.78 0-3.49.48-4.98 1.34l-34.32-31.96c1.44-.8 3.09-1.25 4.82-1.25h293.29c7.18 0 11.51 5.66 9.65 12.6z" fill="#fff"/><path d="M224.179 131.754c-.618 0-1.23-.228-1.704-.67l-34.32-31.96a2.498 2.498 0 0 1 .489-4.015 12.45 12.45 0 0 1 6.034-1.565h293.291c4.263 0 7.883 1.658 10.193 4.668 2.314 3.015 2.979 6.95 1.872 11.079v.004a1227.806 1227.806 0 0 0-5.021 19.231 2.5 2.5 0 0 1-2.424 1.888h-263.43a7.48 7.48 0 0 0-3.73 1.005c-.39.225-.821.335-1.249.335zm-29.31-33.21 29.77 27.723a12.45 12.45 0 0 1 4.519-.853h261.485c1.458-5.74 2.991-11.591 4.562-17.421.693-2.591.335-4.984-1.01-6.737-1.342-1.749-3.553-2.712-6.226-2.712H194.87z" fill="#095ddb"/><path d="M224.179 129.254c-1.65.94-3.02 2.36-3.93 4.11-25.08 48.44-40.68 129.63-42.85 196.8-.5 15.67-.28 30.58.73 44.13a10.03 10.03 0 0 0 3.96 7.25l-44.93 14.13a9.97 9.97 0 0 1-3.37-8.42c3.11-34.29 14.98-152.2 51.25-283.9a9.881 9.881 0 0 1 4.82-6.06z" fill="#095ddb"/><path d="M137.159 398.174a2.5 2.5 0 0 1-1.647-.619 12.527 12.527 0 0 1-4.213-10.527c4.947-54.546 18.194-164.018 51.329-284.338a12.469 12.469 0 0 1 6.04-7.595 2.5 2.5 0 0 1 2.894.369l34.32 31.96a2.5 2.5 0 0 1-.466 4.002 7.533 7.533 0 0 0-2.949 3.091c-23.122 44.659-40.23 123.317-42.57 195.728-.506 15.863-.262 30.621.724 43.863a7.537 7.537 0 0 0 2.977 5.443 2.501 2.501 0 0 1-.76 4.377l-44.93 14.13a2.51 2.51 0 0 1-.75.115zm52.467-297.681a7.367 7.367 0 0 0-2.178 3.531C154.417 223.963 141.211 333.1 136.279 387.48a7.516 7.516 0 0 0 1.604 5.346l39.723-12.492a12.501 12.501 0 0 1-1.97-5.854c-1-13.417-1.247-28.354-.736-44.395 2.361-73.089 19.693-152.606 43.129-197.87a12.686 12.686 0 0 1 2.294-3.135l-30.697-28.586z" fill="#095ddb"/><path d="M446.739 404.174c-.3 4.8-.55 9.54-.76 14.19-.25 5.81-5.22 10.07-11 9.49-164.34-16.73-127.03-12.94-292.22-29.74a9.974 9.974 0 0 1-5.6-2.44l44.93-14.13c1.47 1.11 3.27 1.82 5.23 1.98l15.57 1.24 145.27 11.56z" fill="#fff"/><path d="M436.047 430.407c-.437 0-.876-.022-1.318-.066l-106.057-10.798c-54.468-5.546-71.703-7.301-186.167-18.942a12.432 12.432 0 0 1-7-3.051 2.5 2.5 0 0 1 .903-4.261l44.93-14.13a2.5 2.5 0 0 1 2.257.39 7.506 7.506 0 0 0 3.927 1.483l259.415 20.649a2.5 2.5 0 0 1 2.297 2.648 823.35 823.35 0 0 0-.757 14.147c-.15 3.484-1.664 6.646-4.264 8.898a12.37 12.37 0 0 1-8.165 3.032zm-291.048-34.579c112.684 11.46 130.028 13.226 184.18 18.74l106.053 10.798c2.115.211 4.143-.417 5.706-1.771 1.549-1.342 2.452-3.239 2.543-5.34.181-4.008.387-7.96.613-11.785L187.12 386.015a12.554 12.554 0 0 1-5.425-1.728z" fill="#095ddb"/><path d="M488.576 127.919H229.157c-3.76 0-7.18 2.11-8.91 5.45-13.35 25.78-24.01 60.85-31.4 98.14-6.48 32.77-10.43 67.24-11.45 98.66-.23 7.22-.31 14.27-.22 21.11.09 8.01.4 15.71.95 23.02.37 4.92 4.27 8.84 9.19 9.23l15.57 1.24 145.27 11.56 98.58 7.85c.24-3.92.52-7.89.81-11.9 5.99-79.73 23.19-175.91 42.54-254.36.83-3.37 1.66-6.7 2.5-10h-4.01z" fill="#a3c2f2"/><path d="M586.088 517.285c-3.3.47-6.89.52-11.12.06-.03 0-.07-.01-.1-.01l-5.99-.71-191.26-22.67-188.4-22.32-14.55-1.72-28.15-28.16-26.65-26.65 408.41 42.35c5.14.53 9.88 3.04 13.22 6.99z" fill="#fff"/><path d="M580.546 520.164c-1.863 0-3.804-.111-5.848-.333l-.052-.005-.072-.007-400.199-47.42a2.505 2.505 0 0 1-1.475-.715l-54.8-54.81a2.501 2.501 0 0 1 2.026-4.255l408.41 42.35a22.396 22.396 0 0 1 14.871 7.862l44.591 52.842a2.5 2.5 0 0 1-1.559 4.088 41.713 41.713 0 0 1-5.894.404zm-5.355-5.309.047.005c2.041.222 3.958.32 5.786.301l-41.437-49.104a17.417 17.417 0 0 0-11.566-6.115l-401.405-41.624 49.206 49.216 202.089 23.938 197.23 23.378.049.005z" fill="#095ddb"/><path d="M488.576 127.919h-160.84c-5.35 3.124-11.585 6.735-16.848 9.98l-.037.017c-35.492 22.069-68.648 46.453-100.314 74a791.97 791.97 0 0 0-21.69 19.59c-6.479 32.77-10.43 67.24-11.45 98.66-.23 7.22-.31 14.27-.22 21.11a885.92 885.92 0 0 1 15.47-17.47c79.191-87.174 166.669-148.845 272.651-195.887h.007c7.36-3.26 15.73-6.88 23.27-10z" fill="#fff"/><path d="M446.738 406.676c-.066 0-.132-.003-.199-.008l-259.42-20.65c-6.188-.49-11.019-5.342-11.484-11.535-.543-7.22-.865-15.019-.957-23.179a474.763 474.763 0 0 1 .221-21.218c1.04-32.033 5.015-66.289 11.496-99.066 7.922-39.974 18.861-74.14 31.633-98.805 2.173-4.195 6.437-6.8 11.13-6.8h263.43a2.499 2.499 0 0 1 2.423 3.117c-.838 3.294-1.667 6.618-2.495 9.981-21.066 85.406-36.944 180.34-42.474 253.949-.289 3.994-.568 7.955-.808 11.866a2.502 2.502 0 0 1-2.495 2.347zm-217.58-276.26c-2.817 0-5.38 1.571-6.69 4.1-12.558 24.252-23.336 57.958-31.168 97.476-6.429 32.514-10.372 66.49-11.403 98.255a469.272 469.272 0 0 0-.219 20.996c.091 8.06.408 15.751.943 22.865a7.472 7.472 0 0 0 6.895 6.925l256.888 20.448c.201-3.101.423-6.231.651-9.387 5.551-73.877 21.478-169.119 42.606-254.778.571-2.318 1.142-4.617 1.716-6.901H229.158z" fill="#095ddb"/><path d="M593.276 82.969C561.559 203.183 543.291 328.35 536.71 450.38c-.234 4.346 1.886 10.622 4.693 13.948l42.492 50.353c1.917 2.271 3.893 1.729 4.384-1.202 26.989-161.053 38.429-318.106 42.087-427.918.059-1.759-1.289-3.552-2.993-3.995l-21.917-5.696c-5.289-1.374-10.786 1.816-12.18 7.1z" fill="#a3c2f2"/><path d="M738.488 409.366c.6 32.35-19.24 59.69-46.13 65.87l-.29 3.04-15.75-1.91-.44-.05v-.02c-24.66-2.34-44.68-22.2-50.82-48.45-.91-3.87-1.51-7.87-1.78-11.99-.15-2.13-.2-4.3-.16-6.49.22-12.01 3.12-23.23 8-32.9 10.08-20 28.67-33.36 49.68-33.37 1.46 0 2.9.09 4.34.21v-.02l.2.04c3.11.29 6.16.86 9.12 1.71l1.29.24 9.01 1.7-.21 2.17c19.56 10.45 33.44 33.35 33.94 60.22z" fill="#fff"/><path d="M692.068 480.776c-.1 0-.201-.006-.301-.018l-16.172-1.958a2.239 2.239 0 0 1-.274-.047c-31.375-3.174-55.379-33.602-54.702-69.434.339-18.379 6.739-35.62 18.022-48.547 11.351-13.006 26.323-20.171 42.156-20.176 1.258 0 2.577.06 4.243.194.196-.009.393.006.588.045l.074.015c3.18.305 6.317.893 9.33 1.75l10.19 1.92a2.5 2.5 0 0 1 2.025 2.697l-.052.537c20.101 11.521 33.308 35.48 33.793 61.565.601 32.378-18.774 60.616-46.309 67.917l-.122 1.277a2.495 2.495 0 0 1-2.489 2.262zm-15.595-6.908.128.015 13.222 1.603.047-.487a2.499 2.499 0 0 1 1.929-2.199c26.174-6.015 44.758-32.676 44.19-63.387-.464-24.933-13.267-47.723-32.618-58.062a2.5 2.5 0 0 1-1.318-2.342l-8.051-1.516a2.385 2.385 0 0 1-.233-.055 47.396 47.396 0 0 0-8.662-1.624 2.331 2.331 0 0 1-.117-.014l-.059-.004c-1.669-.139-2.943-.201-4.132-.201-29.777.01-54.531 28.637-55.18 63.816-.63 33.358 21.551 61.643 50.497 64.395.122.012.242.032.358.06z" fill="#095ddb"/><path d="M751.698 412.376c0 32.53-19.48 59.3-44.9 65-3.57.8-7.24 1.19-11 1.12-30.59-.58-54.85-30.17-54.86-66.12.01-35.94 24.27-65.54 54.86-66.11 8.4-.16 16.41 1.97 23.6 5.9 18.98 10.37 32.31 33.32 32.3 60.21z" fill="#a3c2f2"/><path d="M698.354 448.496c-13.774-.257-25.415-16.801-25.42-36.126.007-28.013 24.151-48.389 41.555-27.58 5.853 6.997 9.208 17.05 9.205 27.58 0 10.544-3.354 20.598-9.208 27.596-2.666 3.187-8.266 8.533-15.823 8.533z" fill="#095ddb"/><path d="m698.663 450.999-.332-.003h-.023c-15.104-.282-27.868-17.97-27.873-38.625.004-17.177 8.971-32.895 21.32-37.377 8.679-3.15 17.664-.164 24.652 8.192 6.223 7.44 9.79 18.078 9.787 29.185 0 11.116-3.567 21.759-9.79 29.199-2.946 3.522-9.169 9.429-17.741 9.429zm-.272-5.003.296.003c6.516 0 11.496-4.785 13.882-7.637 5.483-6.554 8.626-16.028 8.625-25.991.003-9.954-3.14-19.422-8.623-25.976-5.642-6.746-12.429-9.125-19.111-6.7-10.441 3.789-18.022 17.532-18.026 32.677.005 17.989 10.516 33.384 22.956 33.625z" fill="#095ddb"/><path d="M696.648 481.003c-.299 0-.598-.003-.897-.008-15.503-.294-29.984-7.646-40.778-20.703-10.658-12.893-16.531-29.91-16.536-47.916.005-18.004 5.877-35.02 16.536-47.912 10.795-13.059 25.277-20.409 40.778-20.698 8.649-.172 17.011 1.923 24.846 6.206 20.422 11.157 33.611 35.653 33.601 62.405 0 32.989-19.704 61.351-46.853 67.438a48.982 48.982 0 0 1-10.697 1.188zm.046-132.246c-.283 0-.565.003-.849.008-28.889.538-52.398 29.074-52.407 63.611.009 34.532 23.519 63.072 52.407 63.62a43.938 43.938 0 0 0 10.406-1.06c24.885-5.58 42.947-31.891 42.947-62.561.01-24.95-12.158-47.722-30.998-58.016-6.804-3.719-14.036-5.603-21.505-5.603z" fill="#095ddb"/><path d="M324.899 454.224c-14.41 6.82-27.71 14.05-41.08 19.5-32.57 13.28-63.715 23.034-89.02 25.55-25.409 2.526-43.17-4.06-57.58-14.32-1.2-.86-2.36-1.75-3.47-2.68-13.28-11.01-19.79-26.57-17.97-43.27.79-7.2 3.04-14.33 6.67-21.32l24.07 24.07 6.22 6.22.43.43c.8 2.03 2.42 4.21 5.51 6.41.73.52 1.545.995 2.41 1.52 33.885 20.558 117.03-18.97 147.99-33.56 9.04-4.28 20.12-2.63 24.63 6.82 4.37 9.23.42 20.26-8.81 24.63z" fill="#fff"/><path d="M184.105 502.323c-18.22 0-33.79-4.976-48.336-15.333a60.266 60.266 0 0 1-3.625-2.8c-13.87-11.499-20.745-28.071-18.85-45.457.817-7.441 3.15-14.91 6.937-22.201a2.502 2.502 0 0 1 3.986-.616l30.72 30.719c.243.243.433.533.559.852.723 1.836 2.282 3.616 4.634 5.29.53.377 1.155.755 1.818 1.154l.439.265c32.426 19.673 114.04-18.795 144.764-33.277l.864-.407c9.54-4.517 22.581-3.248 27.952 8.004a20.85 20.85 0 0 1 .793 16.057 20.873 20.873 0 0 1-10.789 11.91c-4.969 2.352-9.854 4.776-14.578 7.121-9.155 4.544-17.803 8.837-26.628 12.434-36.163 14.745-66.348 23.399-89.716 25.723-3.755.373-7.398.561-10.941.561zm-60.946-80.393c-2.617 5.744-4.261 11.565-4.896 17.346-1.734 15.916 4.332 30.503 17.081 41.073a55.746 55.746 0 0 0 3.331 2.573c16.325 11.624 34.083 16.03 55.876 13.864 22.89-2.276 52.606-10.814 88.323-25.377 8.655-3.528 17.222-7.781 26.293-12.283 4.744-2.355 9.651-4.79 14.661-7.162 7.975-3.776 11.394-13.332 7.62-21.301-4.015-8.413-13.756-9.202-21.301-5.63l-.868.409c-15.5 7.306-44.351 20.905-73.147 29.927-35.642 11.168-61.327 12.211-76.342 3.101l-.427-.258c-.747-.45-1.452-.875-2.137-1.363-3.003-2.138-5.028-4.441-6.174-7.025l-27.895-27.895zM268.98 770.231c-.626 0-1.25-.234-1.733-.698l-30.862-29.666a2.51 2.51 0 0 1-.321-.376l-67.152-96.655a2.5 2.5 0 0 1-.351-2.113l2.949-10.324a2.499 2.499 0 0 1 4.456-.741l95.065 136.645a2.5 2.5 0 0 1-2.052 3.927zm-28.951-33.796 12.474 11.99-77.632-111.586-1.176 4.118 66.334 95.477z" fill="#095ddb"/><path d="m214.079 636.43 6.868 33.404-107.887-21.387-97.351-87.267 6.229-40.382a1.995 1.995 0 0 1 2.31-1.669c62.627 10.883 170.773 49.959 189.832 117.301z" fill="#fff"/><path d="M220.947 672.334c-.162 0-.324-.016-.486-.048L112.574 650.9a2.495 2.495 0 0 1-1.183-.591L14.04 563.042a2.5 2.5 0 0 1-.802-2.243l6.229-40.382a4.474 4.474 0 0 1 1.825-2.975 4.45 4.45 0 0 1 3.383-.777c37.538 6.523 79.402 20.627 111.988 37.728 43.638 22.901 71.24 51.033 79.821 81.356.017.058.031.118.043.177l6.868 33.404a2.5 2.5 0 0 1-2.449 3.004zm-106.728-26.206 103.521 20.521-6.091-29.626c-8.227-28.938-34.957-55.977-77.309-78.203-32.004-16.795-73.086-30.662-110.009-37.14l-5.945 38.541 95.833 85.906z" fill="#095ddb"/><path d="M78.981 548.105c-12.179-12.116-8.712-27.092-2.147-37.807-7.23-3.61-11.622-6.733-16.773-11.388-5.493 2.765-8.242 4.167-12.398 7.198-5.526 9.9-5.021 25.319 2.464 39.019 7.29 1.438 20.873 2.269 28.853 2.978z" fill="#095ddb"/><path d="M78.982 550.605a2.37 2.37 0 0 1-.222-.01 710.941 710.941 0 0 0-6.098-.502c-7.677-.611-17.231-1.372-23.018-2.513a2.501 2.501 0 0 1-1.71-1.254c-7.687-14.069-8.65-30.333-2.453-41.436a2.49 2.49 0 0 1 .71-.801c4.401-3.209 7.365-4.702 12.747-7.411a2.5 2.5 0 0 1 2.8.378c5.311 4.8 9.553 7.68 16.213 11.006a2.497 2.497 0 0 1 1.014 3.542c-4.686 7.647-10.686 22.328 1.778 34.729a2.499 2.499 0 0 1-1.763 4.272zm-27.212-7.717c5.598.971 14.247 1.66 21.29 2.221l.167.013c-8.744-12.724-3.824-26.434.136-33.798-5.265-2.794-9.262-5.547-13.692-9.417-4.435 2.245-6.78 3.521-10.081 5.893-4.864 9.231-3.989 23.117 2.18 35.088z" fill="#095ddb"/><path d="M183.164 605.07c-38.073-36.766-102.612-60.061-149.294-69.911l-2.847 14.39 75.409 23.63 76.731 31.89z" fill="#fff"/><path d="M103.723 559.137c-.315 0-.635-.06-.944-.186-28.047-11.453-53.234-17.929-69.424-21.346a2.5 2.5 0 1 1 1.032-4.892c16.391 3.458 41.89 10.015 70.282 21.609a2.5 2.5 0 0 1-.946 4.816z" fill="#095ddb"/><path d="m135.182 582.893-2.46 6.2-65.92-28.33 1.2-5.62c22.21 6.86 45.71 16.11 67.18 27.75z" fill="#fff"/><path d="M135.184 585.397c-.403 0-.811-.097-1.189-.303-33.479-18.153-76.815-32.893-115.924-39.429a2.5 2.5 0 0 1 .824-4.932c39.625 6.623 83.544 21.563 117.484 39.966a2.5 2.5 0 0 1-1.194 4.698z" fill="#095ddb"/><path d="m513.127 528.346-7.473 44.204-281.207 114.658-7.31-35.375c-30.193-86.03 166.69-163.371 280.806-165.483a2 2 0 0 1 1.934 1.385l13.251 40.611z" fill="#fff"/><path d="M224.447 689.708a2.495 2.495 0 0 1-2.449-1.994l-7.277-35.213c-6.518-18.734-3.09-37.917 10.188-57.023 20.018-28.802 62.397-56.733 119.329-78.648 51.496-19.823 108.938-32.152 153.656-32.979a4.485 4.485 0 0 1 4.357 3.109l13.251 40.611c.125.384.156.793.088 1.192l-7.473 44.204a2.498 2.498 0 0 1-1.521 1.898L225.389 689.523a2.492 2.492 0 0 1-.944.185zm273.165-200.851c-90.361 1.8-227.216 49.937-268.596 109.475-12.348 17.767-15.552 35.488-9.52 52.673a2.4 2.4 0 0 1 .089.322l6.702 32.431 277.134-112.997 7.139-42.224-12.947-39.68z" fill="#095ddb"/><path d="M399.53 517.66a2.501 2.501 0 0 1-.724-4.893c31.675-9.594 70.851-15.582 104.794-16.019 1.396-.017 2.514 1.087 2.532 2.468s-1.087 2.514-2.468 2.532c-33.5.431-72.158 6.34-103.409 15.804a2.505 2.505 0 0 1-.726.108z" fill="#095ddb"/><path d="m2.504 562.026 2.207-6.962.006.008c54.371 1.248 147.023 37.203 179.355 73.566l-2.848 9.991c25.348 19.553 55.087 15.248 73.336-14.088l4.056-14.197c63.562-51.496 192.183-89.215 266.234-84.565l4.094 9.34L190.06 683.837z" fill="#fff"/><path d="M190.059 686.337c-.476 0-.95-.136-1.362-.403L1.142 564.122a2.5 2.5 0 0 1-1.021-2.852l2.207-6.962a2.498 2.498 0 0 1 2.636-1.732c26.363.644 63.212 9.531 98.629 23.791 36.972 14.886 66.986 33.333 82.347 50.609a2.5 2.5 0 0 1 .536 2.346l-2.377 8.34c11.677 8.56 24.125 11.939 36.095 9.78 12.566-2.269 23.645-10.541 32.058-23.928l3.959-13.858c.141-.494.431-.932.83-1.256 30.302-24.55 76.476-47.201 130.018-63.783 51.179-15.85 101.459-23.625 137.946-21.335a2.501 2.501 0 0 1 2.133 1.491l4.094 9.34a2.5 2.5 0 0 1-1.285 3.293L191.063 686.124a2.504 2.504 0 0 1-1.005.211zM5.462 560.966l184.827 120.039 335.36-147.172-2.476-5.649c-70.535-3.824-196.697 30.821-262.373 83.607l-3.838 13.435a2.498 2.498 0 0 1-.281.634c-9.203 14.794-21.513 23.958-35.6 26.502-13.861 2.502-28.172-1.562-41.386-11.755a2.5 2.5 0 0 1-.877-2.665l2.467-8.656c-30.821-33.408-119.186-69.63-174.765-71.661l-1.059 3.34z" fill="#095ddb"/><path d="m528.94 535.119-1.289 32.704-5.573 141.001c-59.208-11.227-137.95 16.157-174.464 48.026l-4.803-8.245-76.412-131.165c63.562-51.499 188.495-86.982 262.541-82.322z" fill="#a3c2f2"/><path d="m347.614 756.851-4.058 14.2-6.365-10.922-74.85-128.488 4.058-14.199 76.412 131.165zm-78.629 10.879c-40.871-52.462-87.017-76.108-126.354-80.559L2.5 562.029c2.231-.043 4.821.069 7.71.336 38.843 3.578 132.793 34.402 163.605 69.06l-1.289 4.541-1.559 5.445 25.776 37.104 6.971-4.599 36.956 53.118 28.315 40.698z" fill="#095ddb"/><path d="M268.987 770.23a2.496 2.496 0 0 1-1.974-.964c-36.091-46.326-80.364-74.599-124.663-79.612a2.504 2.504 0 0 1-1.384-.619L.835 563.893a2.5 2.5 0 0 1 1.617-4.364c2.327-.046 5.015.072 7.988.346 39.447 3.634 134.137 34.9 165.244 69.888a2.5 2.5 0 0 1 .537 2.344l-2.523 8.851 23.707 34.125 4.933-3.255a2.5 2.5 0 0 1 3.429.659l65.271 93.816a2.5 2.5 0 0 1-2.05 3.928zm-125.281-85.451c34.855 4.155 69.579 22.157 100.446 51.635l-41.097-59.07-4.935 3.256a2.5 2.5 0 0 1-3.43-.66l-25.776-37.104a2.5 2.5 0 0 1-.35-2.115l2.468-8.645c-31.249-33.711-122.677-63.688-161.051-67.223-.21-.02-.419-.038-.626-.056l134.351 119.981z" fill="#095ddb"/><path d="M85.502 564.464c-12.594 3.848-11.215 21.613-3.016 31.606.883-2.061 2.79-4.247 4.711-5.253 3.102 2.989 10.091 7.243 15.518 9.071-8.998-11.261-6.222-31.363 14.008-25.991-4.558-1.803-13.586-5.92-20.139-8.689-3.507-1.482-7.441-1.855-11.081-.743z" fill="#fff"/><path d="M102.715 602.388c-.266 0-.535-.043-.798-.131-4.766-1.605-10.983-5.095-14.889-8.264-.928.845-1.784 1.988-2.244 3.063a2.502 2.502 0 0 1-4.23.601c-5.858-7.139-8.322-17.507-5.993-25.212 1.58-5.226 5.111-8.813 10.211-10.371 4.049-1.237 8.59-.942 12.785.831 2.809 1.187 6.069 2.62 9.221 4.005 4.264 1.874 8.292 3.645 10.865 4.662a2.5 2.5 0 0 1-1.561 4.741c-6.637-1.762-11.467-.668-13.967 3.163-3.153 4.833-2.031 13.113 2.554 18.852a2.5 2.5 0 0 1-1.953 4.06zm-15.519-14.071c.633 0 1.258.24 1.735.7 1.617 1.558 4.638 3.658 7.921 5.472-2.283-6.205-2.025-12.994 1.074-17.745a13.354 13.354 0 0 1 6.723-5.307 726.92 726.92 0 0 0-9.039-3.926c-3.117-1.317-6.448-1.55-9.378-.655-3.479 1.063-5.796 3.43-6.886 7.036-1.56 5.161-.275 12.152 3.052 17.713 1.08-1.26 2.357-2.33 3.638-3.002a2.492 2.492 0 0 1 1.159-.285z" fill="#095ddb"/><path d="M343.556 771.051c-26.421 23.996-62.42 26.798-84.236-2.523a64.214 64.214 0 0 1-1.54-2.154L170.967 641.41c24.745 28.954 69.164 27.063 91.374-9.769l74.85 128.488z" fill="#a3c2f2"/><path d="M347.614 759.351a2.502 2.502 0 0 1-2.16-1.241l-81.215-139.409a2.5 2.5 0 0 1 .586-3.201c30.19-24.46 75.714-46.717 128.186-62.67 49.822-15.148 99.424-22.513 136.086-20.205a2.5 2.5 0 0 1 2.341 2.594l-6.862 173.706a2.502 2.502 0 0 1-2.964 2.358c-57.979-10.994-135.928 15.661-172.354 47.454-.459.4-1.044.616-1.644.616zm-77.971-141.307 78.627 134.967c37.59-31.175 113.542-56.835 171.423-47.151l6.652-168.384c-69.987-3.501-190.804 28.291-256.702 80.568z" fill="#095ddb"/><path d="M343.556 773.551a2.499 2.499 0 0 1-2.159-1.241L260.182 632.9a2.498 2.498 0 0 1-.244-1.945l4.058-14.199a2.501 2.501 0 0 1 4.564-.572l81.215 139.41c.343.588.431 1.291.244 1.945l-4.058 14.199a2.501 2.501 0 0 1-2.404 1.813zm-78.518-142.248 77.726 133.422 2.154-7.537-77.726-133.421-2.153 7.535z" fill="#095ddb"/><path d="M299.517 792.279c-1.669 0-3.326-.079-4.972-.239-14.701-1.429-27.574-9.043-37.23-22.02a68.135 68.135 0 0 1-1.601-2.24l-86.799-124.944a2.5 2.5 0 0 1 3.954-3.051c11.462 13.411 27.626 20.312 44.353 18.933 17.303-1.427 32.969-11.767 42.98-28.369a2.5 2.5 0 0 1 4.301.033l81.215 139.409a2.499 2.499 0 0 1-.479 3.109c-13.739 12.478-30.145 19.378-45.721 19.378zM183.972 655.747l75.862 109.2a62.48 62.48 0 0 0 1.495 2.091c8.787 11.81 20.441 18.736 33.699 20.025 15.052 1.465 31.474-4.544 45.337-16.524l-78.127-134.11c-10.884 15.945-26.94 25.816-44.606 27.272-11.906.981-23.538-1.846-33.66-7.955z" fill="#095ddb"/><path d="m375.304 675.363 43.236-79.82" fill="#fff"/><path d="M375.302 677.864a2.5 2.5 0 0 1-2.196-3.691l43.236-79.82a2.5 2.5 0 1 1 4.397 2.381l-43.236 79.82a2.5 2.5 0 0 1-2.2 1.31z" fill="#095ddb"/><path d="m374.214 674.1-52.252-57.71" fill="#fff"/><path d="M374.215 676.6c-.682 0-1.36-.277-1.854-.822l-52.252-57.71a2.5 2.5 0 0 1 3.706-3.356l52.252 57.71a2.5 2.5 0 0 1-1.852 4.178z" fill="#095ddb"/><path d="m321.962 616.39 96.578-20.847" fill="#fff"/><path d="M321.959 618.89a2.5 2.5 0 0 1-.525-4.944l96.578-20.847a2.5 2.5 0 0 1 1.055 4.887l-96.578 20.847a2.47 2.47 0 0 1-.53.057z" fill="#095ddb"/><path d="m421.831 595.543 43.296-26.84" fill="#fff"/><path d="M421.833 598.043a2.5 2.5 0 0 1-1.319-4.625l43.297-26.84a2.5 2.5 0 0 1 2.634 4.25l-43.297 26.84a2.49 2.49 0 0 1-1.315.375z" fill="#095ddb"/><path d="m481.476 614.092-5.908-42.18" fill="#fff"/><path d="M481.473 616.592a2.5 2.5 0 0 1-2.473-2.153l-5.909-42.18a2.5 2.5 0 0 1 4.952-.694l5.909 42.18a2.5 2.5 0 0 1-2.479 2.847z" fill="#095ddb"/><path d="M328.793 675.74c.684-27.225 25.025-47.307 50.483-43.852 25.522 3.409 43.176 24.007 42.538 44.95-.783 20.972-19.839 39.261-45.371 42.105-25.421 2.833-48.361-15.948-47.65-43.203z" fill="#fff"/><path d="M371.407 721.724c-11.544 0-22.605-4.195-30.969-11.877-9.468-8.696-14.49-20.831-14.143-34.169.341-13.599 6.497-26.473 16.888-35.322 10.228-8.709 23.507-12.697 36.431-10.945 25.77 3.443 45.407 24.309 44.7 47.504-.838 22.455-21.299 41.584-47.593 44.513a47.982 47.982 0 0 1-5.313.296zm2.189-87.718c-9.769 0-19.437 3.57-27.172 10.157-9.31 7.928-14.825 19.461-15.131 31.64v.002c-.31 11.873 4.139 22.654 12.527 30.359 8.577 7.877 20.367 11.63 32.347 10.295 23.853-2.657 42.404-19.73 43.15-39.713.629-20.648-17.104-39.271-40.371-42.379a39.86 39.86 0 0 0-5.35-.361zm-40.183-25.056c4.237 5.367 2.068 13.773-5.462 17.972-7.528 4.206-16.146 1.783-18.673-4.555-2.548-6.351.486-13.607 6.297-16.858 5.83-3.217 13.594-1.951 17.838 3.441z" fill="#095ddb"/><path d="M320.153 631.524c-1.836 0-3.644-.299-5.351-.905-3.699-1.313-6.485-3.915-7.846-7.327-2.955-7.366.224-15.951 7.398-19.966 7.085-3.909 16.116-2.155 21.021 4.074 2.317 2.936 3.173 6.658 2.41 10.482-.916 4.589-4.057 8.68-8.617 11.223-2.866 1.601-5.98 2.419-9.016 2.419zm2.316-25.286c-1.938 0-3.9.474-5.686 1.459-4.892 2.738-7.175 8.776-5.184 13.739.822 2.061 2.552 3.647 4.875 4.471 3.175 1.126 6.913.701 10.258-1.168 3.281-1.829 5.522-4.685 6.151-7.835.472-2.364-.037-4.638-1.432-6.405l-.002-.003c-2.179-2.768-5.543-4.258-8.98-4.258zm158.654-40.507c-1.572 6.479-8.665 10.932-14.882 9.392-6.238-1.526-8.753-8.051-6.603-14.115 2.175-6.084 7.751-9.721 13.416-8.6 5.636 1.132 9.668 6.839 8.069 13.323z" fill="#095ddb"/><path d="M468.758 577.924c-1.059 0-2.106-.123-3.118-.374-3.356-.821-6.093-2.914-7.701-5.892-1.814-3.359-2.053-7.545-.656-11.485 2.599-7.272 9.435-11.566 16.257-10.218 3.436.69 6.487 2.795 8.379 5.776 1.971 3.106 2.551 6.868 1.633 10.594-.925 3.808-3.488 7.223-7.032 9.371-2.415 1.464-5.125 2.228-7.762 2.228zm2.276-23.214c-3.839 0-7.49 2.8-9.042 7.14-.923 2.604-.798 5.315.345 7.433.941 1.743 2.496 2.923 4.497 3.412 2.254.559 4.837.094 7.093-1.274 2.416-1.465 4.153-3.753 4.766-6.279l.002-.009c.589-2.39.234-4.778-1-6.722-1.165-1.835-3.036-3.13-5.134-3.551a7.851 7.851 0 0 0-1.528-.15zm27.998 75.04c-2.407 9.932-13.287 16.761-22.815 14.399-9.563-2.34-13.416-12.343-10.123-21.64 3.33-9.329 11.882-14.902 20.569-13.186 8.643 1.734 14.818 10.485 12.369 20.427z" fill="#095ddb"/><path d="M480.078 647.111a18.53 18.53 0 0 1-4.463-.535c-4.777-1.169-8.669-4.143-10.953-8.372-2.602-4.819-2.939-10.844-.925-16.529 3.755-10.518 13.599-16.742 23.41-14.804 4.906.984 9.268 3.992 11.974 8.255 2.828 4.454 3.658 9.859 2.339 15.219-1.333 5.494-5.042 10.43-10.175 13.542-3.495 2.119-7.409 3.224-11.208 3.224zm3.488-35.591c-6.448 0-12.549 4.635-15.117 11.831-1.541 4.35-1.318 8.9.614 12.478 1.627 3.012 4.306 5.05 7.749 5.893 3.792.94 8.121.17 11.882-2.11 4.006-2.428 6.888-6.237 7.909-10.45l.002-.009c.991-4.025.386-8.055-1.704-11.347-1.979-3.117-5.161-5.315-8.729-6.031a13.413 13.413 0 0 0-2.606-.255z" fill="#095ddb"/><path d="M425.719 578.451c10.169 4.727 14.874 18.186 9.726 27.677-5.125 9.542-16.832 10.661-25.688 4.875-8.901-5.85-12.553-15.611-8.708-24.11 3.855-8.432 14.508-13.231 24.67-8.442z" fill="#fff"/><path d="M421.167 617.039c-4.347 0-8.813-1.353-12.776-3.942-9.959-6.546-13.912-17.743-9.619-27.233 2.21-4.833 6.408-8.674 11.523-10.546 5.312-1.944 11.166-1.635 16.484.87 5.595 2.603 9.987 7.672 12.05 13.91 1.963 5.937 1.531 12.214-1.185 17.224-2.509 4.672-6.5 7.824-11.537 9.108-1.604.409-3.263.61-4.939.61zm-3.744-37.981c-1.841 0-3.666.317-5.41.955-3.869 1.416-7.036 4.302-8.69 7.92-3.304 7.304-.168 15.739 7.808 20.981 4.317 2.82 9.327 3.795 13.74 2.669 3.644-.929 6.539-3.224 8.373-6.638 2.066-3.81 2.37-8.647.838-13.279-1.632-4.935-5.064-8.926-9.416-10.948l-.012-.006c-2.336-1.101-4.797-1.655-7.231-1.655z" fill="#095ddb"/><path d="M577.789 758.257c-20.131 0-40.818-4.48-61.345-13.563-9.596-4.245-13.934-15.466-9.688-25.063 4.247-9.597 15.466-13.934 25.063-9.688 15.547 6.878 30.977 10.287 45.884 10.288 25.147.002 48.825-9.692 69.186-28.781 27.152-25.458 46.101-65.403 53.354-112.479 8.129-52.758.936-110.807-19.763-168.249-4.254-11.805 1.038-24.905 11.281-28.387 10.482-3.563 20.768 5.432 24.387 15.281 23.271 63.331 30.758 128.044 21.651 187.142-8.542 55.436-31.598 103.171-64.92 134.413-27.575 25.854-60.507 39.083-95.091 39.085z" fill="#fff"/><path d="M577.789 760.757c-20.716 0-41.696-4.635-62.356-13.776a21.359 21.359 0 0 1-11.355-11.909 21.36 21.36 0 0 1 .392-16.451c4.798-10.841 17.52-15.759 28.36-10.962 15.108 6.684 30.206 10.073 44.872 10.074h.007c24.528 0 47.856-9.718 67.468-28.105 26.746-25.077 45.425-64.511 52.594-111.036 7.944-51.556 1.151-109.311-19.644-167.021-2.454-6.81-2.119-14.335.918-20.645 2.564-5.326 6.794-9.217 11.91-10.956 11.734-3.989 23.43 5.607 27.538 16.786 23.416 63.728 30.946 128.87 21.776 188.385-8.627 55.986-31.953 104.233-65.681 135.856-27.741 26.01-61.214 39.759-96.801 39.761zm-53.633-49.937c-6.335 0-12.389 3.667-15.113 9.823-1.783 4.031-1.89 8.514-.301 12.625s4.684 7.356 8.714 9.139c20.018 8.857 40.319 13.348 60.333 13.349 34.293-.002 66.583-13.283 93.381-38.409 32.916-30.862 55.702-78.085 64.159-132.97 9.042-58.68 1.598-122.963-21.527-185.898-3.298-8.976-12.355-16.795-21.235-13.777-3.836 1.304-7.037 4.284-9.014 8.391-2.459 5.109-2.722 11.226-.72 16.781 21.077 58.494 27.952 117.098 19.882 169.477-7.339 47.625-26.557 88.084-54.115 113.923-20.555 19.271-45.068 29.457-70.888 29.458h-.008c-15.368 0-31.146-3.534-46.895-10.502a16.41 16.41 0 0 0-6.651-1.41z" fill="#095ddb"/><path d="M549.102 672.366c-2.436 8.564-.174 27.464-5.148 44.714l-20.118 26.697c-11.891 6.679-23.391 8.636-37.003 7.907-40.372-2.155-93.042-32.364-89.84-56.616.124-.957.443-1.637.896-2.111-7.99-10.182-13.71-21.673-2.234-27.675 3.264-1.709 6.908-1.153 10.574.515-4.53-8.103-2.337-17.513 7.66-19.768 18.612-4.182 34.061 26.322 73.511 24.452.021 0 .041.02.062.031 9.42-.926 24.954-.782 30.094-8.628 4.87-7.454 6.074-20.169 19.356-25.42 10.265-4.057 27.119-1.905 29.888 5.786 3.542 9.853-13.601 15.752-17.698 30.115z" fill="#fff"/><g fill="#095ddb"><path d="M439.499 725.298c-.28 0-.565-.047-.843-.147-19.366-6.94-34.847-19.102-47.328-37.179-9.574-13.868-2.613-21.108-.252-22.997 5.402-4.32 13.577-4.054 17.853.582a2.5 2.5 0 1 1-3.676 3.389c-2.474-2.683-7.743-2.715-11.054-.066-4.085 3.267-3.631 9.19 1.243 16.251 11.865 17.187 26.552 28.738 44.9 35.313a2.5 2.5 0 0 1-.844 4.854z"/><path d="M454.832 702.315c-.244 0-.492-.036-.737-.112-21.356-6.578-40.302-19.655-49.444-34.128-3.301-5.226-4.086-11.209-2.098-16.006 1.782-4.3 5.612-7.31 10.785-8.476 9.183-2.068 17.189 3.033 26.46 8.94 12.381 7.889 27.791 17.707 52.823 15.031a2.5 2.5 0 1 1 .532 4.972c-26.774 2.864-43.002-7.477-56.041-15.786-8.672-5.526-15.522-9.89-22.674-8.279-3.594.81-6.107 2.716-7.265 5.512-1.367 3.297-.729 7.567 1.706 11.421 8.533 13.508 26.423 25.778 46.689 32.02a2.5 2.5 0 0 1-.735 4.89z"/><path d="M491.921 754.325c-1.699 0-3.438-.048-5.221-.144-27.059-1.443-61.238-15.727-79.503-33.226-9.375-9-13.76-18.064-12.682-26.215a7.21 7.21 0 0 1 .378-1.576c-6.613-8.748-9.135-15.472-7.929-21.078.817-3.798 3.351-6.832 7.533-9.018 2.253-1.18 4.763-1.568 7.501-1.167-.885-3.561-.66-7.099.713-10.176 1.834-4.113 5.609-7.001 10.629-8.133 9.116-2.049 17.237 3.098 26.64 9.056 11.501 7.288 25.816 16.363 47.303 15.338.1-.005.201-.004.303.005a220.26 220.26 0 0 1 4.232-.341c8.419-.626 19.949-1.483 23.649-7.133 1.242-1.901 2.272-4.292 3.363-6.824 2.954-6.855 6.63-15.386 17.165-19.551 7.778-3.073 18.704-2.917 25.981.371 3.669 1.658 6.151 4.042 7.178 6.894 2.425 6.747-2.388 11.69-7.484 16.924-3.952 4.058-8.431 8.658-10.162 14.724-.922 3.238-1.125 8.416-1.361 14.411-.347 8.854-.78 19.873-3.789 30.31a2.5 2.5 0 1 1-4.804-1.386c2.841-9.854 3.26-20.537 3.597-29.121.248-6.316.462-11.771 1.548-15.586 2.077-7.28 7.024-12.36 11.388-16.842 4.937-5.069 7.666-8.114 6.362-11.743-.704-1.956-2.854-3.271-4.532-4.03-5.961-2.693-15.662-2.815-22.084-.277-8.603 3.402-11.556 10.253-14.411 16.88-1.179 2.736-2.292 5.319-3.771 7.583-5.053 7.716-17.479 8.64-27.462 9.382-1.591.118-3.102.23-4.48.366a2.446 2.446 0 0 1-.541-.006c-22.868.982-37.83-8.499-49.864-16.125-8.812-5.584-15.773-9.995-22.865-8.402-3.49.787-5.967 2.617-7.16 5.292-1.365 3.06-.941 7.104 1.135 10.816a2.5 2.5 0 0 1-3.218 3.495c-3.412-1.553-6.153-1.741-8.379-.575-2.844 1.487-4.467 3.331-4.963 5.639-.905 4.206 1.789 10.355 8.005 18.277a2.5 2.5 0 0 1-.16 3.271c-.026.027-.156.186-.223.702-1.089 8.231 5.481 16.483 11.184 21.958 17.499 16.765 50.306 30.454 76.309 31.842 13.993.75 24.566-1.455 35.254-7.372a2.5 2.5 0 0 1 3.735 3.306l-.134.175c-.206.27-.465.494-.761.66-10.177 5.719-20.571 8.368-33.14 8.368zm198.296-310.474a2.5 2.5 0 0 1-2.487-2.276c-.984-10.938 7.276-18.655 15.898-21.451 10.247-3.321 20.092-.057 25.081 8.318a2.5 2.5 0 1 1-4.295 2.559c-4.555-7.646-13.213-8.076-19.244-6.121-6.733 2.183-13.197 8.053-12.46 16.246a2.5 2.5 0 0 1-2.493 2.724zm10.392 49.891h-.026a2.5 2.5 0 0 1-2.475-2.525c.111-10.982 9.099-17.837 17.957-19.759 10.527-2.283 19.997 1.946 24.127 10.776a2.5 2.5 0 0 1-4.529 2.118c-3.771-8.062-12.343-9.353-18.538-8.008-6.917 1.501-13.934 6.698-14.017 14.924a2.5 2.5 0 0 1-2.499 2.475zm2.704 55.316a2.5 2.5 0 0 1-2.496-2.685c.812-10.937 10.318-17.211 19.379-18.578 10.798-1.629 20.076 3.192 23.638 12.281a2.5 2.5 0 0 1-4.655 1.824c-3.254-8.301-11.857-10.123-18.237-9.161-7.097 1.071-14.531 5.816-15.138 14.004a2.5 2.5 0 0 1-2.49 2.315zm30.439 59.106a2.5 2.5 0 0 1-2.487-2.278c-.847-9.49-8.328-14.608-15.365-15.47-6.38-.782-14.346 1.702-17.568 11.019a2.5 2.5 0 0 1-4.726-1.634c3.458-9.997 12.446-15.628 22.902-14.347 10.687 1.31 18.803 9.53 19.737 19.988a2.5 2.5 0 0 1-2.493 2.722zM715.015 662.8a2.5 2.5 0 0 1-2.476-2.869c1.405-9.423-4.665-16.155-11.303-18.646-6.018-2.258-14.344-1.714-19.664 6.586a2.5 2.5 0 0 1-4.21-2.698c5.708-8.906 15.769-12.27 25.63-8.569 10.081 3.783 16.04 13.678 14.492 24.064a2.5 2.5 0 0 1-2.47 2.132zm-38.372 55.229a2.5 2.5 0 0 1-2.065-3.905c5.32-7.832 2.804-16.458-2.049-21.532-4.453-4.656-12.22-7.779-20.664-2.577a2.5 2.5 0 0 1-2.623-4.257c9.048-5.573 19.607-4.248 26.9 3.378 6.244 6.528 9.46 17.656 2.571 27.798a2.497 2.497 0 0 1-2.07 1.095zm-55.842 35.479a2.5 2.5 0 0 1-1.442-4.544c7.742-5.45 8.433-14.409 5.684-20.869-2.523-5.928-8.688-11.592-18.424-9.705a2.5 2.5 0 0 1-.951-4.909c10.432-2.022 19.844 2.947 23.976 12.656 3.537 8.312 2.619 19.858-7.406 26.916a2.49 2.49 0 0 1-1.437.456zm-64.458 5.515a2.5 2.5 0 0 1-.2-4.992c9.437-.768 14.578-8.136 15.488-15.099.834-6.389-1.604-14.397-10.951-17.712a2.501 2.501 0 0 1 1.671-4.713c10.016 3.552 15.604 12.609 14.238 23.072-1.17 8.958-7.82 18.441-20.04 19.435a2.377 2.377 0 0 1-.205.009z"/></g><path d="M387.494 338.195c.415.817.797 1.645 1.147 2.483 7.194 17.252.283 29.678-7.822 35.077a23.082 23.082 0 0 1-7.089 3.162c-13.037 3.343-25.629-5.127-31.333-21.074" fill="#a3c2f2"/><path d="M368.038 382.149c-11.958 0-22.744-8.781-27.995-23.463a2.5 2.5 0 0 1 4.708-1.684c5.245 14.664 16.641 22.498 28.358 19.494a20.575 20.575 0 0 0 6.324-2.821c7.314-4.873 13.51-16.186 6.901-32.035a33.696 33.696 0 0 0-1.069-2.313 2.5 2.5 0 0 1 4.458-2.264c.441.869.853 1.761 1.225 2.652 7.779 18.655.152 32.194-8.743 38.12a25.6 25.6 0 0 1-7.855 3.503 25.351 25.351 0 0 1-6.312.809z" fill="#095ddb"/><path d="M353.343 353.988c-3.059-9.751-1.516-22.242-5.326-31.595 11.938 4.092 25.887 12.645 29.986 24.623 7.602 21.59-17.682 29.227-24.66 6.972z" fill="#095ddb"/><path d="M368.019 369.895c-.982 0-1.978-.103-2.977-.314-6.418-1.356-11.552-6.767-14.085-14.845-1.497-4.773-1.947-10.095-2.382-15.243-.499-5.905-.97-11.482-2.874-16.157a2.5 2.5 0 0 1 3.126-3.308c12.368 4.24 27.149 13.343 31.541 26.179 2.647 7.518 1.851 14.484-2.19 19.09a13.405 13.405 0 0 1-10.158 4.598zm-16.1-43.317c.924 4.029 1.285 8.311 1.639 12.494.431 5.102.838 9.921 2.17 14.168 1.977 6.304 5.748 10.478 10.348 11.449 3.16.668 6.28-.338 8.344-2.69 2.816-3.209 3.262-8.367 1.225-14.153-3.292-9.621-13.705-16.96-23.725-21.269z" fill="#095ddb"/><path d="M377.376 347.879a2.5 2.5 0 0 1-2.308-1.538c-2.428-5.823-7.715-11.167-16.163-16.339-5.157-3.157-7.992-4.057-10.27-4.779a58.21 58.21 0 0 1-1.438-.47c-1.423-.491-4.918-1.328-8.084-1.823a2.5 2.5 0 0 1 .772-4.94c3.484.545 7.283 1.463 8.944 2.037.426.147.861.285 1.318.43 2.536.805 5.692 1.806 11.368 5.281 9.377 5.74 15.319 11.85 18.167 18.678a2.501 2.501 0 0 1-2.306 3.463z" fill="#095ddb"/><path d="M370.7 367.089c-5.201 1.335-9.997-1.207-13.405-5.516.59-7.228 8.599-17.472 18.377-19.521 5.766 9.315 5.199 22.437-4.972 25.037z" fill="#fff"/><path d="M367.902 369.948c-4.604 0-9.05-2.377-12.568-6.824a2.502 2.502 0 0 1-.531-1.754c.686-8.405 9.537-19.498 20.356-21.764a2.497 2.497 0 0 1 2.638 1.131c4.091 6.609 5.186 14.721 2.79 20.665-1.688 4.187-4.892 6.991-9.268 8.109a13.713 13.713 0 0 1-3.418.437zm-7.987-9.141c2.006 2.253 5.552 5.044 10.164 3.86h.003c2.811-.719 4.785-2.447 5.869-5.135 1.614-4.004.993-9.666-1.503-14.563-7.294 2.414-13.482 9.999-14.532 15.838z" fill="#095ddb"/><path d="M418.928 375.147a47.347 47.347 0 0 1-4.219 8.33c-6.584 10.347-14.393 18.753-23.656 25.739q-.011.011-.022.011c-.618.466-1.236.922-1.855 1.367 3.026 4.892 2.679 14.729-2.581 21.693 4.404 3.297 3.905 13.894-3.536 22.626-8.58 10.066-22.268 15.478-30.566 18.255-22.864 7.614-44.232 4.414-57.4-7.018l-13.407-28.928c-.206-4.501.185-9.328 1.247-14.458v-.022c.911-3.905 2.571-7.549 4.686-10.922 8.688-13.916 24.947-23.396 26.802-28.732 3.449-9.957-15.011-25.099-2.3-35.793 1.779-1.497 4.675-2.343 8.059-2.397 8.374-.163 19.686 4.436 24.339 15.51 5.044 12.029 4.187 25.294-.184 36.976 14.914-2.592 34.134-12.647 47.291-33.364 7.321-11.53 19.285-14.621 25.966-10.055a7.714 7.714 0 0 1 2.267 2.43c2.581 4.295 1.888 11.53-.933 18.753z" fill="#fff"/><path d="M418.928 375.147c2.104-6.974 2.115-13.417.933-18.753 2.581 4.295 1.888 11.53-.933 18.753z" fill="#fff"/><path d="M328.167 479.798c-14.989 0-28.292-4.887-37.337-14.25a2.5 2.5 0 0 1 3.596-3.474c12.534 12.975 34.479 16.315 57.272 8.717 13.48-4.494 23.39-10.382 29.455-17.502 4.802-5.637 6.08-11.519 5.675-15.143-.202-1.805-.816-3.176-1.731-3.86a2.498 2.498 0 0 1-.497-3.508c4.575-6.06 4.964-14.807 2.453-18.867a2.499 2.499 0 0 1 .666-3.344c10.002-7.199 18.142-15.844 24.885-26.43 6.752-10.601 8.424-22.803 3.577-26.112-2.191-1.496-5.182-1.953-8.423-1.287-5.319 1.094-10.429 4.964-14.021 10.618-11.614 18.283-29.92 31.177-48.969 34.491a2.498 2.498 0 0 1-2.77-3.339c4.546-12.156 4.624-24.632.219-35.131-3.96-9.44-12.64-12.455-16.188-13.313-5.833-1.411-10.462-.397-12.294 1.143-5.755 4.835-3.854 10.394-.039 18.974 2.359 5.306 4.798 10.792 3.087 15.728-1.021 2.944-4.574 6.068-9.492 10.391-8.032 7.061-19.023 16.723-21.897 28.891a1.36 1.36 0 0 1-.018.092c-.989 4.793-1.392 9.45-1.193 13.827a2.5 2.5 0 0 1-4.995.227c-.216-4.759.212-9.795 1.271-14.97.009-.061.02-.122.034-.18 3.196-13.797 14.929-24.111 23.495-31.642 3.677-3.233 7.48-6.576 8.069-8.274 1.065-3.07-.876-7.436-2.931-12.059-3.412-7.676-7.659-17.229 1.392-24.833 3.54-2.975 9.934-3.808 16.686-2.175 9.06 2.192 16.212 8.111 19.622 16.239 4.379 10.437 4.802 22.557 1.278 34.548 9.396-2.487 27.812-9.908 41.411-31.317 4.314-6.791 10.595-11.469 17.234-12.834 4.58-.941 8.93-.212 12.25 2.055 8.198 5.597 5.329 21.137-2.18 32.927-6.705 10.527-14.728 19.232-24.483 26.554 2.109 5.42 1.716 13.798-2.535 20.646 1.067 1.463 1.746 3.349 1.994 5.568.665 5.951-1.955 13.208-6.837 18.94-6.664 7.824-17.323 14.217-31.68 19.003-8.588 2.863-17.093 4.263-25.113 4.263z" fill="#095ddb"/><path d="M361.652 450.2a2.5 2.5 0 0 1-.694-4.902c10.895-3.154 19.757-8.768 24.313-15.402 3.21-4.674 4.665-13.362 1.808-17.994a2.5 2.5 0 1 1 4.255-2.625c4.009 6.498 2.232 17.371-1.942 23.449-7.119 10.366-20 15.335-27.044 17.374a2.506 2.506 0 0 1-.696.099z" fill="#095ddb"/><path d="M354.764 430.414a2.5 2.5 0 0 1-.834-4.857c27.691-9.794 45.786-23.184 58.674-43.419 6.752-10.601 8.423-22.803 3.577-26.112a2.5 2.5 0 1 1 2.819-4.13c8.198 5.598 5.329 21.137-2.18 32.927-13.528 21.239-32.41 35.256-61.224 45.447a2.511 2.511 0 0 1-.834.144zm-25.922-24.828a2.5 2.5 0 0 1-1.135-4.729c5.272-2.68 9.614-4.279 16.021-5.896a2.5 2.5 0 1 1 1.224 4.848c-6.011 1.517-10.071 3.009-14.979 5.505-.363.185-.75.272-1.131.272zM189.851 99.791a2.48 2.48 0 0 1-1.76-.73l-.01-.01a2.501 2.501 0 0 1 3.536-3.536c.976.976.981 2.564.005 3.541a2.498 2.498 0 0 1-1.77.735z" fill="#095ddb"/><path d="m723.294 303.499-71.002 13.834c-2.929.571-5.611-1.772-5.439-4.752l.445-7.686a4.573 4.573 0 0 1 3.897-4.259l68.975-10.178a4.572 4.572 0 0 1 4.923 2.852l1.582 4.029a4.571 4.571 0 0 1-3.381 6.158zm-8.061-21.808-61.741 8.27c-2.847.381-5.337-1.927-5.171-4.794l.278-4.815a4.573 4.573 0 0 1 4.095-4.285l60.373-6.234a4.571 4.571 0 0 1 4.725 2.877l1.091 2.778c1.084 2.761-.708 5.808-3.649 6.202zm-7.942-19.445-52.691 3.642a4.572 4.572 0 0 1-4.88-4.824l.281-4.883a4.571 4.571 0 0 1 4.421-4.307l51.29-1.608a4.571 4.571 0 0 1 4.398 2.897l1.12 2.849c1.13 2.875-.857 6.021-3.94 6.234z" fill="#fff"/><path d="M133.749 482.274c-13.28-11.01-19.79-26.57-17.97-43.27.79-7.2 3.04-14.33 6.67-21.32l24.07 24.07c-12.773 2.672-25.595 23.043-12.77 40.52z" fill="#095ddb"/><path d="M133.749 484.774a2.496 2.496 0 0 1-1.595-.575c-13.88-11.508-20.755-28.079-18.86-45.465.816-7.441 3.15-14.91 6.937-22.201a2.502 2.502 0 0 1 3.986-.616l24.07 24.07a2.501 2.501 0 0 1-1.256 4.215c-5.942 1.243-11.766 6.862-14.494 13.983-1.712 4.469-3.569 13.35 3.227 22.611a2.499 2.499 0 0 1-2.016 3.979zM123.16 421.93c-2.617 5.744-4.261 11.565-4.896 17.346-1.246 11.43 1.532 22.175 7.919 31.239-.663-4.646-.112-9.428 1.685-14.12 2.705-7.062 8.064-12.937 14.046-15.712l-18.754-18.754zm37.505 77.128c-.432 0-.869-.112-1.267-.347-11.58-6.826-13.985-17.852-12.374-25.895 1.833-9.154 8.662-16.078 16.993-17.229a2.5 2.5 0 0 1 .685 4.954c-6.225.86-11.359 6.188-12.775 13.258-1.649 8.236 2.093 15.939 10.01 20.605a2.5 2.5 0 0 1-1.272 4.654zm125.886-24.015c-9.121 0-16.988-4.961-20.551-12.968-3.592-8.074-1.867-17.443 4.503-24.449a2.5 2.5 0 0 1 3.699 3.364c-5.092 5.6-6.451 12.723-3.634 19.052 2.758 6.199 8.921 10.052 16.07 10 1.366.006 2.505 1.108 2.511 2.489s-1.109 2.505-2.489 2.511h-.109zm-65.442 22.127c-.073 0-.147-.003-.222-.01-9.07-.797-16.481-6.538-19.342-14.981-2.906-8.578-.342-17.902 6.691-24.336a2.5 2.5 0 0 1 3.375 3.689c-5.631 5.151-7.624 12.27-5.33 19.042 2.214 6.537 7.979 10.984 15.044 11.604a2.5 2.5 0 0 1-.217 4.99zm226.443-102.396a2.5 2.5 0 0 1-2.496-2.687c5.55-73.87 21.477-169.112 42.606-254.772a2.499 2.499 0 1 1 4.854 1.198c-21.066 85.406-36.944 180.339-42.474 253.949a2.5 2.5 0 0 1-2.49 2.313z" fill="#095ddb"/><path d="M475.161 206.696a2.5 2.5 0 0 1-2.451-3.002 1739.969 1739.969 0 0 1 12.448-56.081 2.5 2.5 0 1 1 4.862 1.166 1735.29 1735.29 0 0 0-12.412 55.919 2.501 2.501 0 0 1-2.447 1.999z" fill="#095ddb"/><path d="M286.218 296.146c-5.59 3.68-11.32 5.22-16.86 5.01-11.38-.41-21.98-8.14-29.03-19.71-8.84-14.48-12.12-34.97-4.38-54.63l-.01-.01c5.78-14.66 17.06-24.79 30.49-25.38 11.78-1.18 26.03 7.83 33.85 24.41 1.67 3.53 3.04 7.41 4.03 11.61.91 3.8 1.5 7.86 1.72 12.15 1.08 21.69-8.12 38.9-19.81 46.55zm139.56-42.44c-.33 10.4-3.08 20.7-8.6 29.25v.01c-5.75 9.36-14.54 16.98-25.48 19.2-3.88.82-7.67.9-11.29.35-1.13-.17-2.24-.41-3.33-.7-4.6-1.21-8.88-3.45-12.72-6.5-17.65-13.94-26.23-44.78-13.66-71.28v-.01c9.29-19.57 26.36-27.36 40.8-24.36 13.18 2.57 23.05 12.45 28.73 25.19.1.2.19.42.28.62 0 0 .01 0 .01.01 2.97 6.84 4.72 14.48 5.18 22.23l.03.5c.09 1.83.1 3.66.05 5.49z" fill="#fff"/><path d="M286.218 296.146c-5.59 3.68-11.32 5.22-16.86 5.01-14.64-4.36-24.37-22.59-22.24-43.18 2.34-22.58 18.02-39.45 35.03-37.7 9.52.98 17.44 7.59 22.16 17.17.91 3.8 1.5 7.86 1.72 12.15 1.08 21.69-8.12 38.9-19.81 46.55zm139.56-42.44c-.33 10.4-3.08 20.7-8.6 29.25v.01c-5.75 9.36-14.54 16.98-25.48 19.2-3.88.82-7.67.9-11.29.35-13.08-6.58-21.9-23.79-20.93-43.51 1.22-24.67 17.27-43.92 35.86-43.01 14.76.72 26.68 13.95 30.36 31.72l.03.5c.09 1.83.1 3.66.05 5.49z" fill="#095ddb"/><ellipse cx="274.853" cy="291.779" fill="#fff" rx="7.149" ry="9.578"/><ellipse cx="389.614" cy="292.859" fill="#fff" rx="10.665" ry="7.834" transform="matrix(.04909382 -.99879417 .99879417 .04909382 77.979 667.625)"/><path d="M269.969 303.666c-6.035 0-12.045-1.842-17.564-5.508-5.375-3.569-10.157-8.755-14.212-15.412-10.217-16.735-11.955-37.881-4.662-56.614.023-.082.05-.163.081-.243 5.797-14.707 15.753-24.081 28.035-26.396 11.33-2.136 23.406 2.314 32.304 11.902 8.62 9.297 13.795 22.818 14.574 38.073 1.099 22.133-7.68 41.26-22.912 49.921-5.021 2.855-10.342 4.277-15.644 4.277zm-31.617-76.167a2.529 2.529 0 0 1-.078.232c-6.827 17.341-5.261 36.934 4.188 52.411 3.672 6.03 7.948 10.689 12.709 13.85 8.739 5.805 18.933 6.188 27.97 1.05 10.644-6.053 21.591-21.138 20.39-45.323-.719-14.082-5.423-26.487-13.246-34.924-7.837-8.444-17.937-12.231-27.712-10.389-10.472 1.974-19.067 10.171-24.221 23.093zm146.716 77.898c-6.888 0-13.601-2.118-19.732-6.272a40.25 40.25 0 0 1-2.533-1.853c-17.711-13.988-27.932-45.547-14.422-74.185.018-.046.038-.09.059-.135 6.862-14.449 18.42-23.918 31.71-25.98 11.831-1.835 23.741 2.599 32.676 12.167 3.911 4.18 7.243 9.288 9.904 15.181.029.055.056.111.081.169 8.422 19.385 7.033 43.347-3.447 59.688a2.2 2.2 0 0 1-.056.096c-6.631 10.799-16.193 18.02-26.927 20.334-2.447.528-4.892.79-7.314.79zm-32.055-80.418a2.067 2.067 0 0 1-.056.128c-12.531 26.419-3.256 55.447 12.951 68.247a35.595 35.595 0 0 0 2.229 1.63c7.133 4.833 15.151 6.469 23.191 4.736 9.346-2.015 17.737-8.383 23.643-17.939.033-.062.068-.123.107-.182 9.665-14.961 10.948-37.036 3.206-54.981a2.176 2.176 0 0 1-.057-.119c-2.444-5.445-5.491-10.137-9.055-13.946-7.903-8.463-17.938-12.24-28.257-10.64-11.593 1.798-21.756 10.202-27.903 23.065zm233.213 293.6c-1.086 0-2.662-.415-4.241-2.287l-42.492-50.353c-3.229-3.826-5.547-10.72-5.279-15.695 6.891-127.789 25.95-251.573 56.645-367.914l2.417.638-2.417-.638c1.748-6.625 8.579-10.608 15.226-8.881l21.917 5.696c2.824.734 4.96 3.588 4.863 6.498-2.747 82.457-11.871 247.74-42.12 428.248-.571 3.407-2.612 4.317-3.463 4.55a4.017 4.017 0 0 1-1.057.138zm16.713-440.533c-3.321 0-6.363 2.219-7.245 5.56-30.609 116.012-49.614 239.458-56.487 366.908-.198 3.672 1.721 9.373 4.108 12.201l42.492 50.353.006.007.002-.01c30.201-180.223 39.311-345.255 42.054-427.589.02-.589-.547-1.343-1.123-1.492l-21.917-5.696a7.502 7.502 0 0 0-1.889-.242zm-50.944 123.518c-3.858 10.422-11.705 18.029-20.684 21.092-5.589 1.919-11.606 2.068-17.373.04-15.086-5.271-25.11-23.767-18.686-40.703 6.623-16.876 25.637-25.885 40.235-20.704.378.129.756.278 1.124.428 14.002 5.708 21.222 23.34 15.384 39.848z" fill="#095ddb"/><path d="M522.486 226.658c-3.182 0-6.337-.535-9.379-1.604-8.195-2.863-15.146-9.331-19.066-17.744-3.934-8.443-4.335-17.749-1.127-26.204 6.901-17.584 27.18-27.933 43.409-22.174.395.135.817.301 1.228.467 15.426 6.289 22.962 25.577 16.801 42.998l-.012.034c-3.983 10.758-12.29 19.203-22.222 22.59-3.176 1.091-6.417 1.636-9.631 1.636zm4.206-64.349c-11.894 0-24.272 8.258-29.114 20.597-2.714 7.156-2.365 15.083.995 22.292 3.354 7.197 9.254 12.714 16.188 15.137 5.046 1.775 10.486 1.759 15.737-.044 8.523-2.907 15.677-10.225 19.146-19.579 5.273-14.937-.995-31.389-13.977-36.682-.321-.13-.655-.263-.989-.377-2.572-.913-5.266-1.344-7.985-1.344z" fill="#095ddb"/><path d="M543.698 199.784c-3.92 9.95-11.53 17.07-20.07 19.78-1.11.36-2.24.64-3.38.84-4.311.76-8.75.4-13-1.27-14.07-5.48-23.01-23.58-16.49-39.74 5.83-13.99 20.32-21.99 32.95-20.31 1.9.25 3.76.72 5.54 1.43.35.14.7.29 1.05.44 13.03 5.88 19.35 23.08 13.4 38.83z" fill="#fff"/><path d="M515.918 223.289c-3.277 0-6.485-.611-9.584-1.828-7.573-2.949-13.928-9.287-17.428-17.386-3.602-8.335-3.768-17.433-.466-25.616 5.989-14.373 21.29-23.756 35.598-21.853 2.137.281 4.203.815 6.136 1.586.371.149.74.306 1.109.464 14.447 6.519 21.046 25.356 14.754 42.011l-.013.033c-4.054 10.29-12.144 18.233-21.64 21.247a27.42 27.42 0 0 1-3.704.919c-1.6.282-3.189.423-4.762.423zm4.339-61.932c-11.19 0-22.492 7.721-27.192 18.998-2.787 6.908-2.638 14.637.43 21.736 2.974 6.88 8.317 12.243 14.66 14.713 3.724 1.463 7.644 1.845 11.659 1.138a22.623 22.623 0 0 0 3.043-.756c8.086-2.566 14.999-9.406 18.509-18.302 5.365-14.228-.058-30.218-12.096-35.651-.288-.123-.62-.265-.951-.398a20.566 20.566 0 0 0-4.937-1.272 23.677 23.677 0 0 0-3.125-.205zm16.704 110.359c-2.176 5.878-6.602 10.169-11.667 11.897-3.152 1.083-6.546 1.167-9.799.022-8.509-2.973-14.163-13.406-10.54-22.958 3.736-9.519 14.46-14.6 22.694-11.678.213.073.426.157.634.241 7.898 3.22 11.97 13.165 8.677 22.476z" fill="#095ddb"/><path d="M520.317 286.962a16.99 16.99 0 0 1-5.652-.968c-4.896-1.71-9.046-5.566-11.38-10.576-2.344-5.031-2.581-10.581-.667-15.627 4.102-10.453 16.185-16.585 25.868-13.147.23.078.487.179.737.28 9.234 3.765 13.761 15.26 10.095 25.626l-.012.034c-2.359 6.372-7.295 11.379-13.204 13.395a17.766 17.766 0 0 1-5.783.982zm2.343-36.301c-6.273 0-12.811 4.387-15.378 10.93-1.421 3.748-1.235 7.917.535 11.715 1.768 3.795 4.867 6.699 8.502 7.969 2.615.92 5.436.91 8.163-.027 4.5-1.535 8.283-5.415 10.128-10.383 2.778-7.883-.481-16.542-7.27-19.31-.161-.065-.33-.133-.499-.191a12.466 12.466 0 0 0-4.18-.704z" fill="#095ddb"/><path d="M532.281 270.712c-2.211 5.612-6.503 9.628-11.32 11.157-.626.203-1.264.361-1.906.474-2.431.429-4.935.226-7.333-.716-7.936-3.091-12.979-13.3-9.301-22.415 3.288-7.891 11.461-12.403 18.585-11.456a12.97 12.97 0 0 1 3.125.807c.197.079.395.164.592.248 7.349 3.317 10.914 13.018 7.558 21.902z" fill="#fff"/><path d="M516.648 285.054c-2.001 0-3.982-.37-5.841-1.101-4.538-1.768-8.343-5.555-10.432-10.389-2.148-4.971-2.245-10.4-.273-15.289 3.566-8.558 12.69-14.135 21.233-12.999a15.528 15.528 0 0 1 4.373 1.235c8.682 3.917 12.66 15.161 8.911 25.083l-.013.033c-2.406 6.106-7.224 10.825-12.89 12.623-.717.233-1.472.42-2.231.553-.943.166-1.893.249-2.838.249zm2.399-34.927c-5.883 0-11.835 4.084-14.319 10.046-1.457 3.613-1.377 7.674.237 11.408 1.562 3.615 4.356 6.427 7.664 7.716 1.914.752 3.927.948 5.991.584a11.529 11.529 0 0 0 1.569-.39c4.256-1.351 7.897-4.966 9.759-9.679 2.823-7.496.02-15.892-6.254-18.723-.136-.058-.314-.135-.493-.206a10.565 10.565 0 0 0-2.522-.649 12.379 12.379 0 0 0-1.632-.107zm11.529 82.022c-2.176 5.878-6.602 10.169-11.667 11.897-3.152 1.083-6.546 1.167-9.799.022-8.509-2.973-14.163-13.406-10.54-22.958 3.736-9.519 14.46-14.6 22.694-11.678.213.073.426.157.634.241 7.898 3.22 11.97 13.165 8.677 22.476z" fill="#095ddb"/><path d="M513.933 347.394a16.99 16.99 0 0 1-5.652-.968c-4.896-1.71-9.046-5.566-11.38-10.576-2.344-5.031-2.581-10.581-.667-15.627 4.102-10.453 16.185-16.584 25.868-13.147.231.079.488.179.738.281 9.233 3.764 13.759 15.259 10.094 25.625l-.012.034c-2.359 6.372-7.295 11.379-13.204 13.395a17.766 17.766 0 0 1-5.783.982zm2.343-36.301c-6.273 0-12.81 4.387-15.378 10.93-1.421 3.748-1.235 7.918.535 11.716 1.768 3.794 4.867 6.699 8.502 7.969 2.615.92 5.436.91 8.163-.027 4.5-1.535 8.283-5.415 10.128-10.383 2.778-7.883-.481-16.542-7.27-19.31a9.579 9.579 0 0 0-.5-.191 12.456 12.456 0 0 0-4.179-.704z" fill="#095ddb"/><path d="M525.896 331.145c-2.211 5.612-6.503 9.628-11.32 11.157-.626.203-1.264.361-1.906.474-2.431.429-4.935.226-7.333-.716-7.936-3.091-12.979-13.3-9.301-22.415 3.288-7.891 11.461-12.403 18.585-11.456a12.97 12.97 0 0 1 3.125.807c.197.079.395.164.592.248 7.349 3.317 10.914 13.018 7.558 21.902z" fill="#fff"/><path d="M510.264 345.486c-2.001 0-3.982-.37-5.841-1.101-4.538-1.768-8.343-5.555-10.432-10.389-2.148-4.971-2.245-10.4-.273-15.289 3.566-8.558 12.69-14.134 21.233-12.999a15.47 15.47 0 0 1 3.721.963c.22.088.436.181.652.273 8.681 3.917 12.659 15.16 8.911 25.083l-.013.033c-2.406 6.106-7.224 10.825-12.89 12.623-.717.233-1.472.42-2.231.553-.943.166-1.893.249-2.838.249zm2.399-34.927c-5.883 0-11.835 4.084-14.319 10.046-1.457 3.613-1.377 7.674.237 11.408 1.562 3.615 4.356 6.427 7.664 7.716 1.914.752 3.927.948 5.991.584a11.529 11.529 0 0 0 1.569-.39c4.256-1.351 7.897-4.966 9.759-9.679 2.823-7.496.02-15.892-6.254-18.723-.137-.058-.316-.135-.494-.207a10.497 10.497 0 0 0-2.521-.648 12.379 12.379 0 0 0-1.632-.107z" fill="#095ddb"/></svg></g></svg>