<svg xmlns="http://www.w3.org/2000/svg" viewBox="0 0 900 900" width="900" height="900"><g transform="translate(21.0 61.0) rotate(0.0 428.0 400.5) scale(1.0015374067201288 1.0003759215385557)"><svg width="854.686" height="800.699" viewBox="0 0 854.686 800.699"><path d="M445.057 208.834a428.762 428.762 0 0 0-17.88 30.53c-23.77-5.669-47.682-10.13-71.087-13.43a429.121 429.121 0 0 1 18.626-31.307 3.617 3.617 0 0 1 3.575-1.596c21.717 3.351 43.779 7.698 65.689 13.08 1.199.295 1.744 1.684 1.077 2.723z" fill="#a3c2f2"/><path d="M427.178 241.865c-.192 0-.387-.022-.58-.068-23.111-5.512-46.95-10.016-70.856-13.386a2.5 2.5 0 0 1-1.853-3.661 433.711 433.711 0 0 1 18.734-31.49 6.12 6.12 0 0 1 6.049-2.699c22.274 3.437 44.448 7.852 65.905 13.123a4.301 4.301 0 0 1 2.962 2.578 4.318 4.318 0 0 1-.377 3.924 428.592 428.592 0 0 0-17.776 30.353 2.5 2.5 0 0 1-2.207 1.327zm-67.173-17.895a775.186 775.186 0 0 1 65.875 12.517 433.764 433.764 0 0 1 16.547-28.182c-21.017-5.133-42.718-9.44-64.518-12.803a1.117 1.117 0 0 0-1.101.492 430.107 430.107 0 0 0-16.804 27.976z" fill="#095ddb"/><path d="M460.592 222.914a428.99 428.99 0 0 0-18.41 30.214c-23.668-6.083-47.498-10.961-70.842-14.669a429.421 429.421 0 0 1 19.169-30.978 3.615 3.615 0 0 1 3.602-1.533c21.655 3.729 43.638 8.461 65.451 14.225 1.194.315 1.715 1.714 1.029 2.741z" fill="#fff"/><path d="M442.182 255.628a2.51 2.51 0 0 1-.623-.079c-23.011-5.915-46.768-10.834-70.611-14.621a2.5 2.5 0 0 1-1.788-3.692 433.332 433.332 0 0 1 19.281-31.158 6.122 6.122 0 0 1 6.095-2.593c22.211 3.825 44.304 8.627 65.665 14.271a4.298 4.298 0 0 1 2.47 6.545 428.403 428.403 0 0 0-18.303 30.038 2.5 2.5 0 0 1-2.186 1.289zm-66.894-19.065a775.514 775.514 0 0 1 65.647 13.665 434.23 434.23 0 0 1 17.036-27.889c-20.925-5.499-42.547-10.184-64.284-13.927a1.114 1.114 0 0 0-1.109.473 430.495 430.495 0 0 0-17.29 27.678z" fill="#095ddb"/><path d="m150.087 311.639-6.386 28.259c-1.076 4.762-13.449 6.02-27.621 2.818-14.186-3.206-24.802-9.659-23.725-14.421l6.386-28.259c-1.076 4.762 9.539 11.215 23.725 14.421 14.172 3.203 26.545 1.944 27.621-2.818z" fill="#fff"/><path d="M130.643 346.968c-4.701 0-9.976-.652-15.114-1.813-7.118-1.608-13.629-4.069-18.333-6.929-7.011-4.262-7.828-8.052-7.279-10.481l6.386-28.259a2.5 2.5 0 1 1 4.877 1.103c-.159.703 1.058 2.711 5 5.107 4.255 2.586 10.235 4.832 16.839 6.325 15.33 3.464 24.214.918 24.631-.93a2.5 2.5 0 1 1 4.877 1.103v.005l-6.386 28.254c-1.037 4.589-7.416 6.519-15.496 6.519zm-30.945-39.829-4.905 21.707c-.159.703 1.058 2.711 5 5.106 4.255 2.586 10.235 4.832 16.839 6.325 15.33 3.464 24.214.918 24.631-.93l4.916-21.754c-6.014 1.801-15.348 1.317-24.263-.698-7.118-1.608-13.629-4.069-18.333-6.929-1.597-.97-2.872-1.916-3.883-2.827z" fill="#095ddb"/><path d="M160.571 296.177c-1.337 5.917-16.71 7.48-34.319 3.501-17.626-3.983-30.816-12.001-29.479-17.917 1.341-5.934 16.697-7.501 34.323-3.518 17.609 3.979 30.816 12.001 29.475 17.935z" fill="#fff"/><path d="M144.436 304.38c-5.67 0-12.138-.773-18.734-2.264-17.063-3.856-33.317-12.275-31.366-20.907 1.953-8.643 20.249-9.261 37.312-5.406 17.063 3.856 33.315 12.281 31.362 20.924-.638 2.824-3.453 6.4-13.242 7.397a52.674 52.674 0 0 1-5.332.255zm-31.626-25.86c-8.075 0-13.122 1.69-13.597 3.792-.744 3.293 9.881 10.926 27.591 14.928 8.261 1.867 16.236 2.546 22.457 1.912 5.71-.582 8.571-2.19 8.872-3.525.764-3.379-9.604-10.881-27.587-14.945-6.799-1.536-12.827-2.161-17.736-2.161z" fill="#095ddb"/><path d="m160.571 296.177-7.934 35.112c-1.337 5.917-16.71 7.48-34.319 3.501-17.626-3.983-30.816-12.001-29.479-17.917l7.934-35.112c-1.337 5.917 11.853 13.934 29.479 17.917 17.609 3.979 32.982 2.416 34.319-3.501z" fill="#fff"/><path d="M136.577 339.493c-5.824 0-12.402-.818-18.81-2.265-17.063-3.856-33.317-12.275-31.366-20.907l7.932-35.1.003-.012a2.5 2.5 0 0 1 4.877 1.102v.003c-.737 3.294 9.886 10.924 27.591 14.925 8.261 1.867 16.237 2.546 22.457 1.912 5.707-.582 8.567-2.188 8.872-3.523v-.003a2.5 2.5 0 1 1 4.877 1.103l-7.934 35.112c-1.218 5.391-8.813 7.654-18.499 7.654zm-38.969-50.082-6.33 28.011c-.744 3.293 9.881 10.926 27.591 14.928 17.711 4.002 30.585 1.679 31.329-1.613l6.329-28.009c-1.765.623-3.981 1.114-6.76 1.397-6.744.687-15.291-.026-24.066-2.009-11.516-2.602-22.662-7.283-28.094-12.705z" fill="#095ddb"/><path d="M230.576 169.232c-3.498 15.461-11.67 28.679-22.693 38.455-24.233 21.484-41.461 45.546-49.606 76.905l-2.698 10.406-.01.05c-.01.03-.02.07-.039.1-.529 1.813-3.924 2.783-9.013 2.893-5.129.12-11.994-.649-19.374-2.315s-13.903-3.928-18.487-6.231c-4.644-2.333-7.308-4.717-6.879-6.6l2.212-11.483c6.055-31.396.894-60.166-11.73-89.562-6.419-14.933-7.93-32.164-2.971-49.233 10.154-34.851 45.142-57.188 81.026-51.66 42.299 6.49 69.531 47.25 60.263 88.275z" fill="#fff"/><path d="M145.44 300.554c-5.344 0-11.982-.838-18.849-2.389-7.32-1.653-14.088-3.938-19.058-6.435-6.239-3.134-8.919-6.205-8.195-9.388l2.195-11.402c5.553-28.794 1.875-56.789-11.573-88.103-6.875-15.994-7.967-34.077-3.075-50.917 10.547-36.199 46.576-59.169 83.807-53.434 21.011 3.224 39.145 14.627 51.058 32.108 11.758 17.253 15.863 38.827 11.263 59.189-3.511 15.516-11.627 29.269-23.472 39.774-25.875 22.939-41.396 46.981-48.845 75.663l-2.686 10.36a3.296 3.296 0 0 1-.145.471c-.984 2.878-4.683 4.348-11.295 4.49-.369.009-.747.013-1.13.013zm-41.192-17.279c.226.5 1.536 1.981 5.529 3.987 4.618 2.32 10.98 4.46 17.915 6.026 6.972 1.574 13.635 2.375 18.765 2.255 4.519-.098 6.327-.888 6.718-1.237l2.681-10.341c7.711-29.688 23.716-54.52 50.368-78.148 11.056-9.806 18.634-22.648 21.913-37.135 4.296-19.014.462-39.16-10.518-55.271-11.124-16.323-28.059-26.97-47.686-29.982-34.761-5.355-68.4 16.092-78.247 49.889-4.635 15.956-3.644 32.398 2.868 47.547 13.862 32.277 17.639 61.2 11.888 91.023l-2.194 11.388zm-.016.082-.002.013z" fill="#095ddb"/><path d="M187.686 158.575c-.07.581-.155 1.16-.244 1.755a40.338 40.338 0 0 1-1.871 7.334c-1.839 5.099-4.591 9.534-7.93 12.955-2.633 2.732-5.644 4.829-8.844 6.112a19.872 19.872 0 0 1-4.888 1.318 18.578 18.578 0 0 1-4.946-.02l-.249-.03a18.294 18.294 0 0 1-3.883-1.037c-2.958-1.163-5.591-3.076-7.765-5.576-4.163-4.74-6.746-11.564-7.075-19.228-.115-2.69.03-5.45.486-8.274a38.1 38.1 0 0 1 1.112-4.933 38.573 38.573 0 0 1 1.784-4.921c4.496-10.285 12.851-17.364 21.795-17.977a17.769 17.769 0 0 1 3.793.1c7.585 1.043 13.541 6.688 16.65 14.601.403.991.736 2.007 1.03 3.069 1.122 3.989 1.568 8.419 1.201 13.037a29.708 29.708 0 0 1-.155 1.716z" fill="#fff"/><path d="M161.494 190.703a20.87 20.87 0 0 1-2.877-.199l-.199-.023c-1.658-.259-3.143-.656-4.503-1.194-3.313-1.302-6.252-3.409-8.733-6.26-4.605-5.244-7.338-12.62-7.687-20.762a43.543 43.543 0 0 1 .515-8.78 40.324 40.324 0 0 1 1.185-5.252 40.912 40.912 0 0 1 1.892-5.214c4.953-11.33 14.117-18.79 23.911-19.461a20.228 20.228 0 0 1 4.292.116c8.265 1.136 15.058 7.027 18.648 16.165.406.996.773 2.09 1.113 3.316 1.235 4.391 1.668 9.072 1.283 13.902a31.644 31.644 0 0 1-.165 1.814 63.81 63.81 0 0 1-.253 1.826 43.017 43.017 0 0 1-1.991 7.814c-1.928 5.345-4.864 10.135-8.493 13.853-2.911 3.02-6.18 5.274-9.703 6.686a22.376 22.376 0 0 1-5.486 1.475 21.58 21.58 0 0 1-2.748.177zm5.1-62.208c-.409 0-.817.016-1.222.049-7.961.546-15.5 6.862-19.707 16.487a36.181 36.181 0 0 0-1.672 4.609 35.401 35.401 0 0 0-1.046 4.637 38.579 38.579 0 0 0-.457 7.774c.301 7.006 2.593 13.287 6.456 17.685 1.955 2.247 4.241 3.892 6.802 4.899 1.023.404 2.151.704 3.356.894l.158.017c1.45.203 2.89.208 4.33.023a17.415 17.415 0 0 0 4.261-1.152c2.839-1.138 5.596-3.049 7.99-5.533 3.144-3.222 5.691-7.391 7.378-12.068a37.909 37.909 0 0 0 1.753-6.878c.081-.546.164-1.102.23-1.659.062-.516.111-1.049.142-1.569.341-4.287-.034-8.379-1.112-12.209a25.218 25.218 0 0 0-.939-2.803c-2.921-7.433-8.265-12.185-14.675-13.066a15.46 15.46 0 0 0-2.027-.134z" fill="#095ddb"/><ellipse cx="172.638" cy="163.382" fill="#095ddb" rx="21.139" ry="12.209" transform="matrix(.36002937 -.93294097 .93294097 .36002937 -41.943 265.621)"/><path d="M167.693 186.093a9.842 9.842 0 0 1-3.566-.657c-3.911-1.509-6.537-5.355-7.395-10.83-.781-4.982-.005-10.849 2.183-16.52s5.555-10.538 9.48-13.704c4.313-3.479 8.842-4.564 12.753-3.055 7.695 2.97 9.984 14.983 5.212 27.35-4.059 10.517-11.731 17.415-18.667 17.415zm9.863-40.426c-2.375 0-4.696 1.539-6.021 2.608-3.252 2.623-6.078 6.747-7.955 11.612s-2.555 9.817-1.908 13.946c.33 2.106 1.322 5.807 4.255 6.939 4.374 1.688 11.754-3.493 15.769-13.894 4.014-10.402 2.027-19.197-2.347-20.885a4.944 4.944 0 0 0-1.792-.326z" fill="#095ddb"/><ellipse cx="176.138" cy="171.821" fill="#fff" rx="6.644" ry="4.881" transform="matrix(.45017637 -.89293966 .89293966 .45017637 -56.581 251.753)"/><path d="M231.836 179.579a45.872 45.872 0 0 1-1.662 3.777c-2.453 5.028-5.613 9.232-9.03 12.294-4.227 3.755-8.864 5.783-13.155 5.511-1.267-.09-2.498-.354-3.684-.874-.048-.015-.123-.055-.171-.069a11.294 11.294 0 0 1-2.644-1.628c-1.938-1.594-3.449-3.831-4.49-6.51-2.016-5.119-2.365-11.892-.856-19.065a49.799 49.799 0 0 1 2.264-7.578 47.412 47.412 0 0 1 1.948-4.361 46.293 46.293 0 0 1 2.462-4.268c5.707-8.748 13.551-13.837 20.336-12.86.957.129 1.893.385 2.79.765 5.399 2.281 8.532 8.538 9.027 16.417.063.98.081 1.994.061 3.015l-.005.015c-.099 4.833-1.136 10.15-3.192 15.419z" fill="#fff"/><path d="M208.741 203.685c-.305 0-.607-.009-.908-.029-1.656-.118-3.123-.467-4.503-1.068a1.822 1.822 0 0 1-.091-.038l-.096-.039a13.76 13.76 0 0 1-3.233-1.987c-2.253-1.854-4.014-4.389-5.238-7.54-2.218-5.632-2.565-12.91-.973-20.485a52.374 52.374 0 0 1 2.379-7.964 50.026 50.026 0 0 1 2.056-4.601 48.468 48.468 0 0 1 2.588-4.487c6.349-9.733 15.081-15.085 22.79-13.974 1.152.155 2.306.471 3.407.937 6.124 2.587 9.969 9.353 10.549 18.562.065 1.006.087 2.091.066 3.22 0 .052-.004.103-.008.154-.126 5.248-1.286 10.826-3.359 16.14a48.19 48.19 0 0 1-1.752 3.983c-2.514 5.154-5.837 9.67-9.599 13.042-4.511 4.007-9.47 6.173-14.073 6.173zm-3.537-5.731c.036.014.071.028.106.044.856.375 1.79.594 2.857.67 3.494.221 7.52-1.514 11.318-4.887 3.278-2.938 6.2-6.924 8.443-11.521a43.734 43.734 0 0 0 1.58-3.59c1.879-4.819 2.924-9.854 3.021-14.561 0-.047.003-.094.007-.14a33.463 33.463 0 0 0-.059-2.677c-.456-7.251-3.192-12.453-7.506-14.276a8.408 8.408 0 0 0-2.15-.59c-5.7-.821-12.719 3.792-17.909 11.748a43.674 43.674 0 0 0-2.326 4.032 44.906 44.906 0 0 0-1.849 4.141 47.168 47.168 0 0 0-2.147 7.186c-1.393 6.624-1.131 12.887.737 17.63.914 2.353 2.175 4.198 3.752 5.495a8.79 8.79 0 0 0 2.031 1.257l.093.038z" fill="#095ddb"/><ellipse cx="220.165" cy="178.516" fill="#095ddb" rx="19.914" ry="10.142" transform="matrix(.43658197 -.89966448 .89966448 .43658197 -36.559 298.655)"/><path d="M213.926 199.483a8.042 8.042 0 0 1-3.547-.801c-3.326-1.614-5.213-5.371-5.314-10.579-.089-4.607 1.234-9.971 3.726-15.105 5.579-11.496 14.675-17.793 21.159-14.646 6.484 3.146 7.167 14.188 1.588 25.685-2.491 5.134-5.886 9.493-9.56 12.274-2.774 2.1-5.534 3.174-8.051 3.174zm12.48-36.924c-3.55 0-9.304 4.764-13.117 12.621-2.153 4.438-3.299 8.993-3.225 12.826.061 3.185.972 5.437 2.497 6.177s3.858.062 6.398-1.861c3.057-2.314 5.927-6.033 8.08-10.47 4.351-8.967 3.973-17.428.727-19.003a3.09 3.09 0 0 0-1.361-.29z" fill="#095ddb"/><ellipse cx="221.397" cy="187.112" fill="#fff" rx="6.399" ry="4.021" transform="matrix(.52831979 -.84904546 .84904546 .52831979 -54.438 276.231)"/><path d="M148.761 200.776c-3.378 2-6.56 3.389-9.505 4.236-14.745 4.317-23.767-4.42-24.596-14.355a18.108 18.108 0 0 1 1.123-7.967c3.686-.642 7.479-1.934 10.958-3.775 1.365 9.232 11.223 19.054 22.02 21.86z" fill="#095ddb"/><path d="M131.83 208.659c-5.189 0-8.977-1.683-11.498-3.412-4.694-3.221-7.669-8.462-8.163-14.38a20.74 20.74 0 0 1 1.277-9.061 2.498 2.498 0 0 1 1.909-1.576c3.472-.605 7.006-1.823 10.218-3.522a2.5 2.5 0 0 1 3.642 1.844c1.213 8.209 10.453 17.279 20.176 19.806a2.501 2.501 0 0 1 .645 4.57c-3.456 2.046-6.849 3.556-10.087 4.488-3.015.883-5.716 1.243-8.118 1.243zm-14.134-23.794a15.66 15.66 0 0 0-.544 5.582c.369 4.42 2.559 8.31 6.01 10.677 4.008 2.75 9.331 3.265 15.393 1.49a32.829 32.829 0 0 0 3.996-1.449c-8.245-3.875-15.09-11.101-17.522-18.659a40.071 40.071 0 0 1-7.332 2.358z" fill="#095ddb"/><path d="M126.743 181.417c-.911 0-1.789-.5-2.23-1.368a2.732 2.732 0 0 1-.282-1.167 2.5 2.5 0 0 1 4.949-.515 2.501 2.501 0 0 1-2.438 3.05zm27.938 22.648c-2.129 0-4.32-.29-6.548-.868a2.5 2.5 0 1 1 1.256-4.839c2.783.723 5.462.893 7.963.506a2.5 2.5 0 0 1 .765 4.941 22.444 22.444 0 0 1-3.436.261zm-44.134-18.4c-1.176 0-2.319-.072-3.424-.215a2.5 2.5 0 0 1 .643-4.959c2.31.299 4.863.211 7.589-.263a2.5 2.5 0 1 1 .856 4.926c-1.955.34-3.85.51-5.665.51z" fill="#095ddb"/><path d="M126.743 181.417a2.5 2.5 0 0 1-1.172-4.71 31.705 31.705 0 0 0 4.849-3.147 2.5 2.5 0 0 1 3.105 3.919 36.732 36.732 0 0 1-5.614 3.647 2.493 2.493 0 0 1-1.167.291z" fill="#095ddb"/><path d="M139.256 205.013c-14.745 4.317-23.767-4.42-24.596-14.355 5.703-1.274 12.761.704 14.075 8.003 2.03-4.569 10.261.591 10.52 6.352z" fill="#a3c2f2"/><path d="M131.828 208.658c-5.191 0-8.976-1.682-11.496-3.411-4.694-3.221-7.669-8.462-8.163-14.38a2.5 2.5 0 0 1 1.946-2.648c4.258-.951 8.704-.253 11.895 1.867a11.624 11.624 0 0 1 3.993 4.503c.837-.213 1.759-.238 2.728-.055 4.081.77 8.79 5.217 9.022 10.368a2.5 2.5 0 0 1-1.795 2.512c-3.02.884-5.726 1.245-8.13 1.245zm-14.298-15.856c.828 3.429 2.808 6.385 5.631 8.322 3.484 2.39 7.96 3.092 13.053 2.069-.926-1.848-2.852-3.453-4.41-3.747-.629-.119-.691.02-.784.23a2.502 2.502 0 0 1-2.584 1.467 2.498 2.498 0 0 1-2.161-2.039c-.385-2.141-1.406-3.774-3.032-4.855-1.532-1.018-3.566-1.519-5.713-1.448zm734.051 165.593c-2.21 7.32-4.54 14.61-7 21.81-22.49 66.03-68.06 137.21-114.1 191.25-44.16 51.86-88.75 87.93-113.77 88.55-75.16-79.17-164.39-123.84-240.8-146.67-32.42-9.68-62.53-15.43-88.28-18.21-.93-.21-1.81-.59-2.6-1.11 59.27-19.45 113.21-68.46 157.53-131.15 18.93-26.75 36.09-56 51.17-86.51 4.54-9.19 8.9-18.49 13.05-27.88 5.03-11.3 9.74-22.75 14.17-34.23 46.29 5.67 104.43 18.28 163.91 45.66 8.32-5.41 16.88-10.53 25.65-15.32 2.28-1.25 4.58-2.48 6.89-3.69 45.79 24.07 91.49 57.44 132.42 103.57.41 1.33.61 3.94.97 6.24.34 2.32.61 4.99.79 7.69z" fill="#095ddb"/><path d="M616.715 662.506a2.5 2.5 0 0 1-1.813-.779c-126.394-133.13-282.654-159.274-327.535-164.115a2.616 2.616 0 0 1-.292-.049 10.491 10.491 0 0 1-3.423-1.463 2.501 2.501 0 0 1 .595-4.464c83.383-27.361 163.661-116.358 220.252-244.172 4.827-10.864 9.577-22.343 14.118-34.12a2.5 2.5 0 0 1 2.637-1.582c58.268 7.137 113.235 22.376 163.402 45.299a395.944 395.944 0 0 1 31.593-18.379 2.502 2.502 0 0 1 2.318.004c50.658 26.623 95.446 61.653 133.121 104.117.236.266.412.578.517.917.336 1.08.519 2.538.732 4.227.099.784.201 1.597.322 2.374.347 2.353.628 5.079.816 7.905.02.3-.014.602-.101.89-2.38 7.876-4.68 15.039-7.03 21.9-20.302 59.613-61.034 128.409-111.75 188.744-47.562 56.583-92.937 92.12-118.418 92.745h-.061zM294.318 493.384c48.813 6.032 102.211 21.243 151.142 43.111 65.851 29.431 123.806 70.122 172.28 120.962 23.996-1.612 68.359-37.061 113.626-90.913 50.332-59.879 90.734-128.089 110.846-187.143 2.288-6.68 4.527-13.648 6.843-21.293-.179-2.533-.433-4.957-.74-7.036a85.31 85.31 0 0 1-.34-2.499c-.135-1.07-.273-2.169-.429-2.902-36.902-41.484-80.682-75.778-130.149-101.948a391.38 391.38 0 0 0-31.174 18.279 2.499 2.499 0 0 1-2.408.175c-49.481-22.772-103.717-37.979-161.24-45.212a743.89 743.89 0 0 1-13.507 32.527c-26.278 59.352-59.317 112.814-95.542 154.606-37.893 43.715-77.958 73.714-119.209 89.287z" fill="#095ddb"/><path d="M787.894 359.89c-8.561 22.911-18.289 45.235-29.064 66.729l-21.409-17.516c9.611-19.165 18.166-38.398 25.992-58.666.641-1.659 2.125-1.938 3.279-.584a110.247 110.247 0 0 1 5.421 6.941c.343.478 1.087.835 1.675.804 4.451-.233 9.286-.317 12.254-.346 1.565-.016 2.401 1.172 1.853 2.639z" fill="#fff"/><path d="M758.83 429.119a2.499 2.499 0 0 1-1.583-.565l-21.409-17.516a2.501 2.501 0 0 1-.652-3.056c9.734-19.409 18.204-38.527 25.895-58.446.634-1.642 1.864-2.732 3.375-2.989 1.5-.255 3.01.358 4.139 1.684a112.713 112.713 0 0 1 5.368 6.854c4.316-.219 8.919-.302 12.053-.334 1.592-.015 2.966.651 3.792 1.829s.982 2.703.428 4.184c-8.553 22.89-18.367 45.423-29.171 66.974a2.502 2.502 0 0 1-2.235 1.38zm-18.279-20.686 17.439 14.268a680.597 680.597 0 0 0 27.283-62.939c-3.149.036-7.401.125-11.355.332-1.45.076-2.991-.664-3.836-1.843a108.82 108.82 0 0 0-4.674-6.043c-7.422 19.145-15.566 37.565-24.857 56.224z" fill="#095ddb"/><path d="M802.254 423.425c-19.93 47.31-45.22 91.52-74.7 130.45-29.8 39.36-63.89 73.3-101.03 99.58l-206.32-175.84 135.06-156c8.14 1 16.55 2.2 25.19 3.63 40.54 6.71 86.09 18.42 132.13 38.51.02.02.05.02.07.04 29.05 12.66 58.29 28.69 86.58 48.88 3.4 2.43 4.65 6.9 3.02 10.75z" fill="#095ddb"/><path d="M626.524 655.955a2.5 2.5 0 0 1-1.622-.597l-206.32-175.84a2.498 2.498 0 0 1-.268-3.539l135.06-156a2.497 2.497 0 0 1 2.195-.845 614.735 614.735 0 0 1 25.293 3.645c47.111 7.798 91.765 20.813 132.722 38.685.063.027.125.058.185.09 30.944 13.495 60.188 30.01 86.917 49.086 4.383 3.132 5.974 8.79 3.87 13.76-20.115 47.751-45.353 91.822-75.009 130.984-30.553 40.355-64.729 74.037-101.579 100.112-.434.307-.94.459-1.444.459zM423.743 477.346l202.919 172.942c35.826-25.62 69.094-58.557 98.898-97.923 29.405-38.831 54.433-82.54 74.389-129.911l.002-.004c1.185-2.798.292-5.981-2.171-7.741-26.479-18.898-55.456-35.257-86.125-48.622a2.483 2.483 0 0 1-.187-.091c-40.546-17.68-84.764-30.562-131.422-38.285a610.048 610.048 0 0 0-23.765-3.451L423.744 477.346z" fill="#095ddb"/><path d="M796.544 409.195c-18.75 47.79-42.94 92.61-71.45 132.26-30.28 42.11-65.44 78.37-104.1 106.13-1.21.86-2.41 1.73-3.62 2.57-1.04.74-2.09 1.46-3.15 2.2-.81-.85-1.66-1.69-2.5-2.52-.76-.76-1.53-1.51-2.31-2.27-97.4-95.28-220.8-139.54-311.01-150.54-.32-.03-.66-.09-1.01-.12-4.21-.51-4.37-2.02-.36-3.46 65.72-23.83 123.65-83.89 170.43-158.02 5.15-8.16 10.13-16.47 14.94-24.93 24.44-.1 55.34 1.2 89.98 6.04 40.69 5.7 86.52 16.28 133.04 35.23.02.02.05.02.07.03 29.36 11.94 58.98 27.24 87.76 46.73 3.46 2.34 4.82 6.78 3.29 10.67z" fill="#fff"/><path d="M614.225 654.856c-.663 0-1.32-.263-1.807-.771a104.937 104.937 0 0 0-2.444-2.462c-.74-.739-1.476-1.459-2.213-2.179l-.089-.087C486.19 530.524 340.012 504.62 298.103 499.511c-.14-.016-.311-.038-.483-.061-.159-.021-.321-.043-.484-.06-1.301-.156-5.152-.617-5.486-3.578-.335-2.967 3.337-4.284 4.544-4.717 59.454-21.561 117.95-75.854 169.157-157.008a624.991 624.991 0 0 0 14.879-24.829 2.498 2.498 0 0 1 2.164-1.265c55.198-.225 138.856 6.787 223.972 41.455.054.022.107.046.16.072 31.286 12.725 60.939 28.516 88.131 46.934 4.389 2.972 6.163 8.716 4.218 13.659-39.738 101.288-102.394 186.346-176.425 239.504a459.451 459.451 0 0 1-3.639 2.59 311.26 311.26 0 0 1-2.355 1.644l-.804.558a2.49 2.49 0 0 1-1.426.448zM300.621 494.785c35.007 4.428 89.126 15.604 151.615 43.625 60.24 27.013 113.712 63.137 158.932 107.371l.088.086c.751.733 1.501 1.467 2.235 2.2.346.338.694.682 1.042 1.031a440.922 440.922 0 0 0 4.985-3.532c73.273-52.614 135.312-136.878 174.703-237.282v-.002c1.096-2.784.1-6.017-2.368-7.688-26.931-18.24-56.302-33.878-87.3-46.478a1.957 1.957 0 0 1-.162-.073c-83.585-34.025-165.817-41.153-220.532-41.054a629.493 629.493 0 0 1-14.28 23.767c-51.026 80.868-109.387 135.437-168.958 158.029z" fill="#095ddb"/><path d="M731.542 425.845c-2.08 34.82-13.55 69.27-29.87 101.74-23.938 47.674-56.265 79.357-92.66 118.87-34.968-36.872-77.242-70.287-126.24-97.91l-4-205.5c34.4 1.47 73.71 5.23 116.23 16.32 29.21 7.61 59.94 18.69 91.66 34.87.12.06.24.13.36.19 13.32 6.81 26.8 14.51 40.41 23.24 2.76 1.76 4.3 4.9 4.11 8.18z" fill="#095ddb"/><path d="M609.012 648.955a2.5 2.5 0 0 1-1.814-.78c-35.99-37.949-78.266-70.737-125.654-97.452a2.5 2.5 0 0 1-1.272-2.129l-4-205.5a2.503 2.503 0 0 1 2.606-2.547c27.662 1.182 69.861 4.168 116.754 16.398 31.774 8.278 62.783 20.075 92.165 35.062l.342.181a481.741 481.741 0 0 1 40.641 23.372c3.484 2.221 5.5 6.219 5.256 10.429v.005c-1.924 32.203-12.062 66.76-30.132 102.714-21.188 42.197-48.432 71.461-79.979 105.345-4.293 4.612-8.655 9.296-13.076 14.096a2.5 2.5 0 0 1-1.821.806h-.018zM485.244 547.071c46.515 26.376 88.124 58.567 123.738 95.73 3.809-4.124 7.573-8.167 11.285-12.155 31.285-33.603 58.304-62.624 79.171-104.182 17.763-35.342 27.725-69.243 29.609-100.763.139-2.404-.994-4.675-2.959-5.928a476.603 476.603 0 0 0-40.204-23.122l-.34-.18c-29.078-14.832-59.747-26.5-91.172-34.687-44.955-11.725-85.61-14.872-113.048-16.124z" fill="#095ddb"/><path d="M747.185 408.175c-13.004 19.576-27.013 38.321-41.846 56.02l-15.526-20.33c13.362-15.938 25.695-32.192 37.576-49.685 6.456-1.354 11.593-2.245 16.007-3.144 1.324 5.105 3.79 17.14 3.79 17.14z" fill="#095ddb"/><path d="M705.339 466.695h-.057a2.502 2.502 0 0 1-1.93-.983l-15.526-20.33a2.5 2.5 0 0 1 .071-3.123c13.522-16.129 25.763-32.315 37.423-49.484a2.499 2.499 0 0 1 1.555-1.042 530.802 530.802 0 0 1 10.243-2.023 458.4 458.4 0 0 0 5.777-1.123 2.5 2.5 0 0 1 2.919 1.822c1.325 5.109 3.718 16.772 3.819 17.266a2.495 2.495 0 0 1-.367 1.885c-12.996 19.564-27.131 38.487-42.013 56.242a2.501 2.501 0 0 1-1.916.894zm-12.327-22.76 12.412 16.253a629.598 629.598 0 0 0 39.101-52.529c-.524-2.525-1.92-9.194-2.987-13.706-1.113.216-2.272.437-3.485.668-2.718.517-5.768 1.097-9.166 1.8-11.214 16.455-22.969 32.024-35.875 47.514z" fill="#095ddb"/><path d="M724.092 409.025c-1 34.87-11.39 69.66-26.69 102.62-22.26 47.97-54.91 92.06-84.09 126.93-1.1 1.31-2.18 2.59-3.26 3.87-1.73 2.03-3.42 4.05-5.11 6.01-.76-.76-1.53-1.51-2.31-2.27-97.4-95.28-220.8-139.54-311.01-150.54-.32-.03-.66-.09-1.01-.12-4.19-.51-4.35-2.02-.37-3.46 59.8-21.7 112.9-73.43 157.57-138.48 4.39-6.39 8.68-12.9 12.87-19.54 36.32.11 78.59 2.22 124.87 12.77 29.44 6.7 60.5 16.82 92.7 32.01.12.05.25.12.37.18a476.565 476.565 0 0 1 41.11 21.97c2.81 1.68 4.45 4.77 4.36 8.05z" fill="#a3c2f2"/><path d="M604.942 650.955a2.495 2.495 0 0 1-1.767-.732c-.734-.734-1.478-1.458-2.23-2.192C479.415 529.146 333.23 503.237 291.32 498.126c-.112-.01-.296-.034-.484-.059-.142-.019-.288-.039-.436-.052-1.349-.163-5.183-.629-5.519-3.586-.336-2.961 3.313-4.281 4.512-4.715 54.712-19.854 107.32-66.131 156.36-137.544a598.63 598.63 0 0 0 12.816-19.459 2.47 2.47 0 0 1 2.122-1.166c32.617.099 76.348 1.646 125.418 12.833 32.014 7.286 63.363 18.109 93.174 32.169.128.056.263.123.393.189a482.06 482.06 0 0 1 41.341 22.094c3.554 2.125 5.69 6.058 5.575 10.264v.003c-.925 32.254-9.983 67.11-26.921 103.601-18.627 40.142-46.248 81.842-84.44 127.482-1.104 1.315-2.186 2.596-3.267 3.878-.669.785-1.324 1.559-1.975 2.329-1.057 1.249-2.104 2.487-3.152 3.701a2.502 2.502 0 0 1-1.801.866l-.093.002zM293.828 493.401c35.048 4.436 89.157 15.615 151.625 43.628 60.24 27.013 113.711 63.137 158.927 107.369l.404.394c.461-.542.922-1.088 1.386-1.636.655-.774 1.314-1.553 1.979-2.333a2279.83 2279.83 0 0 0 3.249-3.856c37.905-45.296 65.296-86.635 83.736-126.374 16.651-35.872 25.553-70.068 26.459-101.639.065-2.4-1.14-4.635-3.144-5.833a476.097 476.097 0 0 0-40.896-21.855l-.152-.076-.125-.062c-29.587-13.955-60.603-24.665-92.28-31.874-47.903-10.92-90.735-12.565-122.942-12.703a606.449 606.449 0 0 1-12.182 18.451c-48.83 71.108-101.315 117.655-156.045 138.401z" fill="#095ddb"/><path d="M685.091 425.943c2.492 1.714 3.829 4.678 3.425 7.676-7.001 51.824-39.771 124.728-70.062 172.357-1.126 1.77-4.182 11.04-5.102 12.89a651.83 651.83 0 0 1-6.78 13.32c-20.62-19.26-42.4-36.33-64.79-51.38l4.52-214.844c64.06 20.651 105.169 36.857 138.789 59.982z" fill="#095ddb"/><path d="M606.571 634.685c-.628 0-1.24-.237-1.706-.673-19.743-18.441-41.437-35.644-64.478-51.132a2.5 2.5 0 0 1-1.105-2.127l4.52-214.844a2.5 2.5 0 0 1 3.267-2.327c61.711 19.894 104.311 36.139 139.439 60.302 3.299 2.269 5.018 6.128 4.485 10.07-7.38 54.629-41.682 128.161-70.43 173.364-.512.805-2.006 4.884-2.899 7.32-1.01 2.758-1.651 4.491-2.074 5.341a656.97 656.97 0 0 1-6.804 13.366 2.501 2.501 0 0 1-2.215 1.34zm-62.262-55.191c21.908 14.807 42.597 31.151 61.558 48.627a642.482 642.482 0 0 0 5.243-10.365c.324-.651 1.139-2.876 1.858-4.84 1.554-4.242 2.628-7.11 3.375-8.283 28.464-44.757 62.415-117.469 69.694-171.35.279-2.063-.627-4.086-2.364-5.281-34.02-23.4-75.392-39.345-134.943-58.63z" fill="#095ddb"/><path d="M680.741 425.201c-8.945 46.886-39.183 129.264-67.549 190.153-.917 1.98-1.853 3.942-2.771 5.886a745.39 745.39 0 0 1-6.785 13.949c-97.408-95.284-220.805-139.542-311.013-150.539-.323-.036-.665-.09-1.008-.126-1.872-.234-2.178-2.808-.378-3.456 59.809-21.706 112.904-73.434 157.577-138.481 67.187 10.979 146.525 31.155 208.512 62.707.27.126.522.27.792.395 6.281 3.204 12.4 6.534 18.286 9.99a9.04 9.04 0 0 1 4.338 9.521z" fill="#fff"/><path d="M603.636 637.688a2.499 2.499 0 0 1-1.748-.713C480.407 518.143 334.229 492.239 292.32 487.13a26.914 26.914 0 0 1-.485-.061c-.159-.021-.321-.043-.482-.06-2.063-.257-3.566-1.777-3.789-3.787-.223-2.007.913-3.818 2.827-4.507 54.708-19.855 107.318-66.132 156.362-137.544a2.5 2.5 0 0 1 2.464-1.052c47.073 7.692 136.851 26.099 209.243 62.946.088.039.249.122.41.205.1.052.2.104.304.153 6.559 3.344 12.754 6.729 18.496 10.1a11.581 11.581 0 0 1 5.528 12.145c-9.616 50.407-41.356 134.11-67.738 190.741-.669 1.445-1.351 2.884-2.028 4.315l-.748 1.582a748.826 748.826 0 0 1-6.81 14 2.503 2.503 0 0 1-2.236 1.383zM294.824 482.403c35.007 4.427 89.132 15.602 151.629 43.626 59.151 26.525 111.774 61.831 156.469 104.978a755.454 755.454 0 0 0 5.241-10.839l.749-1.584c.671-1.418 1.347-2.845 2.013-4.282 30.119-64.651 59.077-146.147 67.361-189.571a6.576 6.576 0 0 0-3.143-6.894c-5.662-3.324-11.771-6.662-18.161-9.922a10.128 10.128 0 0 1-.408-.204c-.1-.052-.2-.104-.304-.152-71.073-36.175-159.108-54.455-206.297-62.249-48.579 70.369-100.756 116.471-155.149 137.092z" fill="#095ddb"/><path d="M565.181 687.105c0 10.35-1.85 19.41-5.01 27.25a61.716 61.716 0 0 1-7.7 13.77 62.21 62.21 0 0 1-7.45 8.34 65.078 65.078 0 0 1-11.03 8.29c-7.07 4.23-14.64 6.97-21.91 8.3-24.1 4.46-44.93-6.5-33.35-29.87.16-.32.32-.63.49-.95 5.18-9.86 10-17.14 13.54-24.02 5.32-10.36 7.69-19.8 3.92-35.73l-.15-.61-.03-.15c-.02-.07-.04-.15-.05-.22-1.67-6.92-1.6-13.17-.25-18.63 2.02-8.11 6.88-14.46 13.13-18.64.521-.35 1.05-.68 1.59-.99.25-.15.5-.3.76-.44a33.04 33.04 0 0 1 5.27-2.34c6.39-2.23 13.47-2.54 20.15-.62 24.44 7.01 28.08 44.43 28.08 67.26z" fill="#a3c2f2"/><path d="m525.842 632.395-.69 6.47-1.86 17.56c-2.12.59-4.23 1.13-6.34 1.63-3.74.89-7.47 1.63-11.17 2.24h-.04c-1.17.19-2.33.37-3.49.53-.05.01-.1.02-.16.02-1.89.26-3.77.49-5.64.66-5.99.59-11.89.79-17.68.57-5.43-.2-10.76-.77-15.94-1.72-13.61-2.48-26.27-7.56-37.41-15.48-10.44-7.44-19.55-17.38-26.85-30.06-15.52-27.27-18.09-62.9-12.12-88.92.03-.14.54-2.73.57-2.79 2.9-13.82 7.8-27.66 13.57-39.5 4.32-8.96 15.07-12.72 24.03-8.4s12.73 15.06 8.41 24.03c-20.31 41.46-17.84 85.89 5.72 109.64 3.03 3.06 6.42 5.78 10.15 8.1 7.14 4.45 15.56 7.45 25.22 8.65 9.84 1.22 20.97.58 33.36-2.3.8-.18 2.01-.21 3.44-.08 5.9.53 15.5 3.68 14.92 9.15z" fill="#a3c2f2"/><path d="M450.306 657.241c-8.887-2.838-17.243-6.934-24.884-12.366l23.48-27.9c7.14 4.45 11.385 7.171 21.045 8.371-15.269 7.506-20.175 23.54-19.641 31.895z" fill="#095ddb"/><path d="M450.306 659.742c-.255 0-.511-.039-.76-.118-9.268-2.959-17.872-7.235-25.573-12.71a2.5 2.5 0 0 1-.464-3.647l23.48-27.9a2.5 2.5 0 0 1 3.235-.512l.326.203c6.925 4.317 10.74 6.695 19.705 7.809a2.498 2.498 0 0 1 .795 4.724c-14.221 6.991-18.741 21.8-18.249 29.492a2.496 2.496 0 0 1-2.496 2.659zm-21.196-15.366c5.784 3.838 12.072 6.988 18.759 9.398.688-8.056 4.998-19.566 15.22-27.163-5.358-1.395-9.093-3.534-13.669-6.369z" fill="#095ddb"/><path d="M483.041 664.782c-32 .001-58.891-12.12-77.646-35.52-29.695-37.047-32.462-94.651-7.05-146.753 4.905-10.173 17.183-14.464 27.363-9.556 10.183 4.91 14.479 17.187 9.577 27.367-18.155 37.026-17.548 78.184 1.504 102.431a2.5 2.5 0 0 1-3.931 3.089c-20.212-25.724-21.043-69.008-2.069-107.705 3.699-7.681.45-16.964-7.251-20.677-7.697-3.711-16.98-.466-20.692 7.234-24.574 50.383-22.04 105.899 6.452 141.444 23.89 29.805 61.916 40.281 107.075 29.498a2.5 2.5 0 1 1 1.161 4.863c-12.011 2.868-23.552 4.285-34.491 4.286z" fill="#095ddb"/><path d="M501.71 756.476c-9.402 0-17.727-2.459-23.002-7.452-4.089-3.87-9.747-12.649-1.699-27.952 2.729-5.188 5.39-9.723 7.737-13.724 8.883-15.137 14.245-24.274 9.503-44.286a2.5 2.5 0 0 1 4.865-1.153c5.205 21.965-.866 32.311-10.056 47.97-2.32 3.954-4.95 8.435-7.624 13.52-4.897 9.313-4.651 16.918.711 21.994 8.548 8.091 30.31 9.328 50.563-2.783 11.194-6.69 29.973-22.797 29.973-55.504 0-20.348-2.866-47.173-16.519-59.419a2.496 2.496 0 0 1-.128-.124c-2.859-2.516-6.096-4.303-9.621-5.314-7.026-2.01-14.978-1.358-21.816 1.788-.118.054-.24.099-.364.134-35.192 9.958-64.022 3.541-81.179-18.071a2.5 2.5 0 1 1 3.916-3.108c11.176 14.078 33.384 28.34 75.718 16.421 7.867-3.567 17.004-4.286 25.102-1.97 4.31 1.236 8.248 3.425 11.706 6.507.052.046.102.095.149.145 14.904 13.528 18.037 41.713 18.037 63.011 0 35.175-20.304 52.562-32.407 59.796-10.611 6.345-22.793 9.575-33.564 9.575z" fill="#095ddb"/><path d="M574.621 569.565c.29 9.96-7.54 18.24-17.479 18.52-15.819.457-29.715 3.186-43.43 7.95v.01c-60.807 21.359-99.107 83.431-104.79 147.88-1.375 15.567 2.997 42.01-36.09 42.01-8.76 0-.18-54.11 3.82-73.28 18.117-86.797 87.099-157.628 179.45-160.54 9.95-.31 18.229 7.52 18.52 17.45zm41.621 90.445a16.498 16.498 0 0 1-2.123-2.213c.72.737 1.422 1.476 2.123 2.213z" fill="#fff"/><path d="M616.242 662.51c-.578 0-1.159-.2-1.63-.605a18.864 18.864 0 0 1-2.448-2.55 2.5 2.5 0 0 1 3.744-3.304c.727.745 1.437 1.491 2.146 2.236a2.5 2.5 0 0 1-1.812 4.223z" fill="#095ddb"/><path d="M852.138 370.011c-36.003 119.248-105.281 226.574-215.036 291.374-10.16 7.112-25.354.548-26.58-12.5-4.585-8.952-14.952-181.944 104.66-318.52.84 2.69 1.51 10.05 1.17 12.78-70.726 85.797-104.24 200.165-97.6 299.75.01.06.01.11.01.17.686 9.91 7.904 15.497 19.56 8.02 90.38-56.9 163.08-160.54 202.51-279.1l8.51-27.52c.827 2.681 2.546 21.79 2.796 25.545z" fill="#fff"/><path d="M627.775 666.82c-2.829 0-5.704-.627-8.445-1.894-6.304-2.916-10.489-8.663-11.257-15.424-2.698-7.309-5.82-52.177 5.75-112.488 10.614-55.324 36.488-136.371 99.478-208.295a2.502 2.502 0 0 1 4.268.902c.938 3.003 1.647 10.761 1.265 13.834a2.5 2.5 0 0 1-.552 1.281c-67.707 82.135-103.981 193.499-97.04 297.916.012.105.018.206.02.313.267 3.645 1.588 6.241 3.723 7.314 2.832 1.423 7.187.414 12.262-2.842 94.807-59.687 169.055-166.247 209.086-300.061.443-1.481.809-2.703 1.101-3.648a2.5 2.5 0 0 1 2.388-1.761h.001c1.097 0 2.065.715 2.388 1.763.117.381 2.87 9.516 2.427 26.348a2.52 2.52 0 0 1-.106.657C814.889 502.042 738.149 606.009 638.443 663.5a18.673 18.673 0 0 1-10.667 3.322zm85.847-330.827c-59.675 69.982-84.512 148.056-94.833 201.671-11.459 59.531-8.188 105.666-6.041 110.085.131.27.234.604.262.903.482 5.135 3.629 9.522 8.418 11.737 4.803 2.221 10.126 1.828 14.24-1.051.06-.042.122-.081.186-.118 98.559-56.793 174.478-159.643 213.794-289.609.139-5.815-.109-10.607-.484-14.361-40.817 131.959-114.948 237.048-209.235 296.407-8.47 5.433-14.024 4.68-17.189 3.09-3.791-1.905-6.09-5.992-6.471-11.508a2.173 2.173 0 0 1-.005-.114l-.005-.062c-3.355-50.32 3.526-104.253 19.899-155.966 16.932-53.478 43.818-103.579 77.769-144.936.072-1.498-.063-3.911-.304-6.166zm-97.344 307.264.006.041z" fill="#095ddb"/><path d="m713.413 702.62-37.379 12.141c-3.166-12.862-6.537-24.732-10.131-35.711-.01-.01-.02-.01-.01-.02-1.66-5.07-3.369-9.96-5.137-14.66-8.779-23.478-16.812-37.509-28.355-53.321a179.583 179.583 0 0 0-5.019-6.56c-21.882-27.251-48.943-44.361-82.8-58.851-12.382-5.307-25.671-10.258-39.941-15.234a1566.684 1566.684 0 0 0-21.513-7.303c-13.337-4.431-27.031-8.53-40.874-12.409l-3.046-38.173c18.62 5.02 37.182 10.41 55.288 16.433a1839.34 1839.34 0 0 1 13.347 4.491c20.141 6.871 39.354 13.937 57.533 22.26 24.868 11.393 47.749 25.098 68.35 43.786.301.268.613.556.905.825 5.631 5.137 10.971 10.265 16.032 15.465a275.367 275.367 0 0 1 10.82 11.766c25.686 29.669 41.17 59.136 51.931 115.073zM442.254 510.693c-21.145-5.935-42.638-11.358-63.69-16.663-9.394-2.375-18.708-4.719-27.922-7.095h-.02c-30.647-7.899-60.136-16.035-87.686-26.012a459.235 459.235 0 0 1-6.775-2.49c-14.402-5.425-28.258-11.413-41.418-18.185-55.57-28.582-89.74-67.451-104.445-118.884-2.737-9.554 2.794-19.527 12.358-22.264 9.544-2.716 19.507 2.805 22.243 12.359 5.381 18.828 13.957 34.928 25.12 48.862 22.456 28.048 55.411 47.343 94.041 62.475 9.171 3.596 18.662 6.95 28.401 10.132 19.267 6.306 39.521 11.927 60.283 17.354 11.428 2.972 22.985 5.894 34.633 8.825 17.106 4.319 34.492 8.706 51.83 13.414l3.046 38.173z" fill="#fff"/><path d="m352.466 450.122-2.09 36.59s-.07.02-.23.05h-.02c-30.6-8.08-60.04-16.39-87.53-26.53-2.27-.83-4.52-1.67-6.76-2.53-.11-.07-.21-.14-.32-.21 9.33-5.02 15.05-21.16 8.43-35.38 27.24 10.86 57.31 19.66 88.52 28.01z" fill="#095ddb"/><path d="M350.146 489.262c-.215 0-.45-.028-.658-.083-28.585-7.548-59.001-15.995-87.757-26.602a449.764 449.764 0 0 1-6.791-2.542 2.475 2.475 0 0 1-.448-.226l-.313-.205a2.5 2.5 0 0 1 .152-4.314c8.419-4.53 13.351-19.23 7.348-32.123a2.5 2.5 0 0 1 3.193-3.377c28.958 11.545 60.856 20.591 88.24 27.917a2.5 2.5 0 0 1 1.85 2.558l-2.09 36.59c-.059 1.038-.82 1.95-1.811 2.262 0 0-.138.043-.453.103a2.467 2.467 0 0 1-.462.043zm-89.525-32.424c.942.351 1.886.699 2.834 1.046 27.659 10.202 56.923 18.408 84.594 25.742l1.806-31.616c-25.458-6.835-54.603-15.147-81.688-25.562 3.127 11.783-.701 23.958-7.545 30.39zm371.78 154.212a179.583 179.583 0 0 0-5.019-6.56c-21.882-27.251-48.943-44.361-82.8-58.851l20.794-29.933c24.868 11.393 47.749 25.098 68.35 43.786.301.268.613.556.905.825 5.631 5.137 10.971 10.265 16.032 15.465-13.675.811-22.625 21.214-18.261 35.269z" fill="#095ddb"/><path d="M632.402 613.55a2.5 2.5 0 0 1-2.02-1.026 179.607 179.607 0 0 0-4.949-6.469c-19.804-24.664-44.278-42.045-81.834-58.118a2.499 2.499 0 0 1-1.069-3.724l20.793-29.933a2.5 2.5 0 0 1 3.094-.847c27.921 12.792 49.842 26.839 68.989 44.208.259.231.545.493.817.744l.101.093c5.915 5.396 11.193 10.488 16.131 15.561a2.499 2.499 0 0 1-1.644 4.239c-4.301.255-8.446 2.964-11.673 7.627-4.847 7.005-6.635 17.041-4.349 24.404a2.5 2.5 0 0 1-2.387 3.242zm-84.025-68.993c36.001 15.762 60.929 33.664 80.432 57.72.201-6.675 2.376-13.667 6.216-19.218 2.965-4.285 6.645-7.284 10.663-8.759a384.727 384.727 0 0 0-12.743-12.137l-.11-.101a64.312 64.312 0 0 0-.772-.703c-18.337-16.635-39.294-30.169-65.831-42.505z" fill="#095ddb"/><path d="M676.035 717.262a2.502 2.502 0 0 1-2.428-1.902c-3.106-12.619-6.478-24.511-10.021-35.351a2.47 2.47 0 0 1-.12-.355 356.986 356.986 0 0 0-5.05-14.401c-9.144-24.455-17.506-38.306-28.035-52.728a178.19 178.19 0 0 0-4.949-6.469c-19.804-24.664-44.278-42.045-81.834-58.118-11.106-4.76-23.746-9.581-39.78-15.172-6.181-2.156-13.006-4.473-21.479-7.291-33.796-11.234-69.682-20.276-104.386-29.02l-4.139-1.046a5056.263 5056.263 0 0 1-23.669-6.02c-.05-.01-.1-.02-.148-.033-28.63-7.379-59.095-15.646-87.913-26.082a457.297 457.297 0 0 1-6.805-2.501c-15.351-5.782-28.985-11.769-41.68-18.302-56.231-28.922-90.807-68.312-105.705-120.42-1.507-5.262-.874-10.799 1.784-15.589s7.023-8.259 12.29-9.766c10.862-3.092 22.226 3.222 25.334 14.074 14.168 49.534 50.458 83.366 117.669 109.698 29.026 11.373 60.977 20.231 88.404 27.395 11.972 3.114 24.143 6.185 34.611 8.82l1.076.272c35.156 8.885 71.508 18.073 106.222 29.627 4.495 1.495 8.949 2.991 13.364 4.497 16.334 5.572 37.661 13.148 57.767 22.353 27.921 12.792 49.843 26.839 68.989 44.208.259.231.545.493.817.744l.101.093c5.915 5.396 11.194 10.488 16.131 15.561a277.568 277.568 0 0 1 10.918 11.874c23.919 27.628 41.044 56.709 52.496 116.237a2.5 2.5 0 0 1-1.683 2.85l-37.379 12.142a2.496 2.496 0 0 1-.772.122zm-7.798-39.108c.015.039.029.079.042.119 3.358 10.256 6.562 21.441 9.534 33.282l32.723-10.629c-11.237-56.972-27.858-85.076-50.944-111.742a273.254 273.254 0 0 0-10.722-11.659c-4.867-5.001-10.076-10.026-15.925-15.362l-.11-.101a64.312 64.312 0 0 0-.772-.703c-18.773-17.03-40.289-30.809-67.729-43.381-19.903-9.112-41.076-16.633-57.299-22.167a1834.372 1834.372 0 0 0-13.329-4.485c-34.539-11.497-70.801-20.661-105.869-29.524l-1.073-.271c-10.475-2.636-22.657-5.71-34.65-8.83-27.571-7.202-59.699-16.109-88.967-27.578-32.04-12.552-56.873-26.732-75.919-43.349-22.253-19.415-36.886-42.191-44.733-69.628-2.35-8.205-10.944-12.979-19.155-10.642a15.401 15.401 0 0 0-9.29 7.384 15.394 15.394 0 0 0-1.349 11.787c14.497 50.709 48.249 89.094 103.185 117.35 12.523 6.444 25.985 12.354 41.156 18.069 2.234.842 4.476 1.664 6.738 2.477 28.586 10.352 58.864 18.571 87.337 25.911.05.01.1.02.148.033 7.856 2.025 15.785 4.028 23.773 6.047l4.137 1.045c34.79 8.766 70.767 17.831 104.74 29.123 8.498 2.826 15.344 5.151 21.548 7.315 16.146 5.63 28.889 10.491 40.102 15.297 37.849 16.199 63.683 34.575 83.764 59.584a183.317 183.317 0 0 1 5.088 6.651c10.779 14.765 19.336 28.935 28.678 53.92a362.784 362.784 0 0 1 5.139 14.658z" fill="#095ddb"/><path d="M626.383 522.893a367.68 367.68 0 0 0-5.711 28.65c-1.963 12.416-3.663 25.639-4.641 44.324-2.674-.685-4.507-1.557-7.174-2.935.631-11.735 2.492-32.218 4.384-44.209 1.572-9.967 3.161-20.177 5.61-30.186.87.492 2.164 1.185 3.04 1.693a273.89 273.89 0 0 1 4.493 2.663z" fill="#fff"/><path d="M574.621 569.565c.29 9.96-7.54 18.24-17.479 18.52-15.24.44-28.97 3.08-41.25 7.2-.73.25-1.46.5-2.18.75.28-12.45-17.41-28.13-33.31-24.85.02-.01.03-.02.05-.03 19.82-9.93 44.89-17.69 72.79-18.93.95-.05 1.9-.08 2.86-.11 9.95-.31 18.229 7.52 18.52 17.45z" fill="#095ddb"/><path d="M513.712 598.535a2.503 2.503 0 0 1-2.5-2.556c.113-5.015-3.353-11.078-9.044-15.823-6.569-5.476-14.517-7.914-21.261-6.523a2.5 2.5 0 0 1-1.774-4.602 2.8 2.8 0 0 1 .201-.112c15.898-7.965 41.608-17.761 73.797-19.191.939-.049 1.898-.08 2.867-.11 5.497-.172 10.703 1.8 14.687 5.55a20.359 20.359 0 0 1 6.436 14.325 20.373 20.373 0 0 1-5.585 14.68 20.362 20.362 0 0 1-14.323 6.413c-14.121.408-27.756 2.787-40.525 7.071-.713.244-1.439.493-2.155.741a2.495 2.495 0 0 1-.82.138zm-22.673-29.533c4.978 1.163 9.943 3.657 14.33 7.314 5.748 4.792 9.516 10.689 10.554 16.325 13.007-4.27 26.84-6.641 41.146-7.054a15.39 15.39 0 0 0 10.83-4.848 15.401 15.401 0 0 0 4.222-11.1 15.392 15.392 0 0 0-4.865-10.83 15.356 15.356 0 0 0-11.078-4.194c-.958.03-1.882.059-2.807.108-25.574 1.137-46.936 7.695-62.334 14.28z" fill="#095ddb"/><path d="M372.831 788.435c-.988 0-2.422-.315-3.643-1.818-8.014-9.858 4.883-73.831 5.016-74.473 13.034-62.445 53.892-117.616 106.629-143.985 23.153-11.612 47.749-17.678 75.19-18.543a20.327 20.327 0 0 1 14.661 5.551 20.359 20.359 0 0 1 6.436 14.325 20.373 20.373 0 0 1-5.585 14.68 20.362 20.362 0 0 1-14.323 6.413c-14.951.432-28.455 2.892-42.481 7.743a2.323 2.323 0 0 1-.192.076c-55.724 19.573-97.168 78.142-103.128 145.741-.162 1.839-.243 3.856-.328 5.992-.609 15.251-1.529 38.298-38.252 38.298zm183.842-233.829c-.164 0-.329.003-.494.008-26.7.842-50.614 6.735-73.107 18.016-51.405 25.703-91.245 79.552-103.973 140.536-2.064 9.892-4.839 26.383-6.385 40.923-2.585 24.304-.182 28.707.327 29.346 31.712-.078 32.422-17.831 33.047-33.497.088-2.198.171-4.274.344-6.232 2.923-33.15 14.04-64.717 32.148-91.287 19.085-28.002 44.706-48.283 74.101-58.661.068-.031.139-.059.211-.084 14.592-5.069 28.63-7.639 44.178-8.087a15.39 15.39 0 0 0 10.83-4.848 15.402 15.402 0 0 0 4.222-11.101 15.393 15.393 0 0 0-4.865-10.83 15.349 15.349 0 0 0-10.583-4.202zm-123.641-55.371c-.25.51-.49 1.04-.73 1.57-5.87 12.5-9.67 25.36-11.41 37.87-.4 2.24-.74 4.38-1 6.4-5.76-10.68-23.08-17.7-34.74-11.33 2.45-16.16 7.72-34.1 15.44-50.14 4.32-8.96 15.07-12.72 24.03-8.4s12.73 15.06 8.41 24.03z" fill="#095ddb"/><path d="M419.891 547.575a2.501 2.501 0 0 1-2.2-1.313c-2.709-5.022-8.527-9.367-15.183-11.34-5.977-1.771-11.715-1.41-16.158 1.017a2.498 2.498 0 0 1-3.67-2.569c2.614-17.242 8.176-35.301 15.659-50.849a20.376 20.376 0 0 1 11.702-10.456 20.362 20.362 0 0 1 15.666.888c10.184 4.91 14.48 17.187 9.577 27.367l-.007.016c-.233.475-.456.969-.68 1.463-5.716 12.174-9.483 24.674-11.228 37.221a134.492 134.492 0 0 0-.997 6.375 2.5 2.5 0 0 1-2.481 2.181zm-24.675-18.761c2.817 0 5.751.436 8.713 1.313 5.676 1.682 10.742 4.758 14.409 8.631l.093-.524c1.799-12.95 5.709-25.933 11.608-38.493.247-.545.491-1.082.744-1.599 3.702-7.696.452-16.975-7.247-20.687-3.731-1.799-7.938-2.038-11.844-.672s-7.049 4.174-8.848 7.906c-6.643 13.803-11.729 29.646-14.497 45.062 2.169-.624 4.478-.938 6.869-.938z" fill="#095ddb"/><path d="M610.511 648.835c-.52-5.53-.92-11.09-1.18-16.67-.08-1.51-.14-3.03-.189-4.55-3.78-104.81 36.04-217.32 106.04-297.25-37.22-42.29-82.04-73.5-128.49-96.59a8.934 8.934 0 0 0-8.5.27c-37.19 21.66-37.43 28.66-45.59 25.1-59.28-25.79-126.36-42.67-188.69-50.91a8.949 8.949 0 0 0-8.86 4.26c-13.75 23.19-25.11 47.36-34.1 71.92-21.83 59.63-29.72 121.61-24.05 177.85a327.186 327.186 0 0 0 3.6 25.73c.65 3.73 3.54 6.41 6.66 7.13 114.17 12.46 238.95 71.1 326.93 162.63a16.92 16.92 0 0 1-3.57-8.87c-.01-.02-.01-.04-.01-.05z" fill="#fff"/><path d="M614.092 660.255a2.495 2.495 0 0 1-1.806-.77c-35.251-36.79-79.115-70.275-126.85-96.835a573.692 573.692 0 0 0-41.974-21.096 559.497 559.497 0 0 0-37.593-15.402 571.762 571.762 0 0 0-10.831-3.853c-36.326-12.519-72.712-20.825-108.147-24.688a2.599 2.599 0 0 1-.291-.049c-4.328-.999-7.759-4.65-8.552-9.092a9.176 9.176 0 0 1-.09-.539c-1.472-8.118-2.669-16.699-3.543-25.416a361.423 361.423 0 0 1-1.772-34.691v-.059c-.272-73.659 21.129-150.562 60.259-216.545a11.463 11.463 0 0 1 11.338-5.463c66.615 8.807 133.865 26.953 189.36 51.096 3.317 1.447 4.323.855 12.476-4.981 6.017-4.307 15.109-10.815 30.858-19.987a11.407 11.407 0 0 1 10.876-.346c51.577 25.638 95.064 58.333 129.248 97.174.829.943.831 2.354.004 3.299-55.045 62.85-92.502 148.139-102.768 234-5.484 45.738-1.442 81.367-1.308 82.45.01.059.018.118.024.178.278 2.825 1.277 5.303 3.052 7.576a2.5 2.5 0 0 1-1.97 4.039zM287.594 492.657c35.754 3.911 72.452 12.293 109.073 24.914a565.65 565.65 0 0 1 10.927 3.887 564.417 564.417 0 0 1 37.929 15.539 579.156 579.156 0 0 1 42.342 21.281c44.626 24.83 85.906 55.666 120.039 89.605-.526-4.346-1.129-14.334-1.345-23.179-.334-13.72-.125-35.143 2.771-59.288 10.293-86.084 47.622-171.612 102.525-235.039-33.531-37.634-76.005-69.376-126.276-94.365a6.426 6.426 0 0 0-6.129.192c-15.546 9.054-24.524 15.48-30.464 19.732-8.264 5.915-11.356 8.128-17.383 5.499-55.078-23.962-121.852-41.976-188.018-50.723a6.462 6.462 0 0 0-6.39 3.07c-38.669 65.203-59.821 141.194-59.552 213.962v.061a356.584 356.584 0 0 0 1.747 34.209 321.22 321.22 0 0 0 3.502 25.114c.027.174.036.256.054.337l.02.1a6.407 6.407 0 0 0 4.629 5.092z" fill="#095ddb"/><path d="m167.396 361.486-22.828 13.965c-4.484 2.787-9.033 4.554-13.568 5.501-21.813 4.609-43.297-9.474-56.008-18.059-15.753-10.617-23.357-26.522-20.705-37.928.02-.05.03-.12.039-.18l.088-.33v-.02c.019-.11.049-.21.088-.321 1.489-5.219 5.215-9.401 11.412-11.558.17-.061.349-.122.529-.183-.05-.06-.101-.11-.141-.169a43.255 43.255 0 0 1-1.38-1.712c-9.706-12.733-9.765-27.873 7.067-32.632-3.211-8.691 6.159-18.707 19.046-20.923a31.014 31.014 0 0 1 7.678-.355c14.757 1.153 26.04 8.376 35.863 15.528a68.525 68.525 0 0 1 6.323-4.608c.12-.071.249-.151.379-.232.129-.071.259-.151.389-.232 1.833-1.141 3.029-1.718 3.16-1.719 0-.01.01-.01.02-.01.837-.415 1.675-.81 2.513-1.175.11-.041.219-.091.329-.142.409-.172.809-.335 1.217-.497.349-.142.708-.274 1.058-.406.289-.112.589-.213.878-.315a48.413 48.413 0 0 1 6.31-1.767c.379-.082.759-.155 1.129-.217a36.183 36.183 0 0 1 2.677-.416l1.24-.127c4.567-.427 8.93-.123 12.875.784.621.146 1.232.303 1.833.469.02.01.04.01.06.02.291.088.581.176.872.275.511.157 1.012.334 1.523.531.321.118.642.246.962.384a25.892 25.892 0 0 1 .962.414c9.593 3.873 11.064 10.715 11.433 20.723 0 .09.267 7.868.359 9.938l.033.5c9.452 42.595-9.75 59.199-25.713 67.203z" fill="#fff"/><path d="M75.852 345.132c9.632-1.39 12.888 2.452 20.765 7.049 7.026 4.101 14.845 4.653 21.037 2.016 7.901-3.365 9.232-13.649 3.662-21.116-12.608-16.899-37.628-29.918-56.782-22.448-5.286 2.575-8.924 8.621-10.122 13.795-.219.944 21.441 20.703 21.441 20.703z" fill="#fff"/><path d="M167.398 363.987a2.5 2.5 0 0 1-1.123-4.735c23.427-11.748 31.406-32.822 24.393-64.427a2.432 2.432 0 0 1-.054-.38l-.032-.49c-.084-1.872-.363-9.839-.365-10.092-.374-10.111-1.888-15.199-9.869-18.422a14.588 14.588 0 0 0-1.853-.771 21.11 21.11 0 0 0-1.393-.487c-.333-.111-.599-.192-.864-.273l-.055-.017a46.575 46.575 0 0 0-1.685-.43c-3.806-.874-7.871-1.12-12.069-.728l-1.214.125c-.834.099-1.65.226-2.457.383-.396.067-.737.132-1.078.206-2.037.424-4.05.988-6.004 1.68-.281.099-.555.195-.839.301l-.216.081c-.258.097-.519.195-.774.299-.412.164-.795.32-1.188.485-.08.038-.212.097-.352.152-.734.321-1.501.68-2.342 1.096a2.472 2.472 0 0 1-.414.167c-.268.123-1.142.564-2.564 1.449-.04.025-.081.049-.123.072-.088.048-.175.104-.263.159-.147.092-.294.183-.429.263a66.115 66.115 0 0 0-6.01 4.388 2.501 2.501 0 0 1-3.058.089c-9.196-6.696-20.211-13.934-34.586-15.057a28.467 28.467 0 0 0-7.056.326c-7.02 1.207-13.363 5.124-16.164 9.98-1.051 1.821-2.071 4.62-.964 7.614a2.498 2.498 0 0 1-1.665 3.272c-5.963 1.686-9.724 4.755-11.181 9.122-1.813 5.434.214 12.757 5.422 19.589a2.5 2.5 0 0 1-1.241 3.901c-2.652.832-7.281 5.828-8.776 11.893a2.614 2.614 0 0 1-.063.322l-.091.343a2.5 2.5 0 0 1-4.859-1.172c1.38-6.469 5.448-11.954 9.348-14.653-4.991-7.553-6.628-15.378-4.484-21.805 1.265-3.794 4.428-8.727 12.253-11.604-.451-3.057.219-6.288 1.969-9.321 3.567-6.183 11.094-10.938 19.644-12.408 2.713-.471 5.505-.6 8.295-.384 14.857 1.161 26.156 8.116 35.595 14.882a70.986 70.986 0 0 1 5.043-3.57l.41-.252c.148-.092.296-.183.443-.266 1.834-1.139 2.847-1.648 3.466-1.877a58.93 58.93 0 0 1 2.497-1.164c.043-.019.087-.036.131-.053l.147-.066c.504-.214.919-.383 1.344-.552.277-.113.58-.227.879-.34l.217-.082c.324-.121.629-.228.933-.335a50.957 50.957 0 0 1 6.629-1.856c.398-.086.816-.166 1.223-.234.867-.17 1.803-.315 2.799-.433l1.276-.131c4.754-.445 9.353-.163 13.692.834a51.68 51.68 0 0 1 1.94.496c.044.012.087.025.13.04l.013.004c.308.093.615.188.923.292.499.152 1.055.348 1.621.566.336.124.719.273 1.079.433.263.103.603.253.943.405 11.333 4.606 12.587 13.472 12.936 22.925.009.316.266 7.855.358 9.919l.017.255c4.288 19.46 3.076 35.646-3.604 48.11-4.89 9.124-12.567 16.217-23.47 21.684-.359.18-.742.266-1.119.266z" fill="#095ddb"/><path d="M122.155 384.362c-19.843 0-38.1-12.331-48.562-19.397-15.825-10.666-24.771-27.32-21.752-40.498l.014-.057a2.5 2.5 0 0 1 4.954.67c-.021.178-.06.375-.103.542-2.141 9.463 3.926 24.577 19.684 35.198 11.477 7.752 32.835 22.178 54.094 17.686 4.433-.926 8.726-2.667 12.765-5.178a2.5 2.5 0 1 1 2.639 4.247c-4.538 2.82-9.375 4.78-14.376 5.824a45.139 45.139 0 0 1-9.356.963z" fill="#095ddb"/><path d="M122.155 384.362c-19.843 0-38.1-12.331-48.562-19.397-15.825-10.666-24.771-27.32-21.752-40.498l.014-.057a2.5 2.5 0 0 1 4.954.67c-.021.178-.06.375-.103.542-2.141 9.463 3.926 24.577 19.684 35.198 11.477 7.752 32.835 22.178 54.094 17.686 4.433-.926 8.726-2.667 12.765-5.178a2.5 2.5 0 1 1 2.639 4.247c-4.538 2.82-9.375 4.78-14.376 5.824a45.139 45.139 0 0 1-9.356.963zm-.838-48.794a2.5 2.5 0 0 1-.038-5c5.678-.089 10.234-2.702 12.188-6.992 2.706-5.941.239-14.117-6.769-22.431-12.24-14.527-39.71-23.269-54.294-20.821a2.5 2.5 0 0 1-.827-4.931c16.19-2.717 45.466 6.532 58.945 22.53 8.302 9.85 11.035 19.956 7.495 27.726-2.775 6.091-9.003 9.799-16.66 9.918h-.04zm31.921-24.442a2.5 2.5 0 0 1-2.324-1.578c-3.24-8.156-1.747-22.373 8.043-26.998a2.499 2.499 0 1 1 2.135 4.521c-6.705 3.167-7.959 14.522-5.532 20.631a2.499 2.499 0 0 1-2.323 3.423z" fill="#095ddb"/><path d="m193.109 294.283-22.965-4.084c-4.947.989-8.077 8.545-16.974 14.651-11.578 7.952-23.829 7.743-28.903-5.429-5.208-13.725 7.422-27.62 20.559-34.102 0-.01.01-.01.02-.01 11.192-5.545 24.763-7.379 36.417-2.195 0 0 .01 0 .02.01 12.634 5.611 10.877 16.218 11.825 31.161z" fill="#fff"/><path d="M138.382 312.693c-1.295 0-2.553-.13-3.764-.394-4.012-.867-9.474-3.65-12.683-11.98a20.674 20.674 0 0 1-1.324-6.045c-.554-8.219 3.827-16.769 12.338-24.063a52.51 52.51 0 0 1 6.638-4.838l.367-.225c.041-.026.083-.05.125-.073.088-.048.175-.104.264-.159a49.075 49.075 0 0 1 3.265-1.784c.069-.038.14-.074.212-.105.741-.37 1.548-.746 2.528-1.179.047-.021.095-.04.144-.058l.147-.066c.48-.208.912-.38 1.344-.552.277-.113.58-.227.879-.34l.217-.082c.24-.093.503-.185.762-.275l.171-.06a50.957 50.957 0 0 1 6.629-1.856c.398-.086.816-.166 1.223-.234.867-.17 1.803-.315 2.799-.433.426-.055.886-.101 1.336-.137 4.704-.472 9.315-.19 13.652.844a31.192 31.192 0 0 1 2.05.531l.013.004c.308.094.615.188.923.292.499.152 1.055.348 1.621.566.327.12.689.265 1.052.421.29.115.63.265.97.416l.051.023c.34.152.69.314 1.03.487 11.096 5.413 11.472 14.992 11.908 26.084.078 1.994.159 4.055.302 6.195l.033.504a2.5 2.5 0 1 1-4.989.322l-.032-.49c-.147-2.212-.229-4.309-.309-6.336-.419-10.649-.695-17.684-9.142-21.805-.309-.157-.59-.286-.862-.407l-.058-.027c-.269-.12-.538-.239-.816-.35-.341-.146-.62-.257-.899-.36a21.11 21.11 0 0 0-1.393-.487c-.333-.111-.599-.192-.864-.273l-.07-.022a27.386 27.386 0 0 0-1.641-.419c-3.828-.912-7.88-1.157-12.081-.736a24 24 0 0 0-1.171.12 33.82 33.82 0 0 0-2.516.39c-.396.067-.737.132-1.078.206-2.037.424-4.05.988-6.004 1.68l-.188.066c-.208.073-.42.146-.625.225l-.242.091c-.258.097-.519.195-.774.299-.405.161-.791.314-1.167.476a5.939 5.939 0 0 1-.365.158c-.92.408-1.667.757-2.346 1.098l-.036.018a43.53 43.53 0 0 0-2.988 1.626c-.108.068-.25.155-.397.238-.129.08-.256.159-.375.229a47.33 47.33 0 0 0-5.967 4.353c-7.18 6.153-11.044 13.422-10.604 19.943a15.682 15.682 0 0 0 1.004 4.584c1.928 5.004 4.982 7.996 9.073 8.879 4.578.997 10.286-.645 16.078-4.624 3.142-2.157 6.201-4.97 8.846-8.137 4.389-5.309 7.556-6.605 9.053-6.904a2.5 2.5 0 1 1 .981 4.903c-.023.005-2.311.507-6.188 5.197-2.983 3.572-6.298 6.619-9.861 9.064-5.525 3.795-11.147 5.782-16.204 5.782zm-28.849 45.608c-4.756 0-9.684-1.339-14.176-3.961-1.542-.9-2.931-1.784-4.157-2.564-5.058-3.219-8.111-5.163-14.991-4.17a2.5 2.5 0 0 1-.714-4.948c8.714-1.258 12.984 1.46 18.39 4.901 1.245.793 2.533 1.612 3.992 2.464 6.129 3.577 13.156 4.278 18.797 1.876 3.303-1.407 4.627-4.04 5.157-6.002.986-3.652.044-7.884-2.519-11.319-11.824-15.849-35.724-28.609-53.772-21.651-5.212 2.596-8.747 9.462-9.04 14.372a2.5 2.5 0 0 1-4.991-.297c.386-6.481 4.954-15.216 11.93-18.614a2.56 2.56 0 0 1 .186-.082c20.521-8.004 46.467 5.552 59.694 23.282 3.473 4.655 4.721 10.491 3.339 15.612-1.156 4.285-4.006 7.588-8.025 9.299-2.835 1.208-5.93 1.803-9.101 1.803zm395.267 99.15c-5.567 6.846-12 12.151-18.894 16.054-24.256 13.766-54.183 10.086-72.273-6.263-4.292-3.891-7.922-8.493-10.657-13.754-7.552-14.565-11.932-40.419-6.386-51.109 5.13-9.889 14.616-6.989 19.851 2.525 8.455 15.332 31.631 35.572 70.253 29.991.656-.098 2.567-.596 2.567-.596 14.614-3.344 25.604 10.812 15.54 23.152z" fill="#095ddb"/><path d="M453.563 484.548c-15.346 0-30.314-5.246-41.607-15.452-4.623-4.191-8.39-9.053-11.199-14.455-7.883-15.203-12.389-41.846-6.387-53.414 2.482-4.785 6.203-7.449 10.477-7.502 5.16-.067 10.313 3.665 13.783 9.973 9.072 16.451 32.248 33.846 67.705 28.722.31-.047 1.437-.318 2.295-.541 8.319-1.905 16.235 1.041 20.239 7.487 3.764 6.06 2.968 13.409-2.129 19.662-5.556 6.832-12.151 12.435-19.603 16.652a68.141 68.141 0 0 1-33.574 8.868zm-48.588-85.823h-.067c-3 .037-4.973 2.633-6.099 4.805-5.096 9.823-.749 35.048 6.386 48.807 2.533 4.872 5.937 9.264 10.117 13.052 17.842 16.124 47.014 18.624 69.36 5.941 6.909-3.911 13.028-9.11 18.189-15.457l.002-.003c3.687-4.521 4.344-9.704 1.759-13.866-2.86-4.604-8.671-6.673-14.804-5.269-.406.107-2.024.522-2.755.632a91.756 91.756 0 0 1-13.122.967c-30.656.001-51.029-16.516-59.691-32.223-2.511-4.564-6.059-7.386-9.276-7.386z" fill="#095ddb"/><path d="M485.905 473.504c-24.256 13.766-54.183 10.086-72.273-6.263 5.619-11.029 21.08-14.758 30.653-9.78 13.548-5.188 34.756 1.951 41.62 16.043z" fill="#a3c2f2"/><path d="M485.907 476.005a2.5 2.5 0 0 1-2.249-1.406c-4.034-8.281-14.293-14.746-25.529-16.088-8.503-1.016-15.641 1.134-19.581 5.898a2.5 2.5 0 0 1-3.853-3.187c5.045-6.099 13.803-8.897 24.027-7.675 13.056 1.56 24.609 8.964 29.431 18.863a2.499 2.499 0 0 1-2.246 3.595z" fill="#095ddb"/><path d="M453.562 484.548c-15.346 0-30.313-5.246-41.606-15.451a2.5 2.5 0 0 1-.551-2.99c2.844-5.581 8.057-9.824 14.679-11.946 6.285-2.014 13.048-1.779 18.344.594 15.395-5.165 36.751 3.337 43.726 17.655a2.5 2.5 0 0 1-1.014 3.269 68.147 68.147 0 0 1-33.578 8.869zm-36.728-17.838c17.354 14.437 44.263 16.801 65.66 5.797-7.498-11.921-26.089-17.01-37.315-12.711a2.497 2.497 0 0 1-2.047-.117c-4.27-2.22-10.072-2.503-15.522-.757-4.644 1.488-8.404 4.219-10.775 7.787z" fill="#095ddb"/><path d="M485.907 476.005a2.5 2.5 0 0 1-2.249-1.406c-4.034-8.281-14.293-14.746-25.529-16.088-8.503-1.016-15.641 1.134-19.581 5.898a2.5 2.5 0 0 1-3.853-3.187c5.045-6.099 13.803-8.897 24.027-7.675 13.056 1.56 24.609 8.964 29.431 18.863a2.499 2.499 0 0 1-2.246 3.595z" fill="#095ddb"/><path d="M731.703 780.244c-5.755 5.994-12.829 10.306-20.812 11.673a32.539 32.539 0 0 1-3.847.433c-14.076 9.184-36.095-.636-48.45-11.793h-.01c-9.878-3.022-17.757-9.495-20.891-22.047-6.483-25.862 11.779-45.93 32.237-63.252l39.643-11.515c13.182 2.082 24.952 8.762 34.04 18.469 3.341 3.57 5.885 7.455 7.66 11.825 1.319 3.262 2.21 6.797 2.673 10.664 4.166 21.356-1.896 47.992-22.242 55.542z" fill="#fff"/><path d="M681.899 750.958c-1.392-5.442-4.908-9.861-9.461-12.024-12.211-5.825-28.988 6.515-21.444 26.527 16.147 42.781 54.38 41.838 73.076 7.548-.101-.053-45.038-23.549-42.171-22.051z" fill="#fff"/><path d="M707.04 794.854a2.5 2.5 0 0 1-.125-4.997c12.831-.653 24.328-9.376 32.372-24.561a2.501 2.501 0 0 1 4.419 2.34c-8.772 16.56-22.089 26.479-36.537 27.214a2.776 2.776 0 0 1-.129.003zm-48.457-11.798c-.248 0-.494-.037-.731-.109-11.95-3.655-19.549-11.674-22.585-23.832-1.572-6.274-1.834-12.7-.757-18.582 1.692-10.804 8.115-19.719 11.565-24.508.316-.438.603-.837.855-1.194.065-.092.136-.18.212-.261 7.664-9.658 17.053-17.846 24.389-23.908a2.5 2.5 0 1 1 3.186 3.854c-7.184 5.937-16.377 13.951-23.771 23.306l-.044.054c-.232.327-.49.685-.769 1.072-3.206 4.451-9.175 12.736-10.693 22.423-.96 5.248-.722 10.943.679 16.531 2.614 10.466 8.874 17.089 19.14 20.246a2.503 2.503 0 0 1 1.831 2.393 2.495 2.495 0 0 1-2.48 2.515h-.025z" fill="#095ddb"/><path d="M707.044 794.85a2.5 2.5 0 0 1-.015-5c5.829-.035 14.898-3.031 22.87-11.337.261-.272.58-.482.934-.613 18.741-6.955 24.631-32.354 20.658-52.72a2.757 2.757 0 0 1-.029-.182c-1.003-8.389-4.078-15.087-9.677-21.079-9.638-10.286-22.172-16.695-35.291-18.042a2.5 2.5 0 1 1 .511-4.974c14.318 1.471 27.966 8.431 38.431 19.6 6.256 6.695 9.848 14.484 10.98 23.81 4.406 22.738-2.202 49.828-23.305 58.07-8.962 9.122-19.3 12.427-26.052 12.467z" fill="#095ddb"/><path d="M688.434 800.7c-.765 0-1.53-.026-2.298-.08-16.016-1.109-29.678-13.603-37.48-34.277-3.869-10.263-2.153-20.089 4.591-26.285 5.679-5.218 13.635-6.546 20.268-3.381 5.289 2.513 9.229 7.493 10.807 13.661a2.501 2.501 0 0 1-4.844 1.24c-1.191-4.656-4.224-8.538-8.112-10.386-4.784-2.282-10.568-1.281-14.736 2.549-5.186 4.765-6.418 12.555-3.295 20.839 7.083 18.766 19.165 30.085 33.148 31.054 13.516.937 26.751-7.969 35.394-23.821a2.5 2.5 0 0 1 4.39 2.394c-9.129 16.744-23.137 26.494-37.831 26.495z" fill="#095ddb"/><path d="M664.892 727.037c5.68 6.767 10.602 15.765 11.529 27.566 10.153 3.882 20.742-10.114 14.075-24.109-7.271-15.264-25.669-10.377-25.604-3.457z" fill="#fff"/><path d="M676.418 757.103a2.5 2.5 0 0 1-2.49-2.304c-.754-9.595-4.438-18.395-10.952-26.154a2.5 2.5 0 1 1 3.829-3.214c7.197 8.574 11.27 18.323 12.107 28.978a2.5 2.5 0 0 1-2.495 2.696z" fill="#095ddb"/><path d="M523.862 433.985c-7.18.4-13.24-1.53-18.17-5.14-18.17-13.32-20.89-49.5-7.51-75.94 11.78-23.46 30.5-32.48 45.65-27.84 11.4 3.49 20.76 14.71 23.62 33.32v.02c5.67 35.81-17.33 73.89-43.59 75.58z" fill="#fff"/><path d="M566.304 352.805a47.33 47.33 0 0 1-4.73 9.719l-.002.017c-14.697 23.265-47.225 33.696-71.753 22.144.567-11.198 3.594-22.349 8.363-31.777 19.368-38.585 58.313-38.795 68.123-.104z" fill="#095ddb"/><path d="M511.646 391.938c-8.049 0-15.846-1.672-22.891-4.99a2.5 2.5 0 0 1-1.432-2.388c.571-11.266 3.635-22.907 8.629-32.779 10.253-20.426 26.798-32.012 43.184-30.228 14.054 1.53 25.117 12.984 29.593 30.638.121.477.098.978-.064 1.442a49.925 49.925 0 0 1-4.884 10.083c-.029.055-.06.109-.093.161-7.459 11.807-19.377 20.75-33.558 25.179-6.161 1.924-12.394 2.881-18.483 2.881zm-19.224-8.825c22.839 9.712 53.094 0 66.947-21.764a2.47 2.47 0 0 1 .096-.166 44.99 44.99 0 0 0 4.225-8.498c-4.098-15.348-13.215-24.868-25.097-26.162-14.251-1.552-28.882 8.988-38.177 27.507-4.438 8.773-7.251 19.035-7.994 29.082z" fill="#095ddb"/><path d="M522.002 436.533c-10.849 0-19.852-5.031-26.13-14.637-11.372-17.4-11.338-47.543.08-70.116 10.633-21.182 27.727-32.691 44.605-30.029 15.271 2.409 26.249 15.962 29.365 36.255l.018.144c3.279 20.961-2.81 44.133-15.909 60.505-8.644 10.805-19.302 17.134-30.01 17.821h-.022c-.672.038-1.338.057-1.996.057zm13.738-110.16c-13.337 0-26.58 10.239-35.323 27.657-10.678 21.111-10.832 49.109-.36 65.131 5.624 8.605 13.806 12.867 23.653 12.325 9.283-.599 18.664-6.265 26.416-15.954 12.277-15.345 17.968-37.085 14.853-56.737a2.983 2.983 0 0 1-.02-.162c-2.795-17.959-12.202-29.896-25.182-31.943a25.884 25.884 0 0 0-4.038-.316z" fill="#095ddb"/><ellipse cx="522.135" cy="341.57" fill="#fff" rx="10.214" ry="7.494" transform="matrix(.5591929 -.82903757 .82903757 .5591929 -53.013 583.436)"/><path d="M394.774 386.439c-4.615-1.909-8.737-5.131-12.18-9.37-26.71-32.85-3.768-100.964 32.736-96.105 14.564 1.91 24.09 15.624 27.855 29.943v.017c11.432 42.649-19.408 87.608-48.412 75.515z" fill="#fff"/><path d="M441.52 305.656a45.775 45.775 0 0 1-3.567 9.827v.017c-11.784 23.863-42.017 37.185-66.777 28.553-1.731-31.969 16.603-61.031 38.272-63.156 15.194-1.633 26.699 10.177 32.072 24.759z" fill="#095ddb"/><path d="M387.15 349.207c-5.777 0-11.444-.928-16.798-2.794a2.498 2.498 0 0 1-1.673-2.225c-1.773-32.751 17.163-63.489 40.525-65.779 17.683-1.901 29.503 12.382 34.662 26.383.17.461.2.963.087 1.441a48.277 48.277 0 0 1-3.684 10.207 3.13 3.13 0 0 1-.074.167c-5.989 12.128-16.563 21.948-29.773 27.65-7.625 3.291-15.545 4.95-23.271 4.95zm-13.551-6.992c22.901 6.984 50.94-5.393 62.038-27.674.024-.059.049-.116.077-.172a43.448 43.448 0 0 0 3.192-8.558c-4.632-12.001-14.631-23.994-29.192-22.429-20.455 2.006-37.045 29.275-36.116 58.832z" fill="#095ddb"/><path d="M404.643 390.957c-3.643 0-7.276-.731-10.825-2.211a26.846 26.846 0 0 1-3.144-1.529c-3.67-2.036-7.049-4.925-10.021-8.573-17.46-21.474-14.184-55.746-2.238-77.091 9.276-16.575 22.852-24.982 37.246-23.066.893.121 1.674.258 2.391.42.061.014.122.03.182.048 12.746 2.882 22.967 14.571 27.365 31.315.013.048.024.097.034.146 7.756 29.143-3.696 57.96-19.042 71.389-6.92 6.055-14.454 9.152-21.948 9.152zm7.051-107.734c-11.04 0-21.435 7.405-28.916 20.772-11.142 19.909-14.314 51.732 1.753 71.493 2.566 3.151 5.458 5.631 8.593 7.371.856.487 1.695.895 2.592 1.261l.018.007c9 3.754 18.79 1.593 27.565-6.086 14.206-12.431 24.768-39.254 17.468-66.469a2.452 2.452 0 0 1-.038-.165c-3.062-11.529-10.894-24.796-23.751-27.61a2.481 2.481 0 0 1-.193-.05 25.04 25.04 0 0 0-5.09-.524z" fill="#095ddb"/><ellipse cx="395.074" cy="300.185" fill="#fff" rx="8.756" ry="6.424" transform="matrix(.5591929 -.82903757 .82903757 .5591929 -74.713 459.855)"/><path d="M370.343 450.835c34.077-5.884 56.409-45.424 43.524-74.059-10.367-22.59-35.627-26.704-57.603-16.958" fill="#fff"/><path d="M370.34 453.336a2.502 2.502 0 0 1-.423-4.964c15.98-2.759 30.447-13.676 38.699-29.203 7.428-13.977 8.511-29.054 2.971-41.366-10.42-22.707-35.459-24.059-54.31-15.698a2.5 2.5 0 0 1-2.027-4.571c11.672-5.177 24.026-6.521 34.785-3.785 11.861 3.016 20.888 10.619 26.104 21.985 6.187 13.749 5.051 30.43-3.108 45.781-8.972 16.882-24.771 28.763-42.263 31.784a2.5 2.5 0 0 1-.428.037z" fill="#095ddb"/><path d="M491.996 497.559c-42.624-50.012 18.317-119.192 64.055-75.08l.009.017" fill="#fff"/><path d="M491.998 500.059a2.496 2.496 0 0 1-1.904-.878c-23.822-27.951-16.346-62.148 2.781-80.134 15.932-14.982 42.183-20.287 64.912 1.634a2.507 2.507 0 0 1-.574 4.023 2.497 2.497 0 0 1-3.011-.535c-21.722-20.846-44.759-13.839-57.902-1.48-17.446 16.405-24.216 47.652-2.401 73.249a2.499 2.499 0 0 1-1.901 4.121z" fill="#095ddb"/><path d="M399.252 721.165s0 2.03-.47 5.07c-.74 4.76-2.62 12-7.46 17.89-6.17 7.54-17.15 12.88-36.69 8.02-20.41-38.91-39.54-86.94-47.07-106.46-2.16-5.62-3.37-8.88-3.37-8.88 23.81-23.69 47.92-9.56 64.91 13.55 9.96 13.54 18.27 33.35 24.12 50.78 2.46 7.31 4.49 14.2 6.03 20.03z" fill="#fff"/><path d="M395.673 711.206a2.5 2.5 0 0 1-2.387-1.761c-4.391-14.183-13.634-40.528-26.195-57.608-7.814-10.626-20.246-23.532-35.093-24.678-8.969-.692-17.731 3.148-26.044 11.415a2.5 2.5 0 1 1-3.526-3.546c9.391-9.339 19.469-13.664 29.954-12.855 16.736 1.292 30.303 15.233 38.737 26.701 12.995 17.671 22.459 44.607 26.943 59.091a2.501 2.501 0 0 1-2.389 3.24z" fill="#095ddb"/><path d="M320.095 748.286c-5.622-8.038-10.989-17.499-15.858-28.473-18.593-41.886-13.289-86.052 14.454-90.89 32.76-5.718 34.258 36.401 45.308 62.551 7.786 18.421 15.27 30.207 21.239 39.999 4.22 6.926 7.698 12.86 9.994 19.456 14.369 41.271-36.427 52.759-75.137-2.643z" fill="#a3c2f2"/><g fill="#095ddb"><path d="M375.347 788.453c-16.581.001-38.492-11.818-57.301-38.734-5.943-8.497-11.358-18.218-16.095-28.892-12.865-28.982-14.781-59.695-4.882-78.246 4.783-8.963 12.111-14.537 21.192-16.121 27.126-4.735 34.652 20.988 41.29 43.684 2.047 6.999 4.164 14.236 6.751 20.357 7.147 16.907 14.13 28.323 19.742 37.495l1.329 2.176c4.336 7.115 7.841 13.101 10.22 19.935 5.589 16.054 1.977 29.647-9.426 35.474-3.694 1.888-8.036 2.872-12.82 2.872zM324.34 630.909c-1.638 0-3.374.154-5.22.477-7.616 1.328-13.551 5.887-17.64 13.549-9.201 17.243-7.222 46.236 5.042 73.864 4.606 10.381 9.862 19.82 15.622 28.055 17.688 25.315 38.393 36.575 53.309 36.577 3.938 0 7.469-.784 10.438-2.301 9.147-4.675 11.756-15.657 6.979-29.378-2.217-6.368-5.589-12.12-9.768-18.977l-1.325-2.169c-5.698-9.314-12.79-20.907-20.082-38.158-2.699-6.387-4.857-13.764-6.944-20.899-6.099-20.85-11.888-40.639-30.412-40.639zm-15.599-466.874h-.032l-54.984-.685a2.5 2.5 0 1 1 .062-5l54.984.685a2.5 2.5 0 0 1-.03 5zm-243.107-3.027h-.032l-63.134-.786a2.5 2.5 0 1 1 .062-5l63.134.786a2.5 2.5 0 0 1-.03 5zm97.211-91.993h-.032a2.5 2.5 0 0 1-2.469-2.531l.797-64.015a2.5 2.5 0 1 1 5 .062l-.797 64.015a2.5 2.5 0 0 1-2.499 2.469zm64.745 28.904a2.5 2.5 0 0 1-1.746-4.289l35.244-34.377a2.5 2.5 0 0 1 3.491 3.579l-35.244 34.377a2.492 2.492 0 0 1-1.745.71zM47.63 261.992a2.5 2.5 0 0 1-1.746-4.289l38.122-37.185a2.5 2.5 0 0 1 3.491 3.579l-38.122 37.185a2.492 2.492 0 0 1-1.745.71zM244.835 127.79a2.501 2.501 0 0 1-.957-4.81l34.024-14.084a2.5 2.5 0 1 1 1.912 4.62L245.79 127.6a2.504 2.504 0 0 1-.955.191zM47.32 209.519a2.5 2.5 0 0 1-.957-4.811l25.402-10.514a2.5 2.5 0 1 1 1.912 4.62l-25.402 10.514a2.504 2.504 0 0 1-.955.191zm223.2-4.705c-.303 0-.611-.055-.91-.173l-19.575-7.659a2.5 2.5 0 1 1 1.822-4.656l19.575 7.659a2.5 2.5 0 0 1-.912 4.829zm29.392 11.5c-.303 0-.611-.055-.91-.173l-16.001-6.261a2.5 2.5 0 1 1 1.822-4.656l16.001 6.261a2.5 2.5 0 0 1-.912 4.829zM72.604 127.346c-.303 0-.611-.055-.91-.172l-34.355-13.438a2.5 2.5 0 1 1 1.821-4.657l34.355 13.438a2.5 2.5 0 0 1-.911 4.829zm141.414 150.6a2.5 2.5 0 0 1-2.357-1.668l-10.214-28.904a2.508 2.508 0 0 1-.143-.867 2.514 2.514 0 0 1 2.534-2.475 2.496 2.496 0 0 1 2.378 1.832l10.159 28.748a2.5 2.5 0 0 1-2.357 3.334zm-83.649-204.33a2.5 2.5 0 0 1-2.357-1.667l-9.059-25.617a2.5 2.5 0 0 1 4.713-1.667l9.059 25.617a2.5 2.5 0 0 1-2.356 3.334zm66.509 2.978h-.034a2.492 2.492 0 0 1-2.466-2.525v-.018c.005-.315.068-.626.188-.917l10.865-26.418a2.5 2.5 0 1 1 4.624 1.902L199.218 74.97a2.505 2.505 0 0 1-2.339 1.624zm15.22-37.021a2.5 2.5 0 0 1-2.311-3.452l5.554-13.505a2.5 2.5 0 1 1 4.624 1.902l-5.554 13.505a2.5 2.5 0 0 1-2.313 1.55zm61.716 237.606c-.65 0-1.3-.252-1.79-.754l-47.01-48.195a2.5 2.5 0 0 1 3.579-3.491l47.01 48.195a2.5 2.5 0 0 1-1.789 4.245zM95.426 94.294c-.65 0-1.3-.252-1.79-.754L53.517 52.409a2.5 2.5 0 0 1 3.579-3.491l40.12 41.131a2.5 2.5 0 0 1-1.789 4.245z"/></g></svg></g></svg>