<svg xmlns="http://www.w3.org/2000/svg" viewBox="0 0 3000 3000" width="3000" height="3000"><g transform="translate(606.6666666666667 133.33333333333334) rotate(0.0 791.6666666666666 1375.0) scale(3.3396329356709358 3.329128543100714)"><svg width="474.104" height="826.042" viewBox="0 0 474.104 826.042"><path d="M271.577 54.88c-29.536-29.16-64.716-26.103-81.156-12.115-6.151 5.234-9.66 14.089-5.919 21.19 3.852 7.311 13.965 5.394 21.812 1.186 10.89-5.839 20.825-6.293 35.448 4.402 2.583 1.89 5.445 2.89 8.325 2.86l21.489-17.524z" fill="#fff"/><path d="M249.966 74.905c-3.343 0-6.686-1.154-9.679-3.344-14.32-10.473-23.164-9.378-32.791-4.217-3.227 1.729-11.479 5.524-18.411 3.403-2.986-.913-5.336-2.859-6.794-5.628-4.472-8.485-.11-18.627 6.51-24.259 9.326-7.937 22.988-11.836 37.481-10.712 11.789.918 29.521 5.645 47.051 22.951a2.502 2.502 0 0 1-.176 3.716l-21.489 17.524a2.504 2.504 0 0 1-1.555.563h-.147zm-29.307-16.332c7.173 0 14.364 2.943 22.58 8.953 1.901 1.39 3.956 2.193 5.993 2.351l18.575-15.148c-28.851-26.819-61.461-22.232-75.765-10.059-5.104 4.342-8.573 11.961-5.327 18.12.847 1.607 2.102 2.647 3.834 3.177 3.563 1.092 9.015-.043 14.586-3.028 5.4-2.896 10.458-4.365 15.525-4.365z" fill="#095ddb"/><path d="M212.135 90.867c-2.876-.746-5.876-2.023-7.805-4.563-10.704-14.096-22.534-17.847-36.157-16.498-10.592 1.049-21.317 2.052-25.215-6.312-3.898-8.363 3.243-17.532 11.679-21.266 20.358-9.012 48.128-6.047 74.036 19.667 13.067 12.969-.253 33.197-16.538 28.971z" fill="#fff"/><path d="M216.592 93.95c-1.633 0-3.333-.208-5.085-.663-4.201-1.09-7.2-2.88-9.168-5.472-9.222-12.146-19.685-16.938-33.919-15.521-10.807 1.065-23.055 2.282-27.728-7.744-1.659-3.559-1.763-7.498-.303-11.392 2.042-5.442 7.114-10.507 13.235-13.217 24.456-10.826 53.171-3.282 76.809 20.179 6.519 6.47 7.855 15.698 3.406 23.511-3.156 5.541-9.438 10.318-17.247 10.318zm-43.536-26.893c13.476 0 24.14 5.719 33.264 17.734 1.262 1.663 3.37 2.858 6.442 3.655 7.572 1.97 13.859-2.245 16.732-7.29 2.625-4.609 3.325-11.623-2.583-17.487-22.122-21.956-48.762-29.115-71.263-19.155-4.863 2.152-9.014 6.235-10.578 10.401-.992 2.645-.941 5.176.153 7.523 2.954 6.338 10.907 6.048 22.703 4.879a52.262 52.262 0 0 1 5.13-.261z" fill="#095ddb"/><path d="M221.259 77.998c-11.196-13.516-23.08-16.896-32.28-12.361-7.54 3.717-16.569-.021-19.093-8.204-2.111-6.844.912-15.217 8.544-18.74 18.376-8.483 47.87-6.225 66.331 18.788 4.961 6.722 3.722 16.764-2.768 22.429-6.478 5.656-15.397 4.532-20.734-1.911z" fill="#fff"/><path d="M232.582 86.062c-.43 0-.861-.018-1.293-.053-4.589-.37-8.834-2.649-11.955-6.417-9.768-11.792-20.429-16.062-29.249-11.714-4.292 2.116-9.244 2.258-13.587.388-4.314-1.859-7.595-5.539-9.001-10.097-2.645-8.575 1.605-17.925 9.885-21.747 20.365-9.401 50.74-5.697 69.39 19.573 5.707 7.732 4.301 19.305-3.135 25.797-3.182 2.778-7.065 4.27-11.055 4.27zm-35.523-24.815c8.658 0 17.926 5.258 26.125 15.156 2.253 2.72 5.274 4.361 8.507 4.623 3.124.248 6.12-.784 8.657-2.999 5.523-4.822 6.6-13.373 2.401-19.063-17.062-23.117-44.745-26.553-63.272-18.003-6.854 3.165-8.827 10.469-7.203 15.734.988 3.202 3.19 5.681 6.201 6.978 2.995 1.291 6.42 1.19 9.397-.279a20.599 20.599 0 0 1 9.186-2.147z" fill="#095ddb"/><path d="M354.392 308.101c-6.9 4.42-16.02 2.38-20.42-4.46-3.778-5.887-3.511-14.61 4.46-20.42 32.78-21.03 47.1-43.48 42.53-66.75-3.69-18.78-19.7-38.58-45.09-55.75-25.09-16.97-57.84-30.09-89.84-36.01-8.046-1.493-13.34-9.215-11.85-17.22 1.5-8.03 9.205-13.329 17.22-11.84 36.4 6.72 72.27 21.13 101.02 40.58 73.15 49.46 83.13 119.811 1.97 171.87z" fill="#fff"/><path d="M392.384 274.963c-9.156 11.568-21.746 22.724-37.992 33.136-6.901 4.423-16.024 2.378-20.424-4.456-4.4-6.878-2.4-16.013 4.467-20.424 14.557-9.335 25.48-18.957 32.703-28.802-5.534 8.467 10.801 31.958 21.246 20.546z" fill="#095ddb"/><path d="M346.447 312.928c-5.694 0-11.278-2.802-14.581-7.932-5.134-8.024-2.792-18.735 5.218-23.881 14.242-9.132 25.021-18.611 32.039-28.177a2.5 2.5 0 0 1 4.108 2.847c-2.397 3.667 1.478 12.976 7.274 17.475 3.898 3.027 7.275 3.029 10.035.016a2.5 2.5 0 0 1 3.804 3.239c-9.539 12.051-22.527 23.385-38.604 33.688a17.171 17.171 0 0 1-9.294 2.725zm21.517-50.68c-7.094 7.874-16.538 15.61-28.179 23.075-5.692 3.657-7.358 11.271-3.71 16.972 3.661 5.686 11.275 7.348 16.969 3.699 12.435-7.97 22.946-16.548 31.355-25.58-2.288-.343-4.647-1.41-6.958-3.204-4.49-3.485-8.254-9.412-9.475-14.962z" fill="#095ddb"/><path d="M346.447 312.928c-5.694 0-11.278-2.802-14.581-7.932-5.134-8.024-2.792-18.735 5.218-23.881 31.832-20.411 45.768-41.999 41.424-64.166-3.562-18.131-19.202-37.365-44.04-54.158-24.817-16.783-57.218-29.765-88.895-35.616-9.363-1.737-15.575-10.77-13.85-20.135.842-4.54 3.4-8.48 7.203-11.097a17.155 17.155 0 0 1 12.936-2.754c36.712 6.782 72.924 21.331 101.964 40.968 34.279 23.177 54.735 50.537 59.155 79.125 3.359 21.725-3.07 43.574-18.592 63.188l-.031.038c-.03.037-.062.074-.095.11-9.531 12.012-22.491 23.312-38.522 33.585a17.171 17.171 0 0 1-9.294 2.725zM248.689 97.896c-2.459 0-4.857.741-6.928 2.166a12.217 12.217 0 0 0-5.121 7.887c-1.226 6.654 3.19 13.074 9.844 14.31 32.328 5.971 65.419 19.235 90.785 36.39 25.939 17.538 42.327 37.901 46.146 57.338 4.779 24.382-9.901 47.709-43.63 69.337-5.692 3.657-7.358 11.271-3.71 16.972 3.661 5.686 11.275 7.348 16.969 3.699 15.61-10.005 28.187-20.967 37.381-32.583.039-.049.079-.096.121-.141 14.789-18.73 20.675-38.655 17.495-59.224-4.202-27.178-23.917-53.37-57.014-75.747-28.482-19.26-64.022-33.534-100.073-40.194a12.408 12.408 0 0 0-2.263-.209zm66.202 640.957c8.774 24.897 19.154 43.655 28.145 40.486s9.168-25.92.394-50.817-27.384-41.811-35.14-38.062c-10.101 4.883-2.173 23.496 6.601 48.392z" fill="#095ddb"/><path d="M340.979 782.202c-8.937 0-18.491-14.269-28.447-42.518-.846-2.401-1.684-4.743-2.499-7.021-8.116-22.679-13.98-39.065-2.831-44.454 1.619-.782 4.415-1.359 8.54.341 9.448 3.893 22.802 18.588 30.045 39.141 8.104 22.996 10.186 49.739-1.92 54.006a8.626 8.626 0 0 1-2.888.505zm-30.249-89.76c-.524 0-.98.09-1.353.27-7.103 3.434-1.602 18.806 5.363 38.268a1503.03 1503.03 0 0 1 2.508 7.043c11.038 31.319 20.129 40.666 24.957 38.959 6.585-2.32 7.739-22.451-1.134-47.628-6.684-18.965-19.02-32.795-27.235-36.18-1.177-.485-2.236-.731-3.107-.731z" fill="#095ddb"/><path d="M280.669 631.094c5.751 4.288-3.565 24.728-37.937 35.129-.011.011-.034.023-.046.011-80.662 25.022-107.638-36.238-75.157-72.543 7.571-8.481 16.609-13.153 20.52-24.203 6.378-18.088 13.563-22.26 21.93-18.701 14.995 6.389 16.655 29.342 4.059 40.222 6.709-.131 12.872-1.611 19.224-3.684.011-.011.034-.011.046-.022 6.241-2.069 12.437-4.661 19.236-6.867 30.796-10.037 39.734 5.932 17.11 25.181 15.874-7.115 40.371 1.911 11.016 25.477z" fill="#fff"/><path d="M281.942 637.29c-10.726 12.269-33.919 26.049-39.369 21.271-3.206-2.808 1.592-7.969 4.934-10.402 15.586-5.309 27.842-12.46 35.925-19.383a68.919 68.919 0 0 1-2.762 2.319c1.512 1.137 2.001 3.354 1.273 6.196zm-7.87-59.492c5.139 1.098 8.258 7.147 5.502 11.621-6.216 10.089-20.991 20.588-36.372 25.354-29.185 9.064-36.252-11.59-21.263-21.085 5.192-3.289 39.057-18.683 52.133-15.89zm13.032 26.291c13.592 4.706-5.99 27.298-31.894 36.486-23.858 8.445-34.364-5.68-20.483-16.034 6.074-4.531 29.468-15.979 37.019-19.298 5.138-2.259 10.937-2.684 15.358-1.153z" fill="#fff"/><path d="M208.206 674.353c-23.338 0-41.322-8.437-50.475-24.092a2.5 2.5 0 0 1 4.316-2.524c14.171 24.239 47.147 22.452 60.667 20.561 27.853-3.9 53.336-18.089 56.805-31.629.439-1.713.303-3.083-.354-3.577a2.498 2.498 0 0 1-.057-3.952c10.09-8.052 14.606-15.333 12.081-19.477-2.696-4.424-12.667-5.279-20.515-1.766a2.5 2.5 0 0 1-2.646-4.182c11.176-9.545 12.976-16.793 11.122-20.101-2.016-3.596-9.991-5.961-25.834-.802-3.547 1.152-6.968 2.425-10.277 3.656-9.454 3.517-18.385 6.838-28.955 7.039h-.048a2.5 2.5 0 0 1-1.633-4.391c5.753-4.97 8.539-13.105 7.27-21.233-1.089-6.978-4.98-12.37-10.675-14.797-2.712-1.152-5.057-1.261-7.17-.333-4.107 1.81-7.95 7.719-11.422 17.565-2.879 8.136-8.404 13.133-13.747 17.965-2.433 2.2-4.948 4.476-7.266 7.072-6.767 7.563-11.016 16.635-12.29 26.233a2.499 2.499 0 1 1-4.956-.659c1.407-10.598 6.081-20.594 13.518-28.907 2.494-2.794 5.111-5.16 7.641-7.448 5.328-4.819 9.93-8.981 12.386-15.922 4.06-11.514 8.547-18.021 14.122-20.476 3.397-1.497 7.146-1.392 11.144.308 7.319 3.118 12.296 9.907 13.656 18.626 1.171 7.505-.554 15.046-4.58 20.902 7.324-1.046 14.137-3.581 21.263-6.231 3.357-1.249 6.829-2.54 10.473-3.725 15.882-5.174 27.749-4.012 31.742 3.112 2.914 5.197.85 12.254-5.506 19.696 7.194-.729 14.343 1.094 17.453 6.195 2.272 3.728 3.676 11.761-11.36 24.451.787 1.735.893 3.94.264 6.396-3.994 15.591-30.769 31.114-60.956 35.34-5.276.739-10.357 1.104-15.203 1.104z" fill="#095ddb"/><path d="M212.727 593.561a47.59 47.59 0 0 1-10.435-1.145 2.5 2.5 0 1 1 1.09-4.879c13.926 3.11 25.995-1.386 37.666-5.735 3.702-1.379 7.199-2.682 10.771-3.763a2.499 2.499 0 1 1 1.448 4.785c-3.421 1.036-6.847 2.312-10.474 3.663-9.03 3.364-18.985 7.073-30.067 7.073zm25.74 59.861a2.5 2.5 0 0 1-.656-4.913c10.268-2.8 29.636-9.334 43.994-21.632 5.453-4.462 10.817-11.288 10.103-15.22a2.578 2.578 0 0 1-.039-.372c-.004-.024-.044-.308-.357-1.078l-.027-.066c-2.357-5.069-13.573-5.484-20.812-2.241a2.5 2.5 0 1 1-2.043-4.565c8.781-3.931 23.467-4.006 27.436 4.802.022.05.043.1.062.15.316.778.656 1.721.727 2.64 1.402 8.663-10.475 18.665-11.842 19.783-15.056 12.897-35.215 19.712-45.888 22.623-.22.06-.441.089-.659.089z" fill="#095ddb"/><path d="M228.202 626.49a2.502 2.502 0 0 1-.718-4.895c15.802-4.741 30.397-11.259 41.106-18.357a2.503 2.503 0 0 1 3.224.2 2.498 2.498 0 0 1 .075 3.534 2.852 2.852 0 0 1-.468.387c-11.114 7.381-26.207 14.137-42.501 19.025a2.5 2.5 0 0 1-.719.106z" fill="#095ddb"/><path d="M208.41 640.621c0 8.788-7.128 15.916-15.916 15.916-59.969 0-108.763-46.009-108.763-102.567 0-.227 0-.455.011-.682.137-21.191 7.128-40.87 18.986-57.172l.011-.012c19.611-26.978 52.534-44.701 89.755-44.701 8.788 0 15.916 7.128 15.916 15.916s-7.128 15.916-15.916 15.916c-19.542 0-37.414 6.741-50.988 17.814a73.768 73.768 0 0 0-6.582 6.048c-12.039 12.483-19.361 28.91-19.361 46.873 0 21.839 10.812 41.393 27.774 54.376a78.117 78.117 0 0 0 15.052 9.015c10.277 4.707 21.862 7.344 34.106 7.344 8.788 0 15.916 7.128 15.916 15.916z" fill="#fff"/><path d="M192.494 659.037c-.964 0-1.916-.012-2.869-.035-29.045-.697-56.271-11.927-76.66-31.619-20.464-19.764-31.734-45.836-31.734-73.413 0-5.422.439-10.854 1.306-16.149.01-.059.022-.118.036-.177 2.578-15.541 8.679-30.008 18.133-42.998.019-.027.039-.054.06-.079 20.821-28.595 55.104-45.663 91.728-45.663 10.155 0 18.416 8.262 18.416 18.416s-8.261 18.416-18.416 18.416c-18.224 0-35.771 6.127-49.408 17.252a71.689 71.689 0 0 0-6.362 5.844c-12.035 12.479-18.662 28.508-18.662 45.139 0 20.263 9.766 39.358 26.793 52.391a75.912 75.912 0 0 0 9.183 6.017l.032.014c.051.024.1.05.149.076 11.155 6.161 23.952 9.524 37.005 9.727.438.012.857.003 1.269.012 10.155 0 18.416 8.262 18.416 18.416s-8.261 18.416-18.416 18.416zM87.445 538.793a95.206 95.206 0 0 0-1.214 15.177c0 53.788 46.437 98.663 103.515 100.034.913.021 1.825.033 2.748.033 7.398 0 13.416-6.019 13.416-13.416s-6.018-13.416-13.416-13.416c-.455 0-.921 0-1.375-.013-13.801-.214-27.369-3.772-39.215-10.293a2.331 2.331 0 0 1-.119-.057 80.926 80.926 0 0 1-9.969-6.513c-18.272-13.985-28.753-34.528-28.753-56.36 0-17.932 7.125-35.194 20.061-48.607a76.537 76.537 0 0 1 6.803-6.251c14.526-11.85 33.195-18.376 52.567-18.376 7.398 0 13.416-6.019 13.416-13.416s-6.018-13.416-13.416-13.416c-35.057 0-67.855 16.325-87.733 43.671l-.061.08c-8.994 12.379-14.787 26.157-17.218 40.953-.01.063-.023.124-.038.186z" fill="#095ddb"/><path d="M208.41 467.319c0 8.788-7.128 15.916-15.916 15.916-19.542 0-37.414 6.741-50.988 17.814 8.083-11.391-28.717-17.042-38.767-4.945 19.611-26.978 52.534-44.701 89.755-44.701 8.788 0 15.916 7.128 15.916 15.916z" fill="#095ddb"/><path d="M141.507 503.55a2.5 2.5 0 0 1-2.039-3.946c.935-1.318 1.126-2.435-.809-3.921-6.688-5.141-27.43-5.886-33.997 2.02a2.5 2.5 0 0 1-3.946-3.067c20.816-28.636 55.125-45.731 91.777-45.731 10.155 0 18.416 8.262 18.416 18.416s-8.261 18.416-18.416 18.416c-18.224 0-35.771 6.127-49.408 17.252a2.495 2.495 0 0 1-1.58.563zm-18.943-16.769c7.667 0 15.138 1.86 19.141 4.937 1.468 1.128 2.476 2.413 3.011 3.782 13.731-9.558 30.474-14.765 47.778-14.765 7.398 0 13.416-6.019 13.416-13.416s-6.018-13.416-13.416-13.416c-30.69 0-59.647 12.511-79.722 33.974 3.124-.748 6.476-1.096 9.792-1.096z" fill="#095ddb"/><path d="M344.458 778.021c-4.57 6.446-13.517 7.969-19.963 3.388a14.121 14.121 0 0 1-4.115-4.514 14.3 14.3 0 0 1 .057-14.426l.068-.125c60.174-101.384 48.464-238.262-19.315-315.853-.023-.034-.046-.057-.068-.091-13.006-14.881-28.08-27.569-45.099-37.414-15.222-8.8-20.429-28.274-11.63-43.496 5.616-9.709 15.53-15.302 25.898-15.848 6.764-.364 13.722 1.433 19.804 5.628 0 0 32.173 25.556 46.077 42.018.637.75 1.262 1.5 1.887 2.262l.034.034c83.991 101.828 85.298 267.138 6.367 378.436z" fill="#a3c2f2"/><g fill="#095ddb"><path d="M307.309 456.33a2.5 2.5 0 0 1-2.471-2.141c-2.817-19.419-3.751-45.138 7.8-57.384 4.842-5.134 11.39-7.378 19.466-6.691a2.5 2.5 0 0 1-.428 4.982c-6.57-.573-11.606 1.117-15.401 5.14-10.718 11.362-8.666 38.23-6.489 53.234a2.5 2.5 0 0 1-2.477 2.859zm52.937 300.777a2.5 2.5 0 0 1-2.351-3.348c4.606-12.778 6.051-22.561 7.326-31.19.946-6.403 1.839-12.452 3.861-18.807.542-1.704 1.08-3.374 1.609-5.018 6.484-20.142 11.605-36.051 6.683-57.848-4.482-19.849.609-34.377 6-49.758 7.133-20.354 15.218-43.422 5.396-86.194a2.499 2.499 0 1 1 4.873-1.119c10.145 44.181 1.806 67.975-5.551 88.967-5.37 15.322-10.007 28.555-5.841 47.003 5.223 23.13-.083 39.613-6.801 60.481-.527 1.638-1.063 3.303-1.604 5.001-1.899 5.97-2.764 11.823-3.679 18.021-1.153 7.805-2.441 16.526-5.994 27.546-.124 1.061-.717 2.514-1.611 4.705a2.504 2.504 0 0 1-2.316 1.557z"/><path d="M354.928 566.344a2.495 2.495 0 0 1-2.5-2.494v-.012c0-.235.033-.47.099-.696 5.759-19.863-2.188-33.991-12.249-51.878-8.102-14.404-17.285-30.729-21.483-53.773-3.822-20.974-6.51-40.242 2.437-45.595 5.173-3.094 12.813-.515 23.356 7.888 13.677 10.899 31.334 31.233 39.877 55.617a2.5 2.5 0 1 1-4.719 1.653c-8.192-23.38-25.143-42.894-38.275-53.359-11.274-8.985-15.912-8.56-17.673-7.507-6.715 4.017-2.237 28.596-.084 40.407 4.049 22.219 13.013 38.157 20.922 52.219 10.205 18.144 19.019 33.816 12.71 55.663a2.505 2.505 0 0 1-2.418 1.868z"/><path d="M388.026 528.325a2.5 2.5 0 0 1-2.464-2.094c-4.84-29.354-24.344-62.885-35.501-77.125-5.058-6.455-12.986-11.865-15.424-10.51-.577.318-5.303 4.049 6.31 36.295a2.5 2.5 0 1 1-4.704 1.693c-12.003-33.33-8.046-40.141-4.025-42.364 7.138-3.946 18.398 7.485 21.78 11.802 11.462 14.63 31.507 49.122 36.499 79.396a2.5 2.5 0 0 1-2.47 2.906zm-29.597 115.899a2.5 2.5 0 0 1-.788-4.873c6.368-2.117 9.44-13.301 9.13-33.241l-.017-1.253c-.147-15.661 3.582-25.269 6.579-32.989 3.661-9.432 5.87-15.125-.616-26.264a2.5 2.5 0 1 1 4.32-2.516c7.698 13.219 4.723 20.884.957 30.589-2.842 7.321-6.378 16.433-6.24 31.133l.017 1.223c.143 9.221.524 33.717-12.552 38.063a2.502 2.502 0 0 1-.789.129zm-4.182 110.537a2.5 2.5 0 0 1-2.383-3.259c2.028-6.378 2.119-12.734 2.224-20.095.149-10.469.319-22.335 6.462-36.983 8.809-21.007 8.38-34.681 6.92-40.006-2.665 10.601-8.963 21.978-12.803 26.942a2.5 2.5 0 0 1-3.955-3.059c3.647-4.716 10.066-16.433 12.261-26.608.655-3.036 2.155-4.021 3.297-4.313.66-.165 2.364-.363 3.932 1.456 3.873 4.49 5.929 21.363-5.041 47.521-5.768 13.756-5.93 25.106-6.073 35.121-.106 7.434-.206 14.456-2.458 21.539a2.502 2.502 0 0 1-2.382 1.743zm41.403-94.559a2.497 2.497 0 0 1-2.437-1.933c-11.51-40.234-3.898-53.308 6.634-71.394l.384-.66a2.5 2.5 0 0 1 4.321 2.516l-.385.661c-10.289 17.668-17.085 29.34-6.114 67.616a2.502 2.502 0 0 1-2.403 3.193z"/><path d="M332.745 786.556a16.68 16.68 0 0 1-9.699-3.109c-7.072-5.008-9.166-14.781-4.764-22.247l.026-.052c20.072-33.822 32.894-73.373 37.124-114.457 10.307-100.093-30.147-194.749-100.663-235.54-16.391-9.476-22.018-30.52-12.543-46.911a34.432 34.432 0 0 1 22.201-16.309c9.465-2.12 19.084-.248 27.086 5.282.068.047.134.098.198.151l.449.361c10.136 8.138 35.06 28.714 47.775 44.173.031.034.061.068.083.095 27.989 33.934 47.976 76.549 57.801 123.239 18.885 89.747-.307 186.29-51.324 258.234a16.697 16.697 0 0 1-10.902 6.848c-.952.162-1.905.241-2.851.241zm-60.708-434.475c-2.162 0-4.342.24-6.514.728a29.419 29.419 0 0 0-18.968 13.934c-8.095 14.004-3.287 31.984 10.718 40.08 36.449 21.084 65.432 55.761 83.817 100.282 17.669 42.786 24.348 91.231 19.316 140.098-4.304 41.8-17.359 82.057-37.752 116.418l-.023.045c-3.134 5.317-1.663 12.183 3.308 15.703a11.73 11.73 0 0 0 8.82 2.017 11.726 11.726 0 0 0 7.659-4.811c50.232-70.829 69.114-165.899 50.509-254.313-9.653-45.875-29.264-87.723-56.715-121.025a2.043 2.043 0 0 1-.088-.1c-12.75-15.528-39.27-37.23-47.094-43.512l-.424-.344c-4.989-3.429-10.708-5.2-16.57-5.2z"/><path d="M338.057 399.551c-18.576-19.053-55.49 23.795-36.937 46.85-13.006-14.881-28.08-27.569-45.099-37.414-15.222-8.8-20.429-28.274-11.63-43.496 9.288-16.053 30.32-20.85 45.702-10.22.729.67 32.845 25.866 47.964 44.28z"/><path d="M301.122 448.9c-.697 0-1.39-.29-1.883-.854-13.103-14.992-28.064-27.405-44.468-36.895-16.391-9.476-22.018-30.52-12.543-46.911a34.432 34.432 0 0 1 22.201-16.309c9.465-2.12 19.084-.248 27.086 5.282.095.065.186.138.271.217.081.068.456.369 1.051.85 21.87 17.645 38.175 32.75 47.153 43.684a2.5 2.5 0 0 1-3.722 3.332c-7.18-7.364-17.223-3.353-24.229 2.855-11.708 10.376-18.467 28.881-8.969 40.682a2.499 2.499 0 0 1-1.947 4.067zm-29.084-96.818c-2.162 0-4.342.24-6.514.729a29.414 29.414 0 0 0-18.968 13.933c-8.095 14.004-3.287 31.984 10.718 40.08 13.154 7.608 25.399 17.037 36.535 28.118-1.399-12.243 5.197-25.921 14.913-34.532 6.433-5.702 13.294-8.431 19.473-8.035-9.279-9.531-22.538-21.326-38.497-34.202-.522-.421-.897-.727-1.109-.902-4.984-3.42-10.697-5.188-16.551-5.188z"/></g><path d="M401.155 538.917 266.439 653.101a4 4 0 0 1-5.698-.546l-72.062-90.09a3.908 3.908 0 0 1-.854-2.861 3.964 3.964 0 0 1 1.755-2.948l147.599-98.231a4.003 4.003 0 0 1 5.248.873l5.965 7.467 53.294 66.615a4.005 4.005 0 0 1-.531 5.537z" fill="#fff"/><path d="M350.264 469.11c.031.038.032.04 0 0zm0 0c.055-.144.056-.147 0 0z" fill="#fff"/><path d="M263.974 656.542a2.5 2.5 0 0 1-2.331-3.403l42.198-109.077a2.5 2.5 0 0 1 2.114-1.588l96.259-8.402c1.169-.12 2.306.585 2.664 1.749a2.495 2.495 0 0 1-1.648 3.123l-.013.004a2.46 2.46 0 0 1-.518.101l-94.757 8.271-41.636 107.624a2.501 2.501 0 0 1-2.332 1.599z" fill="#095ddb"/><path d="M263.869 656.548a6.451 6.451 0 0 1-5.076-2.425l-72.063-90.092a6.407 6.407 0 0 1-1.393-4.678 6.413 6.413 0 0 1 2.859-4.779l6.165-4.095 141.432-94.136c2.47-1.569 5.567-1.344 7.752.53.233.205.551.498.855.889l7.818 9.788 51.42 64.268a6.474 6.474 0 0 1-.862 9.001l-.005.005-133.393 113.054-1.316 1.124a6.451 6.451 0 0 1-4.193 1.546zm75.45-196.246c-.275 0-.553.076-.8.233L197.13 554.643l-6.167 4.096a1.454 1.454 0 0 0-.648 1.087c-.03.293.004.688.313 1.073l8.055 10.066 64.01 80.028c.25.312.614.507 1.02.546.406.035.8-.085 1.112-.348l1.313-1.122 133.396-113.056c.608-.519.697-1.45.197-2.077l-59.257-74.079a1.585 1.585 0 0 0-.206-.208 1.46 1.46 0 0 0-.949-.349z" fill="#095ddb"/><path d="m353.594 564.838-34.595 28.881-9.959-12.463 34.74-28.681z" fill="#a3c2f2"/><path d="M349.745 459.224a1.331 1.331 0 0 1 .873 1.757l-2.226 5.783-30.857 80.032a5.325 5.325 0 0 1-4.418 3.381l-114.871 11.931a6.653 6.653 0 0 1-2.534-.226l-7.886-2.277a3.964 3.964 0 0 1 1.755-2.948l147.599-98.231.387-.263a6.65 6.65 0 0 1 5.542-.854l6.637 1.917z" fill="#fff"/><path d="m340.538 533.717-16.303-2.98.136-1.115-8.522-4.341-1.53-1.475 25.535-2.057 1.126 11.085z" fill="#fff"/><path d="M196.956 564.741c-.234 0-.468-.033-.694-.098l-9.131-2.637a2.502 2.502 0 0 1-1.797-2.624 6.435 6.435 0 0 1 2.862-4.809l2.28-1.522 145.682-96.957a9.159 9.159 0 0 1 7.648-1.188l6.632 1.922a3.82 3.82 0 0 1 2.514 5.04l-.005.012-2.224 5.781-30.86 80.041a7.804 7.804 0 0 1-6.485 4.961l-116.166 12.063a2.478 2.478 0 0 1-.258.014zm-5.125-6.582 5.351 1.545 115.681-12.013a2.823 2.823 0 0 0 2.341-1.798l1.018-2.628 31.602-81.988-5.411-1.568a4.159 4.159 0 0 0-3.465.535l-.362.247zm157.217-96.527.012.004z" fill="#095ddb"/><path d="m340.98 532.834-26.661-9.028 5.05-11.652 21.622 7.321 2.482.841z" fill="#a3c2f2"/><path d="M340.98 535.334a2.51 2.51 0 0 1-.802-.132l-26.661-9.027a2.5 2.5 0 0 1-1.492-3.362l5.05-11.652a2.5 2.5 0 0 1 3.096-1.374l24.104 8.161a2.5 2.5 0 0 1 1.651 2.856l-2.493 12.519a2.504 2.504 0 0 1-2.451 2.012zm-23.287-13.024 21.392 7.243 1.508-7.573-19.845-6.719z" fill="#095ddb"/><path d="M280.669 631.094c5.751 4.288-3.565 24.728-37.937 35.129-.011.011-.034.023-.046.011-60.861 18.88-92.571-11.298-88.061-44.974 3.118-23.498 20.14-33.61 27.046-41.313 17.672 12.777 32.742 13.51 51.59 7.378.011-.011.034-.011.046-.022 6.241-2.069 12.437-4.661 19.236-6.867 30.798-10.039 39.733 5.934 17.11 25.181 15.87-7.117 40.37 1.91 11.016 25.477z" fill="#fff"/><path d="M154.629 623.761a2.5 2.5 0 0 1-2.481-2.829c2.593-19.535 14.548-30.429 22.46-37.638 2.069-1.886 3.857-3.514 5.203-5.016a2.5 2.5 0 1 1 3.722 3.338c-1.515 1.689-3.389 3.396-5.558 5.374-7.815 7.12-18.518 16.873-20.871 34.6a2.5 2.5 0 0 1-2.475 2.171zm52.939 50.534c-23.042.002-40.634-8.291-49.837-24.033a2.5 2.5 0 0 1 4.316-2.524c11.088 18.965 36.242 25.856 69.014 18.916 32.187-6.821 46.65-21.847 48.518-30.282.348-1.57.19-2.826-.413-3.279a2.498 2.498 0 0 1-.057-3.952c10.09-8.052 14.606-15.333 12.081-19.477-2.696-4.424-12.667-5.279-20.515-1.766a2.5 2.5 0 0 1-2.585-4.233c7.032-5.633 9.51-12.314 6.468-17.438-2.817-4.744-10.605-7.857-21.05-3.486a2.239 2.239 0 0 1-.193.072c-2.921.948-6.036 2.099-9.334 3.316-8.496 3.137-17.281 6.381-24.974 7.05a2.496 2.496 0 0 1-2.707-2.273 2.5 2.5 0 0 1 2.274-2.707c7.024-.611 15.489-3.737 23.675-6.76 3.31-1.223 6.439-2.378 9.426-3.351 13.154-5.459 23.307-.942 27.183 5.586 2.474 4.166 3.081 10.602-1.376 17.249 7.369-.875 14.793.911 17.978 6.138 2.273 3.729 3.675 11.765-11.367 24.457.73 1.627.87 3.668.369 5.934-2.574 11.621-20.058 27.246-52.363 34.092-8.698 1.844-16.914 2.75-24.53 2.75z" fill="#095ddb"/><path d="M212.593 593.585c-4.538 0-9.263-.635-14.239-2.178a2.5 2.5 0 1 1 1.481-4.775c15.141 4.696 28.253-.117 40.933-4.771 3.612-1.326 7.347-2.697 11.052-3.817a2.5 2.5 0 0 1 1.446 4.787c-3.564 1.077-7.067 2.362-10.775 3.724-9.464 3.474-19.155 7.031-29.899 7.031zm25.874 59.837a2.5 2.5 0 0 1-.656-4.913c10.268-2.8 29.636-9.334 43.994-21.632 5.453-4.462 10.817-11.288 10.103-15.22a2.578 2.578 0 0 1-.039-.372c-.004-.024-.044-.308-.357-1.078l-.027-.066c-2.357-5.069-13.573-5.484-20.812-2.241a2.5 2.5 0 1 1-2.043-4.565c8.781-3.931 23.467-4.006 27.436 4.802.022.05.043.1.062.15.316.778.656 1.721.727 2.64 1.402 8.663-10.475 18.665-11.842 19.783-15.056 12.897-35.215 19.712-45.888 22.623-.22.06-.441.089-.659.089z" fill="#095ddb"/><path d="M228.202 626.49a2.502 2.502 0 0 1-.718-4.895c15.802-4.741 30.397-11.259 41.106-18.357a2.503 2.503 0 0 1 3.224.2 2.498 2.498 0 0 1 .075 3.534 2.852 2.852 0 0 1-.468.387c-11.114 7.381-26.207 14.137-42.501 19.025a2.5 2.5 0 0 1-.719.106zm109.473-308.304h-.077a2.501 2.501 0 0 1-2.424-2.574l1.114-37.062c.041-1.38 1.195-2.501 2.574-2.424a2.501 2.501 0 0 1 2.424 2.574l-1.114 37.062a2.5 2.5 0 0 1-2.497 2.425z" fill="#095ddb"/><path d="m238.037 489.658-143.926-6.992-78.455-86.878c-.182-.205-.375-.41-.534-.626-2.035-2.342-3.729-4.968-5.104-7.776a39.77 39.77 0 0 1-2.069-5.036 43.166 43.166 0 0 1-1.887-8.14c-1.364-10.141.75-20.781 6.696-28.739 20.032-26.818 69.075-22.214 108.479 15.461a142.689 142.689 0 0 1 7.31 7.503c.284.295.546.602.819.898l3.524 3.9 6.821 7.56 98.327 108.866z" fill="#a3c2f2"/><path d="M238.038 492.158c-.041 0-.081 0-.122-.003L93.99 485.164a2.502 2.502 0 0 1-1.734-.821l-78.455-86.879C1.365 383.701-.382 360.245 9.909 345.175c.259-.39.547-.802.847-1.202 1.157-1.547 2.407-3 3.716-4.32 19.225-19.549 55.8-17.972 88.938 3.845a130.488 130.488 0 0 1 8.245 5.871c6.915 5.349 13.499 11.504 19.574 18.299l108.664 120.315a2.501 2.501 0 0 1-1.855 4.176zM95.27 480.22l136.879 6.648-104.64-115.86c-5.88-6.577-12.24-12.523-18.91-17.683a125.017 125.017 0 0 0-7.931-5.647c-31.125-20.491-65.104-22.345-82.638-4.514a36.425 36.425 0 0 0-3.271 3.804c-.246.328-.481.666-.706 1.003-9.082 13.3-7.523 33.988 3.458 46.141z" fill="#095ddb"/><path d="m95.108 473.137-72.417-80.186c-9.716-10.758-10.82-29.355-2.412-40.611 6.696-8.964 17.873-13.9 31.469-13.9 23.298 0 49.501 13.738 70.095 36.749l93.749 103.801-120.485-5.853z" fill="#095ddb"/><path d="M215.594 481.489c-.041 0-.081 0-.122-.003l-120.485-5.853a2.502 2.502 0 0 1-1.734-.821l-72.417-80.185c-10.462-11.585-11.634-31.635-2.559-43.783 7.181-9.611 19.068-14.904 33.472-14.904 23.997 0 50.897 14.049 71.958 37.582l93.741 103.792a2.501 2.501 0 0 1-1.855 4.176zM96.268 470.69l113.438 5.51-89.716-99.336c-20.135-22.498-45.643-35.925-68.24-35.925-12.788 0-23.253 4.58-29.467 12.896-7.741 10.363-6.704 27.509 2.265 37.439l71.72 79.415z" fill="#095ddb"/><path d="m156.869 413.972-61.76 59.168-72.414-80.19c-9.724-10.763-10.827-29.354-2.42-40.609 6.704-8.963 17.873-13.9 31.474-13.9 23.303 0 49.497 13.739 70.091 36.742z" fill="#095ddb"/><path d="M95.11 475.64c-.03 0-.06 0-.09-.002a2.499 2.499 0 0 1-1.765-.822l-72.415-80.19c-10.465-11.583-11.641-31.633-2.568-43.781 7.189-9.611 19.077-14.903 33.477-14.903 23.991 0 50.89 14.047 71.954 37.574l35.022 38.781a2.5 2.5 0 0 1-.126 3.481l-61.76 59.168a2.501 2.501 0 0 1-1.729.694zM51.749 340.941c-12.785 0-23.252 4.58-29.472 12.896-7.739 10.362-6.698 27.506 2.273 37.437l70.69 78.279 58.147-55.707-33.403-36.987c-20.137-22.494-45.643-35.918-68.236-35.918z" fill="#095ddb"/><path d="m158.519 415.792-28.518 26.377a4.276 4.276 0 0 1-5.815 0c-89.131-83.12-86.796-78.742-86.893-82.096a4.279 4.279 0 0 1 1.81-3.673l23.988-16.931c18.181 3.203 39.958 14.724 58.75 35.714l36.679 40.609z" fill="#fff"/><path d="M127.094 445.801a6.76 6.76 0 0 1-4.609-1.798c-19.697-18.224-34.955-32.314-46.768-43.224-20.24-18.691-30.4-28.073-35.439-32.896-4.707-4.505-6.066-5.806-5.493-7.956-.131-3.643.55-4.116 12.372-12.338 3.502-2.436 8.297-5.771 14.489-10.159a2.496 2.496 0 0 1 1.879-.422c20.743 3.653 42.678 16.96 60.179 36.508l36.671 40.602c.219.242.381.515.488.803.105.265.175.579.156.931a2.49 2.49 0 0 1-.802 1.777l-.179.165-.19.176-.018.018-.76.703-19.606 18.134-7.765 7.182a6.753 6.753 0 0 1-4.604 1.796zm-87.31-85.484c1.904 2.232 11.618 11.203 39.325 36.79 11.814 10.91 27.073 25.001 46.774 43.229.68.631 1.74.63 2.417.003l26.708-24.703-35.022-38.775c-16.486-18.414-36.949-31.023-56.311-34.74a1851.838 1851.838 0 0 1-13.664 9.574c-6.142 4.272-9.85 6.851-10.239 7.646-.006.063.009.416.018.628.004.124.001.24-.005.349z" fill="#095ddb"/><path d="M127.581 445.784a2.5 2.5 0 0 1-2.388-3.241l14.243-45.975a2.497 2.497 0 0 1 3.128-1.647 2.5 2.5 0 0 1 1.648 3.128l-14.243 45.975a2.501 2.501 0 0 1-2.387 1.761z" fill="#095ddb"/><path d="M97.894 354.205c-60.017 10.368-43.092 9.614-60.603 5.869a4.279 4.279 0 0 1 1.81-3.673l23.988-16.931c12.403 2.207 24.431 7.762 34.805 14.735z" fill="#fff"/><path d="M48.967 365.119c-2.05 0-3.51-.379-5.911-1.042a100.104 100.104 0 0 0-6.287-1.56 2.498 2.498 0 0 1-1.975-2.345c-.155-3.914 1.697-5.171 8.589-9.845a513.762 513.762 0 0 0 18.223-12.87 2.508 2.508 0 0 1 1.918-.45c14.862 2.617 27.653 9.668 35.766 15.122a2.502 2.502 0 0 1-.969 4.539 2305.28 2305.28 0 0 0-32.733 5.894c-9.625 1.795-13.715 2.557-16.621 2.557zm-8.194-6.813c1.493.365 2.665.689 3.615.952q4.69 1.296 20.283-1.61a2349.12 2349.12 0 0 1 26.393-4.791c-7.232-4.256-16.732-8.688-27.362-10.732a516.485 516.485 0 0 1-17.512 12.343c-2.956 2.005-4.555 3.122-5.416 3.839z" fill="#095ddb"/><path d="M189.978 476.445c-.226-.226-77.342-71.564-77.094-71.316-6.895-6.895-12.754-10.501-13.227-13.836-.09-.18-.248-1.082-.248-1.578-.09-.179.068-2.207.226-2.366.068-.226.18-.608.226-.721 0-1.894 6.58-6.603 18.365-14.782 36.94 40.836 86.601 95.846 86.831 96.1 0 0-13.364 10.099-15.077 8.499z" fill="#fff"/><path d="M189.979 478.945a2.498 2.498 0 0 1-1.698-.665c-9.005-8.331-18.976-17.48-28.619-26.329-48.316-44.334-60.386-55.815-62.223-59.552l-.019.009c-.523-1.049-1.018-2.04 5.147-9.439 2.973-3.567 7.855-8.75 14.232-13.176a2.5 2.5 0 0 1 3.28.377l24.72 27.333 62.112 68.768a2.5 2.5 0 0 1-.628 3.853l-15.077 8.499a2.49 2.49 0 0 1-1.227.322zm-87.404-87.694c4.875 6.007 34.319 33.023 60.467 57.016 9.172 8.416 18.641 17.104 27.296 25.106l10.768-6.07-60.017-66.447-23.216-25.671c-8.016 6.025-13.461 13.282-15.298 16.066zm-.545-.743a2.427 2.427 0 0 0-.001 0zm-.133-.324.002.005zm-.003-.006.003.005z" fill="#095ddb"/><path d="M136.432 391.969c-9.983 1.939-16.608 3.156-18.771 2.051-.834-.157-18.275-4.439-18.275-4.439 0-.045-.36-2.659 1.059-4.147 1.961-2.073 6.31-6.061 16.653-14.849l.157.18 12.664 13.993 6.467 7.166.045.044z" fill="#fff"/><path d="M121.051 396.884c-.791 0-1.516-.058-2.323-.157-.663-.1-1.139-.17-1.504-.249v.003c-.504-.09-1.878-.429-4.937-1.188-3.44-.854-8.152-2.023-13.474-3.277a2.501 2.501 0 0 1-1.925-2.339c-.007-.188-.034-.345-.055-.49-.162-1.095-.218-2.306.964-4.029.045-.077.095-.152.149-.225 1.614-2.165 7.001-7.186 17.468-16.279a2.5 2.5 0 0 1 3.494.211l19.334 21.385a2.501 2.501 0 0 1-1.387 4.133c-9.756 1.856-13.152 2.503-15.803 2.503zm-2.786-5.29c.308.056 1.136.178 1.14.179 2.259.277 3.499.153 12.141-1.475l-14.702-16.261c-8.236 7.192-13.17 11.77-14.692 13.631a1236.45 1236.45 0 0 1 11.339 2.771c2.28.566 4.249 1.055 4.609 1.119.056.01.111.021.165.035zm270.542-89.427h-.075l-101.006-3.029-.182-.005c-.012-.002-.025 0-.038 0a2.506 2.506 0 0 1-1.781-.823l-55.592-61.572c-5.789-6.406-8.635-15.569-7.612-24.511 1.001-8.756 5.58-16.382 12.893-21.474.183-.127.382-.229.592-.305 11.634-4.128 25.699-7.742 41.811-3.234l.111.033c11.924 3.938 23.697 11.354 34.044 21.446.037.036.073.074.108.112 13.448 14.854 24.596 27.154 33.837 37.35q45.456 50.148 45.39 53.232c-.001.067-.004.139-.002.217a2.501 2.501 0 0 1-2.499 2.565zm-100.085-8.002 96.09 2.881c-3.759-4.685-15.149-17.251-42.599-47.535-9.23-10.183-20.361-22.463-33.786-37.293-9.777-9.521-20.844-16.508-32.01-20.206-14.599-4.067-27.596-.781-38.414 3.033-5.96 4.258-9.689 10.548-10.512 17.748-.862 7.535 1.513 15.233 6.354 20.591l54.878 60.781z" fill="#095ddb"/><path d="M387.26 303.453c-44.644 47.032-107.751 126.691-149.212 186.194-.011 0-.011.012-.011.012-168.525-186.584 13.246 14.667-108.672-120.325-34.344-38.38-78.852-49.453-104.67-34.469 48.816-41.859 175.121-128.919 212.115-142.05.011 0 .023-.012.034-.012 26.328-9.343 48.388-7.053 73.384 17.678 23.903 23.656 21.68 21.655 77.181 85.321 1.964 2.362 1.842 5.508-.148 7.651z" fill="#fff"/><path d="M387.26 303.453c-44.644 47.032-107.751 126.691-149.212 186.194l-6.787-7.492c38.534-53.289 111.577-145.113 154.76-187.945 1.104 1.27 2.661 2.734 2.762 4.854.114 1.594-.312 3.084-1.523 4.388z" fill="#fff"/><path d="M387.682 302.907a5.261 5.261 0 0 1-.625.796c-44.644 47.031-107.751 126.691-149.212 186.194-.011 0-.011.012-.011.012l-6.776-7.503-63.561-70.371-38.335-42.451c-28.899-32.298-64.994-45.258-91.096-39.619-4.911 1.057-9.481 2.774-13.574 5.15 48.816-41.859 175.121-128.919 212.114-142.05 20.554-7.299 44.508-10.948 73.418 17.667 22.055 21.828 20.896 20.6 75.794 83.729l1.387 1.592c1.694 1.955 1.853 4.763.477 6.855z" fill="#fff"/><path d="m147.968 333.216-10.345 9.801c-32.369-13.446-75.54-33.925-100.775-18.235 5.489-4.433 11.534-9.167 18.001-14.123 29.881-.578 58.805 6.667 93.119 22.558z" fill="#095ddb"/><path d="M137.623 345.516c-.323 0-.649-.063-.958-.191a1583.616 1583.616 0 0 1-7.955-3.337c-30.483-12.847-68.419-28.837-90.542-15.083a2.5 2.5 0 0 1-2.891-4.069c5.295-4.276 11.369-9.042 18.052-14.163a2.507 2.507 0 0 1 1.472-.516c29.884-.57 58.938 6.452 94.218 22.79a2.503 2.503 0 0 1 .669 4.084l-10.345 9.8a2.501 2.501 0 0 1-1.72.685zm-78.385-28.878c22.202 0 48.791 11.207 71.414 20.742 2.182.92 4.329 1.824 6.432 2.703l6.476-6.134c-32.728-14.764-59.995-21.198-87.843-20.807-1.849 1.419-3.65 2.811-5.399 4.17 2.876-.462 5.855-.675 8.92-.675z" fill="#095ddb"/><path d="M238.032 492.163a2.5 2.5 0 0 1-1.863-.832l-6.761-7.505-101.896-112.819c-20.44-22.852-45.979-37.332-70.077-39.737-12.026-1.201-22.915.792-31.491 5.755a2.5 2.5 0 0 1-2.874-4.067 539.036 539.036 0 0 1 12.211-10.124c5.292-4.273 11.365-9.039 18.048-14.16 61.366-46.988 152.514-107.527 182.645-118.215 20.951-7.44 46.365-11.091 76.012 18.247.643.633 1.27 1.254 1.88 1.858.622.615 1.225 1.213 1.813 1.791 6.932 6.877 11.699 11.688 17.056 17.437 7.892 8.479 17.165 19.13 37.481 42.465 5.49 6.305 11.786 13.537 19.079 21.902a8.194 8.194 0 0 1-.22 11.014l-.006.007c-41.213 43.407-102.882 120.182-146.635 182.552-.376.543-.764 1.096-1.151 1.647a300.65 300.65 0 0 0-1.185 1.697 2.512 2.512 0 0 1-.308.364 2.488 2.488 0 0 1-1.758.723zM50.744 325.93c2.351 0 4.748.121 7.187.364 25.327 2.527 52.043 17.606 73.299 41.369l106.559 117.988.544-.78c43.882-62.554 105.745-139.566 147.105-183.131a3.203 3.203 0 0 0 .082-4.304c-7.288-8.359-13.585-15.592-19.075-21.897-20.279-23.292-29.535-33.923-37.369-42.341-5.3-5.687-10.031-10.462-16.91-17.284-.585-.575-1.193-1.178-1.821-1.8-.605-.599-1.228-1.216-1.872-1.85-27.613-27.325-50.359-24.362-70.828-17.095-29.707 10.537-120.207 70.711-181.277 117.473-6.648 5.095-12.688 9.833-17.95 14.084l-.669.539c4.112-.887 8.463-1.336 12.995-1.336z" fill="#095ddb"/><path d="M66.509 279.286c3.784-.841 4.453.492 1.473 2.97-7.504 6.239-20.178 16.78-20.196 16.795-3.796 3.154-8.144 6.764-13.125 10.909-8.866-.574-17.968-.703-27.488-.446-3.772.101-4.441-1.71-1.483-4.051l8.554-6.771h.011a88535.97 88535.97 0 0 0 27.655-21.881c.888-.703 2.249-.61 3.037.203 1.852 1.909 3.803 3.991 5.624 5.78 4.854-1.029 10.182-2.228 15.938-3.507z" fill="#a3c2f2"/><path d="M34.661 312.46a2.92 2.92 0 0 1-.162-.005c-8.631-.56-17.548-.705-27.26-.443-3.835.088-5.206-1.443-5.683-2.759-.477-1.313-.416-3.378 2.582-5.751l8.553-6.771c.043-.035.088-.067.133-.099a59374.95 59374.95 0 0 0 27.532-21.783c1.895-1.501 4.699-1.315 6.385.423.579.597 1.169 1.211 1.761 1.828.952.992 1.928 2.01 2.873 2.965 3.487-.748 7.209-1.577 11.149-2.454l3.441-.766c3.162-.703 5.201-.171 6.062 1.582.859 1.751.035 3.686-2.448 5.75l-17.725 14.74-2.495 2.074-1.457 1.211c-3.435 2.854-7.298 6.063-11.643 9.679a2.504 2.504 0 0 1-1.599.578zm-18.312-5.574c6.041 0 11.82.172 17.476.517 4.037-3.358 7.649-6.359 10.883-9.045l19.144-15.919-.241.054c-4.461.993-8.643 1.924-12.522 2.746a2.502 2.502 0 0 1-2.271-.662c-1.281-1.259-2.625-2.659-3.924-4.014a455.22 455.22 0 0 0-1.599-1.661c-4.477 3.546-16.642 13.17-27.49 21.749a3.22 3.22 0 0 1-.132.098l-7.894 6.248c2.921-.073 5.774-.11 8.57-.11z" fill="#095ddb"/><path d="m238.037 489.658-143.926-6.991-6.764-7.493 143.607 6.64z" fill="#fff"/><path d="M238.037 492.158c-.041 0-.081 0-.122-.003l-143.926-6.991a2.5 2.5 0 0 1-1.734-.821l-6.764-7.492a2.5 2.5 0 0 1-.405-2.743 2.485 2.485 0 0 1 2.376-1.43l143.607 6.64c.667.03 1.293.326 1.74.821l7.083 7.844a2.501 2.501 0 0 1-1.855 4.176zM95.27 480.22l136.88 6.648-2.353-2.605-136.578-6.314z" fill="#095ddb"/><path d="M345.333 284.751a20.122 20.122 0 0 1-4.286 5.457c-12.596 11.334-37.073 4.661-54.694-14.905-17.61-19.554-21.691-44.61-9.095-55.945l.261-.227c12.653-11.016 36.936-4.309 54.432 15.12 15.166 16.86 20.304 37.778 13.381 50.499z" fill="#fff"/><ellipse cx="242.727" cy="316.118" fill="#fff" rx="35.07" ry="54.49" transform="matrix(.74314483 -.66913061 .66913061 .74314483 -149.179 243.612)"/><ellipse cx="311.425" cy="250.234" fill="#fff" rx="30.678" ry="47.666" transform="matrix(.74314483 -.66913061 .66913061 .74314483 -87.448 272.658)"/><ellipse cx="313.7" cy="234.878" fill="#095ddb" rx="15.769" ry="32.071" transform="matrix(.6614035 -.75003027 .75003027 .6614035 -69.949 314.81)"/><path d="M329.654 261.635c-7.991 0-18.479-4.626-28.037-13.055-6.706-5.914-11.895-12.798-14.612-19.385-2.956-7.168-2.684-13.271.766-17.182 3.45-3.912 9.47-4.946 16.951-2.909 6.875 1.871 14.354 6.158 21.061 12.072 14.54 12.821 20.621 28.884 13.846 36.567-2.322 2.633-5.81 3.891-9.976 3.891zm-31.889-48.544c-2.771 0-4.942.753-6.243 2.229-2.091 2.371-2.052 6.733.106 11.969 2.43 5.894 7.152 12.123 13.296 17.541 13.071 11.526 26.804 14.313 30.955 9.607 4.151-4.708-.333-17.985-13.403-29.511-6.144-5.418-12.915-9.323-19.066-10.998-2.063-.561-3.964-.838-5.645-.838z" fill="#095ddb"/><path d="M327.724 293.613c-13.087 0-28.691-7.566-40.955-21.184-8.835-9.811-14.69-21.291-16.485-32.326-1.861-11.438.83-21.08 7.575-27.15l.294-.256c13.867-12.071 39.313-5.338 57.93 15.335 15.686 17.438 21.327 39.379 13.721 53.362a22.727 22.727 0 0 1-4.816 6.129c-4.586 4.126-10.599 6.09-17.265 6.09zm-32.479-81.847c-5.357 0-10.146 1.514-13.81 4.704l-.261.226c-5.407 4.866-7.532 12.903-5.954 22.604 1.643 10.1 7.064 20.677 15.265 29.783 16.667 18.505 39.619 25.106 51.164 14.719a17.74 17.74 0 0 0 3.76-4.789l.003-.005c6.51-11.961 1.024-31.993-13.043-47.632-11.278-12.523-25.531-19.61-37.122-19.61z" fill="#095ddb"/><path d="M286.069 346.323a23.065 23.065 0 0 1-4.604 5.741c-14.393 12.96-42.393 5.331-62.527-17.031-20.111-22.327-24.783-50.92-10.459-63.903l.057-.057c14.393-12.96 42.393-5.332 62.527 17.03 17.542 19.486 23.34 43.723 15.007 58.218z" fill="#fff"/><ellipse cx="246.113" cy="295.508" fill="#095ddb" rx="20.676" ry="38.052" transform="matrix(.6614035 -.75003027 .75003027 .6614035 -138.307 284.647)"/><path d="M263.219 327.596c-9.557 0-21.607-5.157-32.435-14.705-17.055-15.041-23.681-34.457-15.086-44.204 8.595-9.749 28.688-5.603 45.744 9.438 17.055 15.039 23.681 34.456 15.086 44.204-3.139 3.56-7.812 5.267-13.309 5.267zm-34.304-59.158c-4.015 0-7.338 1.142-9.466 3.556-6.516 7.39.189 24.401 14.643 37.147 14.454 12.745 32.17 17.271 38.686 9.882 6.516-7.391-.189-24.401-14.643-37.147-9.732-8.582-20.945-13.438-29.22-13.438z" fill="#095ddb"/><ellipse cx="235.405" cy="277.291" fill="#fff" rx="6.894" ry="11.028" transform="matrix(.63251609 -.77454722 .77454722 .63251609 -128.268 284.232)"/><ellipse cx="305.057" cy="221.335" fill="#fff" rx="6.894" ry="11.028" transform="matrix(.63251609 -.77454722 .77454722 .63251609 -59.331 317.618)"/><path d="M182.229 294.707c-1.18 0-2.23-.839-2.455-2.042-2.408-12.917-.11-24.884 6.647-34.606 3.083-4.436 6.974-8.204 11.566-11.201a2.5 2.5 0 1 1 2.732 4.188c-4.05 2.643-7.479 5.963-10.193 9.867-5.977 8.6-7.996 19.263-5.838 30.837a2.5 2.5 0 0 1-2.46 2.958zm81.382 66.104c-14.853 0-32.583-8.612-46.53-24.102-21.027-23.353-25.609-53.629-10.214-67.491s45.027-6.14 66.054 17.213c10.056 11.169 16.718 24.23 18.758 36.778 2.105 12.949-.929 23.856-8.544 30.713-5.184 4.668-11.984 6.889-19.524 6.889zm-37.08-93.592c-6.347 0-12.014 1.84-16.318 5.714-13.346 12.018-8.598 39.127 10.584 60.431s45.646 28.857 58.992 16.844c6.308-5.68 8.778-14.982 6.955-26.195-1.888-11.613-8.117-23.771-17.539-34.235-12.997-14.435-29.337-22.558-42.674-22.558zm72.801-63.721a2.49 2.49 0 0 1-1.488-.492c-8.836-6.558-24.531-7.395-33.588-1.794a2.5 2.5 0 1 1-2.63-4.252c10.779-6.667 28.73-5.738 39.197 2.03a2.5 2.5 0 0 1-1.492 4.508z" fill="#095ddb"/><path d="m241.788 483.678-3.752 5.98-145.335-16.064-15.234-10.652-2.751-1.921-7.458-5.219-64.687-45.224c.136-.568.648-3.933 2.706-7.663 5.525-10.004 9.902-17.871 19.577-20.77 20.975-6.287 52.932-2.865 82.183 10.38 2.762 1.25 5.502 2.58 8.208 4.025a95.324 95.324 0 0 1 3.684 2.001 140.411 140.411 0 0 1 10.88 6.798l111.332 75.237a2.27 2.27 0 0 1 .648 3.092z" fill="#a3c2f2"/><path d="M238.037 492.158c-.091 0-.183-.005-.275-.015L92.427 476.078a2.486 2.486 0 0 1-1.158-.436l-90.13-63.014a2.5 2.5 0 0 1-.999-2.631l.043-.211c.221-1.097.895-4.435 2.905-8.078 5.558-10.063 10.358-18.754 21.048-21.957 22.206-6.656 55.151-2.535 83.932 10.497 8.216 3.711 16.009 8.1 23.162 13.044l111.31 75.223c2.152 1.475 2.743 4.323 1.362 6.498l-3.748 5.974a2.5 2.5 0 0 1-2.117 1.172zM93.61 471.179l143.142 15.822 2.803-4.469-111.147-75.112c-6.927-4.788-14.456-9.027-22.4-12.616-27.748-12.564-59.32-16.591-80.436-10.264-8.736 2.618-12.666 9.734-18.106 19.585-1.144 2.072-1.761 4.048-2.093 5.362l88.238 61.691z" fill="#095ddb"/><path d="m238.037 489.658-.568-.023-134.808-6.23-8.799-.41-2.41-.114-79.047-54.158c-12.016-8.231-13.426-22.158-2.433-30.627 15.666-12.074 44.156-12.358 72.168-4.638 16.553 4.525 32.935 11.858 46.418 21.179l108.036 74.032 1.444.989z" fill="#fff"/><path d="M238.038 492.158c-.033 0-.066 0-.099-.002l-.569-.022-146.037-6.755a2.494 2.494 0 0 1-1.295-.435l-79.046-54.159C4.204 426.135.2 419.516.007 412.627c-.177-6.319 2.821-12.183 8.439-16.512 12.29-9.468 32.504-12.604 56.919-8.835 22.919 3.54 46.469 12.762 64.613 25.3l109.471 75.016a2.5 2.5 0 0 1-1.412 4.563zm-145.76-11.74 1.701.081 135.404 6.261-102.239-70.061c-34.151-23.601-90.859-35.721-115.646-16.623-4.317 3.326-6.623 7.734-6.493 12.411.147 5.271 3.359 10.438 8.813 14.173zm159.417-78.889c-2.87 0-5.65-.289-8.276-.896a2.5 2.5 0 1 1 1.126-4.871c16.222 3.741 39.053-6.068 49.861-21.438a2.5 2.5 0 0 1 4.09 2.877c-10.126 14.399-30.003 24.328-46.8 24.328z" fill="#095ddb"/><path d="M238.837 409.412a2.5 2.5 0 0 1-1.915-4.105c4.449-5.31 5.921-11.197 4.037-16.153a2.501 2.501 0 0 1 4.674-1.778c2.546 6.699.768 14.405-4.878 21.142a2.49 2.49 0 0 1-1.917.895zm-62.694-53.668-33.116-27.336s-3.691 4.925-5.01 6.797c-4.667 6.625-1.338 17.449 6.665 24.507 8.904 7.852 21.073 8.604 27.18 1.68.412-.467 4.28-5.648 4.28-5.648z" fill="#095ddb"/><path d="M160.554 368.632c-.457 0-.919-.015-1.386-.043-5.686-.352-11.417-2.838-16.138-7.002-9.219-8.13-12.318-20.351-7.056-27.821 1.325-1.881 4.902-6.654 5.053-6.856a2.5 2.5 0 0 1 3.592-.428l33.116 27.336a2.501 2.501 0 0 1 .412 3.424c-1.181 1.582-3.976 5.315-4.409 5.806-3.2 3.629-7.843 5.586-13.183 5.586zm-17.094-36.624c-1.162 1.563-2.667 3.597-3.399 4.637-3.751 5.326-.936 14.833 6.275 21.192 3.892 3.432 8.558 5.478 13.14 5.761 4.346.268 8.08-1.103 10.511-3.859.207-.246 1.388-1.804 2.725-3.584l-29.252-24.146z" fill="#095ddb"/><path d="m148.827 334.284-12.926 8.811c-49.117-23.87-83.383-31.64-130.214-29.544a1.137 1.137 0 0 1-1.178-.965l-.645-4.351 8.676-4.897c47.066-3.024 87.208 6.264 136.286 30.945z" fill="#fff"/><path d="M135.901 345.595c-.372 0-.746-.083-1.093-.251-48.784-23.709-82.545-31.38-129.01-29.295a3.617 3.617 0 0 1-3.763-3.096l-.645-4.351a2.499 2.499 0 0 1 1.244-2.543l8.676-4.897a2.486 2.486 0 0 1 1.069-.318c46.933-3.014 88.076 6.317 137.57 31.207a2.498 2.498 0 0 1 .284 4.298l-12.926 8.811a2.498 2.498 0 0 1-1.408.435zm-115.99-34.874c39.954 0 71.959 8.338 115.778 29.493l8.203-5.592C96.58 311.375 58.41 302.987 13.271 305.798l-6.681 3.771.212 1.432c4.478-.185 8.838-.28 13.11-.28z" fill="#095ddb"/><path d="M156.395 341.613a6.78 6.78 0 0 1-4.8 3.562 6.786 6.786 0 0 1-4.396-.645c-42.636-22.089-75.588-32.186-112.538-34.571-8.866-.574-17.968-.703-27.488-.446-3.772.101-4.441-1.71-1.483-4.051l8.554-6.771h.011c11.5-.646 22.599-.542 33.531.36 34.446 2.792 67.236 13.436 105.692 33.366 3.338 1.735 4.653 5.858 2.918 9.196z" fill="#fff"/><path d="M49.285 313.843c-.303 0-.605-.058-.889-.165-4.554-1.493-8.87-3.178-13.044-4.808-7.28-2.842-14.157-5.526-22.207-7.283a2.5 2.5 0 0 1-1.909-2.976 2.498 2.498 0 0 1 2.976-1.909c8.435 1.841 15.818 4.724 22.958 7.511 4.137 1.615 8.415 3.285 12.869 4.742.111.036.219.08.323.131a2.502 2.502 0 0 1-1.078 4.757z" fill="#fff"/><path d="M150.346 347.795a9.415 9.415 0 0 1-4.29-1.041c-42.443-21.989-74.761-31.926-111.556-34.299-8.632-.56-17.55-.707-27.26-.443-3.835.088-5.206-1.443-5.683-2.759-.477-1.313-.416-3.378 2.582-5.751l8.553-6.771a2.495 2.495 0 0 1 1.423-.538c11.793-.661 22.875-.542 33.876.366 34.209 2.772 67.098 13.146 106.637 33.638a9.28 9.28 0 0 1 4.594 5.46 9.235 9.235 0 0 1-.604 7.1 9.22 9.22 0 0 1-6.568 4.876 9.017 9.017 0 0 1-1.704.162zM16.349 306.886c6.397 0 12.499.192 18.473.579 37.538 2.422 70.429 12.518 113.527 34.846a4.315 4.315 0 0 0 2.772.409 4.264 4.264 0 0 0 3.051-2.252l.005-.009c.53-1.02.629-2.187.279-3.288a4.31 4.31 0 0 0-2.132-2.536c-38.918-20.169-71.222-30.375-104.741-33.092-10.531-.869-21.14-1-32.409-.4l-7.395 5.854c2.921-.073 5.774-.11 8.57-.11z" fill="#095ddb"/><ellipse cx="159.15" cy="342.626" fill="#fff" rx="16.717" ry="21.497" transform="matrix(.6614035 -.75003027 .75003027 .6614035 -203.092 235.377)"/><path d="M163.966 364.084c-.458 0-.92-.014-1.387-.043-5.686-.352-11.417-2.838-16.138-7.002-4.721-4.163-7.905-9.538-8.965-15.136-1.104-5.828.202-11.208 3.677-15.148 7.009-7.947 20.784-7.292 30.708 1.459 9.923 8.751 12.294 22.337 5.288 30.284-3.201 3.63-7.843 5.586-13.183 5.586zm-9.605-37.93c-3.749 0-7.144 1.283-9.458 3.907-2.432 2.758-3.325 6.633-2.515 10.912.854 4.51 3.468 8.884 7.359 12.315 3.892 3.432 8.559 5.479 13.14 5.762 4.351.272 8.08-1.102 10.511-3.859 5.185-5.88 3.011-16.3-4.845-23.228-4.349-3.835-9.543-5.81-14.192-5.81z" fill="#095ddb"/><ellipse cx="160.087" cy="340.065" fill="#a3c2f2" rx="7.636" ry="9.013" transform="matrix(.63292156 -.77421593 .77421593 .63292156 -204.519 248.769)"/><path d="M211.023 90.867c-2.876-.746-5.876-2.023-7.805-4.563-10.704-14.096-22.534-17.847-36.157-16.498-10.592 1.049-21.317 2.052-25.215-6.312s3.243-17.532 11.679-21.266c20.358-9.012 48.128-6.047 74.036 19.667 13.067 12.969-.253 33.197-16.538 28.971z" fill="#fff"/><path d="M203.22 88.804a2.498 2.498 0 0 1-1.993-.988c-9.222-12.146-19.684-16.938-33.919-15.521-10.806 1.067-23.054 2.283-27.728-7.744-1.659-3.559-1.763-7.498-.303-11.392 2.042-5.442 7.114-10.507 13.235-13.217 24.457-10.826 53.17-3.282 76.809 20.179a2.499 2.499 0 1 1-3.522 3.549c-22.122-21.956-48.762-29.115-71.263-19.155-4.863 2.152-9.015 6.235-10.578 10.401-.992 2.645-.941 5.176.153 7.523 2.954 6.338 10.907 6.048 22.703 4.879 15.941-1.57 28.142 3.973 38.394 17.474a2.5 2.5 0 0 1-1.989 4.012z" fill="#095ddb"/><path d="M260.917 110.337c.167 3.278-.911 6.712-2.722 9.867-2.734 4.767-7.156 8.901-11.49 10.89-16.001 7.345-33.769 6.168-45.682-4.634-15.057-13.679-22.358-38.248-10.823-57.994a43.723 43.723 0 0 1 5.411-7.356c12.423-13.69 33.114-20.079 50.582-18.301 1.611.167 3.2.4 4.756.7 36.725 7.112 39.436 55.549 9.967 66.828z" fill="#fff"/><path d="M219.762 75.51c-12.401-12.42-24.547-14.684-33.287-9.316-7.163 4.4-16.499 1.515-19.771-6.399-2.736-6.619-.502-15.236 6.77-19.451 17.511-10.149 47.087-10.636 67.787 12.559 5.563 6.233 5.26 16.346-.677 22.589-5.926 6.233-14.91 5.939-20.821.019z" fill="#fff"/><path d="M179.242 70.751c-1.666 0-3.336-.258-4.951-.783-4.468-1.45-8.075-4.811-9.897-9.219-3.428-8.292-.064-17.995 7.826-22.569 19.407-11.245 49.995-10.373 70.906 13.058a2.5 2.5 0 1 1-3.731 3.33c-19.131-21.438-47.013-22.295-64.668-12.062-6.531 3.786-7.818 11.241-5.713 16.333 1.281 3.098 3.703 5.361 6.821 6.374 3.102 1.008 6.503.588 9.331-1.149 6.944-4.266 15.533-4.114 24.185.425a2.5 2.5 0 0 1-2.323 4.428c-7.13-3.741-13.785-3.945-19.245-.593a16.318 16.318 0 0 1-8.541 2.428z" fill="#095ddb"/><path d="m271.574 54.877-21.491 17.524c-2.878.033-5.733-.967-8.323-2.856a1.898 1.898 0 0 0-.178-.123c-2.267-1.645-4.412-3.022-6.467-4.145-11.068-6.089-19.513-5.112-28.802-.133-5.201 2.789-11.401 4.567-16.113 3.322-2.39-.633-4.4-2.044-5.701-4.512-3.734-7.1-.233-15.957 5.923-21.191 14.468-12.301 39.715-14.668 63.339-1.422 5.712 3.2 11.335 7.323 16.69 12.445.378.355.744.722 1.123 1.089z" fill="#fff"/><path d="M193.538 71.376c-1.503 0-3.007-.186-4.453-.628-2.986-.913-5.336-2.859-6.794-5.628-4.472-8.485-.11-18.627 6.51-24.259 13.526-11.51 40.276-16.866 67.044-1.431a2.5 2.5 0 0 1-2.498 4.332c-24.671-14.228-49.074-9.503-61.307.907-5.104 4.342-8.573 11.961-5.327 18.12.847 1.607 2.102 2.647 3.834 3.177 3.563 1.092 9.015-.043 14.586-3.028 4.838-2.595 9.091-3.963 13.383-4.304 1.379-.092 2.581.918 2.69 2.294a2.5 2.5 0 0 1-2.294 2.69c-3.58.284-7.207 1.468-11.416 3.726-2.553 1.369-8.255 4.031-13.958 4.031z" fill="#095ddb"/><path d="M254.597 41.596c-21.215 10.836-43.336 25.341-51.179 41.966-20.455-5.762-33.069-9.695-33.069-9.695z" fill="#095ddb"/><path d="M203.418 86.062c-.225 0-.453-.03-.678-.094-20.254-5.705-33.009-9.676-33.135-9.715a2.5 2.5 0 0 1-.151-4.722l84.248-32.271a2.5 2.5 0 0 1 2.032 4.561c-26.929 13.754-43.77 27.483-50.055 40.806a2.5 2.5 0 0 1-2.261 1.434zm-25.37-12.467a1618.087 1618.087 0 0 0 24.068 7.001c4.656-8.658 13.24-17.368 25.647-26.044l-49.714 19.043z" fill="#095ddb"/><path d="M122.294 110.786 329.3 2.504 104.163 48.507z" fill="#a3c2f2"/><path d="M122.942 112.824a3.56 3.56 0 0 1-1.392-.283 3.609 3.609 0 0 1-2.03-2.226l-7.547-24.667a2.5 2.5 0 0 1 4.781-1.463l7.042 23.016 23.849-12.654a2.5 2.5 0 1 1 2.343 4.416l-25.363 13.457a3.776 3.776 0 0 1-1.683.404z" fill="#095ddb"/><path d="M122.954 112.829a3.57 3.57 0 0 1-1.389-.281 3.628 3.628 0 0 1-2.043-2.227l-5.104-15.949-12.666-45.19a2.497 2.497 0 0 1 1.906-3.124L328.802.056a2.5 2.5 0 0 1 1.66 4.664L124.617 112.431a3.735 3.735 0 0 1-1.663.397zm-15.662-62.41 11.915 42.517 4.575 14.291L312.456 8.5 107.291 50.419z" fill="#095ddb"/><path d="M329.3 2.5 199.189 49.416 75.928 93.857c-3.773 1.36-4.918-.172-2.545-3.406l24.554-33.459 8.307-1.96-2.078-6.531 21.429-29.208a4.445 4.445 0 0 1 3.253-1.803l99.21-7.413L329.3 2.499z" fill="#fff"/><path d="M329.3 2.5 106.244 55.033l-2.078-6.531z" fill="#095ddb"/><path d="M73.604 96.849c-1.707 0-2.692-.723-3.255-1.476-.847-1.133-1.358-3.164 1.019-6.402l24.554-33.459a2.505 2.505 0 0 1 1.442-.954l5.68-1.339-1.26-3.96a2.497 2.497 0 0 1 .367-2.236l21.429-29.208a6.932 6.932 0 0 1 5.082-2.817l99.21-7.413L329.113.007c1.246-.1 2.37.749 2.631 1.971a2.5 2.5 0 0 1-1.597 2.874L76.776 96.209c-1.267.457-2.311.641-3.172.641zm25.804-37.636L75.937 91.196 311.225 6.36l-82.98 6.211-99.21 7.413a1.944 1.944 0 0 0-1.424.789l-20.677 28.183 1.692 5.319a2.5 2.5 0 0 1-1.808 3.191z" fill="#095ddb"/><path d="M97.937 59.489a2.5 2.5 0 0 1-.571-4.935l67.632-15.927-60.335 12.328a2.499 2.499 0 1 1-1.001-4.898L328.8.055a2.5 2.5 0 0 1 1.073 4.883L98.512 59.422a2.527 2.527 0 0 1-.575.067z" fill="#095ddb"/><path d="M159.374 90.846c-11.76-4.892-10.558-14.428-3.896-19.105 9.072-6.369 22.307-7.219 34.431 2.465 12.094 9.66 17.791 2.293 31.297 5.853 13.505 3.559 21.109 12.852 21.253 27.815.144 14.964-7.874 27.884-16.599 27.884-11.251 0-22.441-1.468-34.3-11.988-9.775-8.673-13.756-25.257-32.186-32.924z" fill="#fff"/><path d="M238.06 91.634c-.72 0-1.435-.31-1.929-.908-6.951-8.422-6.031-19.826-2.853-27.691a2.5 2.5 0 1 1 4.635 1.873c-2.639 6.531-3.48 15.907 2.073 22.635a2.5 2.5 0 0 1-1.927 4.092zm33.116 14.727a2.5 2.5 0 0 1-1.734-4.302c10.63-10.23 12.038-28.622 3.205-41.871-4.163-6.245-12.826-12.651-18.979-16.241a2.5 2.5 0 1 1 2.519-4.318c6.932 4.043 15.989 10.839 20.62 17.786 10.302 15.452 8.627 36.194-3.897 48.248a2.495 2.495 0 0 1-1.733.698z" fill="#095ddb"/><path d="M399.279 778.087c17.581-21.006 57.809-29.14 38.07-30.447-13.457-.878-32.392 3.023-47.982 10.546 10.21-14.823 38.681-62.138 29.58-77.484-.989-1.678-2.467-2.823-4.456-3.367-26.675-7.255-69.635 43.651-82.229 85.574-7.246-13.7-16.837-25.581-27.369-37.192-30.887-33.991-64.751-10.375-42.415 31.791 4.356 8.234 9.49 15.157 15.168 20.969-15.373-.424-34.794.045-41.068.767-40.72 4.683-6.434 24.691 22.78 25.024-42.392 0 13.858 19.28 97.262 19.28 80.73 0 126.72-20.857 91.595-25.624 53.85 0 5.102-17.775-48.936-19.835z" fill="#fff"/><path d="M314.016 803.413c-.265 0-.534-.043-.799-.132-16.053-5.413-30.218-16.694-37.233-22.938a2.505 2.505 0 0 1 1.662-4.373c.7 0 1.333.287 1.787.749 6.773 6.012 20.263 16.726 35.382 21.823a2.5 2.5 0 0 1-.799 4.87zm49.228-11.869a2.5 2.5 0 0 1-1.667-4.364c2.673-2.389 5.474-5.216 8.326-8.403 26.42-29.382 55.189-84.288 47.008-96.578a2.532 2.532 0 0 1-.288-.586c-.121-.232-1.152-1.423-2.785-1.864-10.908-2.963-28.378 6.51-44.507 24.132-7.941 8.671-15.95 19.976-22.551 31.831a177.056 177.056 0 0 0-5.061 9.794c-.206.434-.413.869-.609 1.294-2.723 5.866-4.909 11.502-6.5 16.757-1.812 5.948-2.873 11.456-3.153 16.375a2.496 2.496 0 0 1-2.638 2.354 2.5 2.5 0 0 1-2.354-2.639c.303-5.315 1.433-11.218 3.36-17.543 1.658-5.475 3.928-11.331 6.747-17.403.201-.437.417-.89.632-1.343a181.366 181.366 0 0 1 5.207-10.076c6.786-12.188 15.036-23.828 23.232-32.776 17.646-19.279 36.615-29.079 49.503-25.582 3.005.813 5.288 2.969 6.073 4.732 6.048 9.613-2.271 30.74-10.356 46.837-9.973 19.855-24.242 41.17-37.24 55.624-2.971 3.32-5.905 6.28-8.716 8.793a2.492 2.492 0 0 1-1.665.636zm28.555-2.166a2.5 2.5 0 0 1-1.979-4.026c2.853-3.704 4.965-6.031 7.41-8.727l.198-.218a2.499 2.499 0 1 1 3.703 3.359l-.198.218c-2.373 2.615-4.422 4.874-7.152 8.418a2.493 2.493 0 0 1-1.982.975z" fill="#095ddb"/><path d="M359.511 826.042c-.751 0-1.512 0-2.272-.01-13.269-.043-26.382-.51-38.951-1.386-.75-.046-1.52-.103-2.29-.159l-1.132-.081h-.014c-16.605-1.265-32.545-3.376-45.596-6.021l-.031-.006-.025-.006-.011-.002-.036-.007h-.003a224.202 224.202 0 0 1-5.35-1.155c-15.009-3.442-19.54-6.258-20.885-8.247-.612-.897-.579-1.633-.544-2.186.004-.076.01-.152.017-.227.056-.593.208-1.175.607-1.719-14.405-3.145-27.222-9.724-27.592-16.904-.448-8.716 15.615-10.562 20.894-11.168 5.484-.631 21.181-1.089 35.582-.902-4.41-5.166-8.302-10.923-11.607-17.177-13.182-24.883-7.025-41.323 2.254-47.84 9.794-6.881 27.264-5.469 44.217 13.191 8.192 9.039 17.388 19.851 24.924 32.686 6.863-19.305 19.772-40.571 34.592-56.727 17.898-19.515 35.718-28.649 48.889-25.07 2.617.723 4.618 2.24 5.958 4.513 9.284 15.661-14.657 56.664-25.094 73.153 13.872-5.371 29.431-8.229 41.503-7.439 3.699.246 7.062.692 7.603 3.421.613 3.094-2.516 4.634-10.878 8.75-8.45 4.159-20.667 10.173-29.425 18.536 1.539.088 3.052.187 4.531.295 27.345 1.992 59.599 8.661 64.027 15.412.857 1.29.969 2.771.301 4.051-.944 1.807-3.264 3.537-12.447 4.346 1.352 1.472 1.761 3.29 1.116 5.107-3.486 9.825-45.555 20.6-102.623 20.978h-.207zm-44.28-6.623 1.131.082c.751.055 1.502.109 2.253.156 12.479.87 25.481 1.332 38.664 1.375.764.01 1.503.01 2.232.01h.19c26.444-.176 51.788-2.682 71.347-7.057 20.884-4.672 26.177-9.388 26.573-10.557a1.645 1.645 0 0 0-.278-.276l-.068-.058c-.83-.653-3.139-1.832-9.405-2.696a2.5 2.5 0 0 1 .341-4.976c3.6 0 4.229-.034 4.289-.037.161-.02.319-.022.472-.009 9.997-.235 13.967-1.181 15.493-1.773-4.754-3.536-28.156-10.185-59.487-12.468-3.135-.229-6.43-.413-9.796-.545a2.5 2.5 0 0 1-1.82-4.102c9.379-11.209 24.597-18.699 34.667-23.656 1.818-.896 3.758-1.85 5.328-2.684l-.173-.012c-13.577-.886-31.919 3.155-46.728 10.298a2.499 2.499 0 0 1-3.145-3.67c12.947-18.792 37.189-61.797 29.488-74.786-.68-1.154-1.624-1.862-2.975-2.235-24.743-6.735-66.923 43.137-79.17 83.89a2.502 2.502 0 0 1-2.151 1.769 2.514 2.514 0 0 1-2.453-1.319c-7.713-14.576-17.984-26.727-27.013-36.69-14.901-16.401-29.642-18.076-37.64-12.46-8.215 5.771-11.62 20.813-.708 41.411 4.044 7.652 9.006 14.509 14.748 20.382a2.5 2.5 0 0 1-1.856 4.247c-15.532-.428-34.641.059-40.717.755-13.192 1.517-16.542 4.552-16.471 5.944.256 4.971 19.283 13.721 38.481 14.095 3.017-.01 6.583.083 10.8.294a2.5 2.5 0 0 1 2.373 2.621 2.508 2.508 0 0 1-2.621 2.373c-3.962-.197-7.237-.279-9.94-.283a2.649 2.649 0 0 1-.126.003c-5.535 0-8.67.339-10.409.668 4.382 2.193 15.95 5.426 33.174 8.169 9.425 1.5 20.543 2.854 33.105 3.81zM224.94 138.27c-10.435 0-22.428-1.443-35.039-12.631-3.68-3.266-6.494-7.435-9.473-11.849-5.295-7.847-10.77-15.96-22.014-20.637-8.301-3.453-10.059-8.714-10.368-11.542-.483-4.415 1.815-8.982 5.996-11.918 8.806-6.181 23.262-8.755 37.428 2.559 6.53 5.216 10.619 4.912 16.279 4.49 3.906-.293 8.332-.62 14.095.898 6.358 1.675 14.682 5.432 18.973 10.951a2.5 2.5 0 0 1-3.947 3.069c-2.905-3.736-9.303-7.342-16.3-9.186-4.952-1.304-8.764-1.021-12.45-.747-6.02.45-11.706.872-19.77-5.569-12.007-9.59-24.111-7.515-31.434-2.373-2.69 1.889-4.184 4.679-3.899 7.282.327 2.989 2.926 5.642 7.318 7.469 12.629 5.254 18.797 14.393 24.238 22.457 2.797 4.145 5.439 8.06 8.646 10.905 10.962 9.726 21.061 11.558 33.8 11.354 6.079-.096 12.526-1.628 18.645-4.431 5.749-2.642 12.253-10.093 12.768-16.974a2.5 2.5 0 1 1 4.985.373c-.676 9.041-8.498 17.851-15.669 21.145-6.745 3.091-13.885 4.779-20.651 4.887-.711.011-1.431.018-2.157.018z" fill="#095ddb"/></svg></g></svg>